<?xml version="1.0" encoding="utf-8" ?>
<svg baseProfile="full" height="100.296629324" version="1.1" width="829.458005114" xmlns="http://www.w3.org/2000/svg" xmlns:ev="http://www.w3.org/2001/xml-events" xmlns:xlink="http://www.w3.org/1999/xlink"><defs /><rect fill="white" height="100.296629324" width="829.458005114" x="0" y="0" /><path d="M25,25.5733657402 m0.0,0.0 m18.8289057472,16.4982242762 l-0.715595185757,-0.693621337414 -1.49731785059,1.09893508255 l-1.09143659472,0.847917273641 -1.86700224876,1.48184463382 l-1.05079859495,1.03479981422 -1.5935510397,1.64662271738 l-0.86392134428,1.11736580729 -1.24049521983,2.86967664957 l-0.378462448716,1.95386946201 -0.000135877371576,2.45073884726 l1.20406836271,1.63441196084 6.60965621471,0.673692598939 l1.5175242722,-0.560109205544 1.69897288084,-1.64848700166 l1.12989351153,-2.2459462285 1.48430287838,-8.37710976601 l-4.47646607427e-05,-4.25351828337 -0.602101162076,-1.16140559316 l-1.44067510962,-0.697338655591 -2.39717617631,-8.14492250356e-05 l-1.10651142895,0.725372433662 0.00016956770196,-0.0616354495287 m-4.47442501783,2.51095056534 l-0.443590693176,-4.11932945251 -0.868181437254,-4.82550740242 l-6.66796677251e-05,-4.36764985323 1.38735741377,0.794166699052 l3.25672268867,4.99232649803 2.00048074126,3.59488606453 l0.691327527165,0.921354070306 m2.57882535458,0.0490620359778 l1.23681224883,-1.2719258666 3.30578386784,-4.60542231798 l2.28920027614,-2.75676131248 0.520969778299,1.59122869372 l-0.000277382387139,6.65555715561 -0.596010573208,2.30758696795 l-0.921291783452,1.88055843115 -0.826492682099,1.43718406558 m-0.34239616245,4.57404047251 l3.32259714603,-0.616717226803 8.11087846756,2.09520194971e-06 l6.16654455662,-0.26736266911 8.99917423725,-7.03249088474e-05 l1.89664214849,0.357739962637 3.09086591005,1.68877601624 l2.55320101976,2.74292886257 1.62049174309,3.72727185488 l-0.000133688581627,3.51414233446 -1.10307954252,1.2050011009 l-5.90783894062,2.5677254796 -9.52270746231,1.20425447822 l-9.34889554977,-0.000262709454546 -8.84136259556,-1.62282913923 l-6.55150413513,-2.83083766699 -1.12773887813,-1.40642642975 l-0.000246722465818,-2.492608428 -0.000311433868774,-2.76782244444 m6.95862591267,7.46080935001 l-0.000191498547792,3.70175659657 -0.72338797152,3.09304118156 m11.1024034023,-5.01883625984 l6.17374053036e-05,5.08833408356 -0.205632764846,2.05554068089 m12.367733717,-6.2635576725 l0.000158875518537,3.61944407225 -0.0356800621375,2.28283017874 m7.23819851875,-7.27897524834 l0.913931876421,4.0736758709 2.36240722984e-06,2.2085557878 m2.57862508297,-13.388916254 l3.90305995941,-0.111319115385 2.33637094498,-0.894566848874 l1.88812568784,-1.10824041069 1.66224867105,-1.46904289722 l1.27437368035,-1.52847364545 m71.6450432902,-1.13462573672 l-0.88712438941,-0.624217875302 -1.4635309577,1.10418438911 l-0.982151776552,0.993705540895 -0.991084426641,1.13152012229 l-0.863418877125,1.10481396317 -1.0462448746,1.73240303993 l-1.10724307597,2.41684854031 -4.24097879659e-05,1.62332385778 l0.659637823701,1.32346406579 5.8674710989,0.474112853408 l1.33429333568,-0.711901113391 1.3306748867,-1.81695267558 l1.23639248312,-4.59796845913 8.08949607745e-05,-3.34917068481 l-1.76163747907,-2.15683802962 -1.96482241154,-1.38255894184 m-6.17280185223,0.518076717854 l-0.862671807408,-1.15868754685 -1.33715480566,-4.4722878933 l-0.900497362018,-6.34144484997 1.27627811253e-05,-3.58762651682 l2.26070016623,1.42445415258 3.3302256465,4.53667253256 l1.27338826656,2.50643819571 1.19284428656,3.35602790117 l0.377910882235,1.3336341083 0.707733109593,0.731352642179 l2.09023073316,9.2554191724e-05 1.04071453214,-1.23136647046 l2.95164495707,-5.56825518608 2.55888819695,-3.26066493988 l2.58743584156,-2.25372433662 0.5450097844,1.55917048454 l-0.000330743023369,4.82097387314 -0.957416072488,3.36475431919 l-1.31331950426,3.07790249586 -1.13909520209,2.45961278677 l-1.22415244579,1.7005546391 -0.66888935864,0.9509550035 m-8.41923356056,4.6441167593 l0.61836514622,8.36250637803e-05 1.07745371759,-0.000128992733153 l4.57216233015,-5.48972911929e-05 m-6.59977257252,0.210330374539 l0.842120721936,9.31478098209e-05 1.29401549697,-7.33486876925e-05 l6.20381653309,1.09636891921e-05 m-8.81141245365,-0.694327130914 l1.27211615443,6.68940310788e-05 4.54042285681,-0.000101647228803 l6.0005658865,-4.32846491094e-05 m-12.2721123695,0.0956192333251 l-0.328606665134,2.88274964078e-05 -1.3750462234,-0.000199048390641 l-2.34328150749,-0.000150780342665 -6.31862580776,-0.000202934534173 l-8.55071127415,0.602098703384 -4.95084702969,-0.000376509851776 l-6.344794631,-0.000270800283033 -5.20314455032,-0.000272668876278 l-5.88214278221,-0.00035045977711 -4.81160253286,-0.000401235665777 l-5.0070810318,-0.000412642475567 -1.05020605028,0.798719599843 l-0.000208162673516,2.19667643309 -0.000308609705826,4.93924856186 l0.842014551163,2.97898888588 1.18631698191,0.854940935969 l7.28578090668,-0.000131614860948 3.26028227806,-0.50684697926 l9.90550816059,-5.11746657139e-05 2.7890136838,-0.500885508955 l8.62658977509,0.000125260849018 2.41696670651,-0.826451778412 l5.9256953001,9.66111929301e-05 1.09538935125,-0.542070716619 l3.61329495907,0.000109177790364 m55.0920278976,-24.785949867 l-1.00504852831,-0.495034977794 -1.42970025539,1.21653817594 l-0.9753061831,0.843935385346 -0.89617177844,1.13221466541 l-1.08704291284,1.58018678427 -1.09119154513,2.55555897951 l-0.251216068864,1.6901551187 -0.000161265306815,2.17857271433 l1.02753728628,1.11615218222 3.58058214188,-0.000184211057785 l1.27051085234,-0.854693874717 1.24937094748,-2.04455986619 l1.24313436449,-4.30101573467 8.20293098514e-05,-3.66378933191 l-0.541764162481,-1.12527631223 -1.46848917007,-0.883291214705 m-6.04528844357,0.0307615357451 l-0.730431303382,-0.973117426038 -1.80054813623,-4.68598335981 l-0.373343974352,-1.2641762197 8.10244364402e-05,-2.96387642622 l2.12704047561,0.476481691003 2.89290755987,3.623483181 l0.77739931643,1.03078268468 1.63676917553,2.39578485489 l-0.000250201283052,0.123913129792 1.57682284713,-3.37162286043 l2.26352438331,-3.84891748428 2.83350378275,-3.21486115456 l0.575841739774,1.37781456113 -0.000316484110954,5.60114502907 l-0.668812170625,2.41987615824 -1.06474466622,2.0329643786 l-0.945485383272,1.67766258121 m-6.39546751976,8.86134684086 l1.36369869113,3.19592504638e-05 3.22650939226,-0.000173781463673 l7.95938014984,-0.000123932140923 6.28933370113,-0.148243708536 l11.2248778343,-6.56017346046e-05 1.68167501688,0.369253084064 l2.80292958021,1.6192792356 1.32944688201,1.54575139284 l-0.000258572999883,2.98061013222 -0.667831674218,1.1267323792 l-1.18766963482,0.999655425549 -1.95656567812,0.868412032723 l-7.48764514923,-0.000172222207766 -2.91653543711,-0.0368954800069 l-9.38945353031,-0.000231161920965 -7.59546220303,-1.75566971302 l-2.27323248982,-1.11201047897 -1.70762389898,-1.18714928627 l-0.982162505388,-1.34548917413 -0.000164088942256,-1.76151290536 m7.42461919785,5.83794474602 l-0.000153766704898,3.77119541168 -0.790980309248,3.15880864859 l-0.000319747232425,4.72696065903 -0.267058778554,1.58722758293 l-0.000146764041347,2.11670488119 m11.50801301,-13.1647586823 l2.97692417917e-05,7.3359978199 -0.145203238353,2.58078366518 l-0.000341823397321,2.91574150324 m11.0322570801,-12.9363191128 l4.65473613076e-05,5.00740170479 -0.192864239216,3.16526770592 l-0.000374524279323,2.27056592703 0.191493388265,2.18251168728 m5.61696708202,-13.9468646049 l-0.000147956998262,5.64860165119 0.605169422925,6.82471513748 l-0.000154003519128,2.62671232224 m79.7738135119,-34.6143969174 l-1.06616124511,-0.4250510782 -1.33088737726,0.994338542223 l-0.942240431905,0.902892425656 -0.791605487466,1.02893047035 l-1.09873071313,1.58184140921 -0.784004852176,1.83302655816 l-6.26070345788e-06,1.97421714664 0.946584716439,1.18972800672 l5.86366891861,-0.309795606881 1.92107260227,-2.43823051453 l0.98827265203,-3.60480755568 -6.60960949972e-06,-2.6746019721 l-0.691137835383,-1.06501296163 -1.14732369781,-0.685818344355 l-2.25622713566,-0.000146461470649 m-6.12827122211,-0.920286178589 l-0.695833265781,-1.0960945487 -1.34682685137,-4.20170545578 l-0.608884952962,-2.41984561086 8.24562630442e-05,-2.6968896389 l1.32903754711,0.350490994751 3.09509843588,3.40060919523 l2.13437318802,2.64080494642 0.63719086349,0.863011628389 l0.981498882174,0.690847858787 1.48668348789,7.84861242664e-06 l2.336396873,9.4129683248e-06 0.824584513903,-1.05460315943 l2.65282779932,-4.23194855452 2.51205146313,-3.01085084677 l0.581342093647,1.40918120742 -0.000316548612318,6.17674410343 l-0.692273750901,2.09182575345 -1.10436238348,1.9171653688 l-1.18211433291,1.58204838634 -1.4849601686,1.25162601471 m-9.69584643841,4.74486649036 l-0.960171669722,-1.25866267808e-05 -1.75085797906,-0.00027522799428 l-7.02816843987,-0.000206630556931 -9.76854383945,0.225139278919 l-8.84324014187,-0.000349500987795 -5.07144331932,0.797822549939 l-5.61045110226,2.05198824406 -2.2249121964,1.18601381779 l-0.954273119569,0.960943326354 -1.22225232422,3.10698926449 l-5.79059906158e-05,3.687902987 0.981729477644,2.18110620975 l1.17386773229,0.95173291862 3.08531135321,1.16826154292 l8.839828372,-0.000279143678199 3.16919416189,-0.679099112749 l6.64115905762,-1.56929805875 2.74601131678,-0.987572968006 l4.92722928524,-1.86073109508 4.57020193338,-1.84648409486 l3.48638594151,-1.75582975149 1.35238662362,-1.23973228037 l1.03800751269,-1.33552253246 0.553055070341,-1.43184930086 m-8.33450436592,2.34622582793 l-0.000198521865968,1.32345512509 -0.000239749351749,3.42889130116 l-0.225822366774,2.09654435515 -0.000258998425124,3.93159210682 l0.0319113582373,4.39632326365 -0.0156300887465,2.87341415882 l-0.111215813085,2.5044003129 -0.328912138939,2.15992689133 l-0.485589727759,2.03457772732 m-23.9519453049,-18.407651186 l-0.0127606885508,1.47312089801 -0.00012064785551,7.58116722107 l-0.4861471802,3.45513522625 -0.000292820186587,4.77055311203 l-0.0930656772107,1.54483780265 m-0.924755185843,-17.7374434471 l-8.07262222224e-05,5.63915371895 -0.702441558242,3.82527500391 l-0.699177756906,6.40664100647 m122.481544564,-36.6309687796 l-1.20310097933,-0.329310372472 -1.21848978102,0.936641320586 l-0.854936614633,0.888745635748 -1.16822227836,1.62193119526 l-0.979641377926,2.6659694314 2.59314651885e-05,2.19716608524 l0.957634523511,1.16166800261 3.06447505951,-0.000123485078802 l1.12424582243,-0.692328289151 2.45537757874,-3.18738222122 l0.87852448225,-2.57692039013 7.88575744082e-05,-2.66983747482 l-0.531994886696,-0.983349755406 -1.37842878699,-0.704865381122 l-2.16345638037,-0.000148967674249 m-5.88317334652,0.412283465266 l-0.746630132198,-0.796011984348 -1.60765945911,-3.61064732075 l-0.825697779655,-2.1969217062 -0.560777299106,-1.21259056032 l2.35284528571e-05,-2.43660449982 1.20764821768,-0.00129580614157 l1.13683566451,1.06876783073 3.33996683359,3.57718497515 l1.74826920033,2.49520689249 0.905126035213,0.811760127544 l1.38393595815,1.23731058466e-05 2.46411219239,1.10915749474e-06 l2.00181156397,1.01738805824e-05 2.75974005461,-3.50962549448 l2.98155546188,-3.26099723577 0.532242953777,1.07134878635 l-0.000284726520476,3.94191235304 -0.875421091914,2.04746127129 l-1.17056407034,1.68192014098 -1.39082357287,1.81073769927 m-9.0373057127,7.54410982132 l-1.29700317979,-0.000100693887362 -5.62771439552,-0.000283372010017 l-9.51982617378,0.372820086777 -8.59224498272,0.944796800613 l-6.9399446249,-0.000342909770552 -5.56406497955,-0.000320915823977 l-5.58877229691,0.645122230053 -2.62556731701,1.0297139734 l-0.915961042047,0.950912982225 -0.582231096923,1.17640674114 l-7.50672052163e-05,3.65198165178 0.796471610665,2.28676319122 l3.09795558453,4.37706142664 2.2160191834,1.8949919939 l3.35581660271,1.53110876679 6.85245335102,-0.000327278030454 l2.93394654989,-0.557158961892 7.16122746468,-1.81907653809 l2.85668820143,-1.17147095501 4.46295678616,-1.88063085079 l4.056019485,-1.86847552657 1.45695865154,-1.16252109408 l1.16097517312,-1.55468717217 0.957493558526,-1.5821865201 l-5.60966373087e-05,-2.85766512156 -0.391364507377,-1.47390633821 l-0.891612172127,-1.06168679893 -1.09982661903,-0.849261209369 l-1.19406804442,-0.645222216845 m-32.986907959,13.6610007286 l-7.56918188927e-05,5.99168121815 -0.274864919484,2.51757085323 l-0.00026660027288,3.4590062499 0.223879851401,1.38685613871 l0.534901954234,1.75599172711 0.527633428574,1.29475399852 l0.711323693395,0.194376129657 1.98874667287,-6.66304958941e-05 l0.891954153776,-0.7197355479 -4.1159732973e-05,-6.37184083462 l0.034332186915,-5.89253842831 0.0894932914525,-3.69850516319 m12.451454401,-0.893826559186 l-0.000190154478332,6.02249920368 0.342754237354,5.26991546154 l0.768331885338,1.05887763202 1.04217432439,0.598865561187 l2.11593538523,8.98377402336e-05 0.929927676916,-0.747568309307 l-9.48290289671e-05,-3.7885260582 -0.589790344238,-5.60771465302 l-0.000153331584443,-4.70687747002 m101.341250728,-15.4390281788 l-1.32693350315,-0.2370146662 -1.20029315352,0.879934206605 l-0.816298946738,0.835019126534 -0.998064726591,1.93985551596 l-0.363857448101,2.35729798675 -3.88426224163e-05,2.18149006367 l1.2091986835,1.04580305517 2.7959805727,-0.000122091005323 l1.11532360315,-0.749028250575 0.907015800476,-1.83501824737 l0.000138081595651,-3.73909175396 -0.487033091486,-1.00219845772 l-1.28485992551,-1.4917768538 -0.898842439055,-0.50871539861 m-5.46894848347,-0.168964657933 l-0.840013325214,-0.674018710852 -1.67175516486,-1.8205524981 l-0.755032896996,-0.970290377736 -0.807458907366,-1.09848462045 l-2.18514442444,-3.14364254475 -0.725070461631,-1.03909261525 l-0.729634016752,-1.08970977366 7.22469485481e-05,-0.976117551327 l1.10667571425,-0.0306460610591 1.11110173166,0.679139345884 l3.31908255816,3.10491532087 2.29175105691,2.51137495041 l0.810552611947,0.697702839971 2.61038333178,-8.48530453368e-05 l3.23804169893,-3.61877323485e-05 3.46319168806,-5.10523977937e-05 l0.895637124777,-0.142113231122 2.39851564169,-3.31234186888 l2.5693333149,-3.01100254059 2.31333568692,-1.97823762894 l0.487489998341,1.05482392013 -0.00024882665457,4.32084858418 l-1.44098907709,2.56240367889 -0.655019208789,0.871839225292 l-1.77117347717,1.60506844521 -1.59086048603,1.28455281258 l-0.802351385355,0.675684884191 m-11.0043418407,4.83262062073 l-2.18582957983,-0.000134130013976 -6.02774977684,-0.000242633523158 l-9.18207585812,0.812835097313 -5.41878283024,-0.000407695806643 l-5.67280948162,-0.000212621143874 -5.86550176144,-0.000209946483665 l-5.76817274094,-0.000304628392769 -2.33583644032,0.857578441501 l-0.824728012085,0.879216939211 1.25713586385e-05,3.42279583216 l0.500634498894,2.49747693539 2.34548196197,4.66296285391 l3.75100582838,4.14349615574 4.4671869278,-0.000349735237251 l2.59174078703,-0.511961951852 2.58592396975,-1.0357183218 l5.51041901112,-1.6605322063 5.26482701302,-1.29987671971 l4.60434168577,-1.25000357628 4.36195254326,-1.22449636459 l3.82152825594,-1.45260035992 3.22454214096,-1.5157289803 l1.16541214287,-1.1110945791 0.885699912906,-1.37001931667 l1.15796683531e-05,-2.5714418292 -0.58008916676,-1.36090740561 m-40.7526731491,10.5576097965 l1.36919697979e-05,3.75041425228 -0.720696300268,2.49304234982 l-0.000115527473099,4.04488563538 -0.170643348247,1.47267952561 l-0.000175827135536,2.33943134546 0.149182099849,1.1329369992 l0.440062060952,0.862097367644 1.01421527565,0.309596899897 l2.14398011565,-0.000122023757285 0.874791741371,-0.684434473515 l0.703579559922,-1.76943287253 7.18240789865e-05,-5.15273928642 l0.125545877963,-4.90596324205 0.137823661789,-3.07322710752 m14.9573552608,-1.96139186621 l-0.000198667039513,6.78280055523 -0.0525866309181,2.92072892189 l-0.000301409927488,4.02494996786 0.378301851451,1.63170978427 l-0.000366593631043,1.69694438577 0.201035365462,1.08031027019 l1.33507117629,-2.33441187447e-05 0.9920835495,-0.639515668154 l0.779515132308,-1.56882584095 1.9406923002e-05,-4.46874886751 l-0.184746384621,-3.08094710112 m69.3533550653,-19.6617837594 l-1.44537836313,-0.123923840001 -1.11741259694,0.860597342253 l-0.703324079514,0.848326832056 -1.49755060673,3.03036034107 l-0.189339760691,1.01570293307 -8.53361507325e-05,2.51794874668 l1.07729941607,0.786066278815 5.45558750629,-0.858413130045 l1.59134745598,-2.29788243771 -1.4156519228e-05,-2.64071673155 l-0.956131219864,-2.08448216319 -0.871664881706,-0.736706331372 l-1.06224767864,-0.466135032475 -1.52219235897,-0.000100890201793 m-3.80242526531,1.18412368 l-0.906251296401,-0.438142605126 -1.01803399622,-0.739095956087 l-0.924809724092,-0.751713141799 -1.46352186799,-1.53931066394 l-0.784780755639,-0.8777243644 -1.0744868964,-1.70505478978 l-0.593786463141,-1.00351572037 0.00016984738977,-2.49268308282 l0.0626174965873,-0.948394984007 1.52027785778,-2.84798532724 l0.928032025695,0.00820134882815 1.89014211297,2.62298345566 l1.55513256788,2.87273049355 0.992290824652,2.38463968039 l-0.000275358797808,1.34384945035 -0.0041813304415,0.862272754312 l1.41262441874,-1.28649548969e-05 3.18439006805,-2.16380772144e-05 l4.11984503269,-8.78309128893e-05 4.29707407951,-5.23742255609e-05 l6.23522460461,-7.81489325163e-05 5.02546072006,0.238399542868 l4.97629821301,0.823012515903 7.23525047302,-0.000175129916897 l5.19957959652,0.196042452008 0.759259536862,0.44233545661 l2.13051304221,2.72020936012 -0.000273841669696,4.80515688658 l-0.462220646441,0.907019227743 -3.0816090107,2.88611531258 l-4.86216634512,2.71368950605 -5.67921817303,-0.00015857451217 l-2.5067794323,-0.256953760982 -6.98934614658,-0.000192627539946 l-6.66369438171,-1.04449629784 -6.3380241394,-1.91051542759 l-1.90104827285,-0.8036955446 -1.60444557667,-0.9527567029 l-1.3331271708,-1.15767665207 -1.03222124279,-1.45409986377 l4.47640047696e-06,-1.66999086738 m6.44074440002,4.78358209133 l-4.92171420774e-05,4.06441450119 -0.586747713387,2.53753811121 l-0.00017176660549,3.75394970179 -0.277414508164,1.44270911813 l-0.000212646846194,2.94409424067 0.139730321243,1.32701575756 l0.908144265413,0.407148562372 2.15602919459,-7.15100986781e-05 l0.789244621992,-0.608291998506 0.737480968237,-1.73928439617 l2.14828673961e-05,-4.7454726696 0.0672781281173,-5.24725675583 l0.0455630803481,-1.76010385156 0.344966314733,-2.22024276853 l-0.000292348195217,-1.02362379432 m12.1084105968,2.04692363739 l-0.376721806824,3.96018624306 -0.42385648936,3.06957393885 l-0.000234445997194,4.65500563383 -0.0165386719164,1.71923354268 l0.436435230076,1.47240608931 0.866303369403,0.597665719688 l2.10191726685,-7.85149313742e-05 0.853792130947,-0.646643415093 l0.623750574887,-1.86057537794 7.26636153559e-05,-5.02514183521 l-0.183279011399,-4.25920963287 -0.254719685763,-3.04514795542 l-0.00021365862267,-2.47019842267 m6.11891806126,-0.104927038774 l-7.50309663999e-05,4.93507355452 0.0984520092607,2.5375688076 l-0.000274044541584,3.84395897388 0.189368315041,1.56694576144 l0.355359017849,1.35383591056 0.938941091299,0.514386333525 l2.36457780004,2.41921810584e-06 0.791942849755,-0.793353021145 l2.27062173508e-05,-4.72879052162 -0.381444916129,-2.93870985508 l-0.709907487035,-5.60045182705 m48.5353268019,1.00577825656 l-1.58357962966,-0.0265694013797 -0.968814566731,0.654327869415 l-1.1680007726,1.67728543282 -0.61760339886,2.30929851532 l-2.67708537649e-05,3.15454274416 1.12794667482,1.10900945961 l3.36057037115,-0.000174807046278 0.928450673819,-0.607749074697 l2.08554401994,-3.22633773088 0.319340750575,-1.88820645213 l7.55583596401e-05,-2.55037069321 -0.470282584429,-0.813441202044 l-0.846443921328,-0.506990142167 -1.7823882401,-5.90783747612e-05 l-0.546910688281,0.385388173163 m12.3621606827,1.16169564426 l-0.949347913265,0.343601331115 -0.64662232995,0.761661306024 l-0.735799595714,1.96917966008 -0.000116061401059,2.08231136203 l0.834741741419,1.20834447443 1.87230989337,1.05268858373 l2.46197208762,-0.000124406851683 0.905213803053,-0.487699508667 l0.677672997117,-1.59237697721 2.25951316679e-05,-2.83308029175 l-0.372812747955,-0.92747323215 -0.790032297373,-0.742353945971 l-1.61118537188,-0.613404847682 -2.43811354041,-0.000240390818362 m-16.0818576813,1.48529216647 l0.643438026309,-0.000187980549526 2.62458413839,-0.000211613423744 l3.07100504637,-0.205403156579 4.6134775877,-0.000170811345015 l3.74600291252,-0.276332814246 4.75131928921,-0.000115844086395 l3.57683390379,-0.242008138448 5.08777499199,-0.000112510133476 l3.20337086916,-0.182841345668 4.3471300602,-0.0001433414036 l0.616245307028,-0.474138446152 -0.000136041217047,-2.72255688906 l-0.407944507897,-5.74665904045 -0.368393324316,-2.54928708076 l-0.690364614129,-4.27253782749 -0.669095441699,-0.726247578859 l-0.888150706887,-0.40341719985 -4.68553423882,-0.000226144584303 l-3.93448799849,0.166615061462 -7.14649140835,-9.67509822658e-05 l-3.73679548502,0.195290651172 -7.30673313141,-7.83540690463e-05 l-5.63217222691,-0.000178155405592 -0.696372240782,0.397170968354 l-1.45476728678,1.22895784676 -0.801657140255,1.22911594808 l-1.04626752436,2.11234822869 0.00012432238691,5.61894476414 l-0.23833854124,2.18199551105 -2.23857864512e-05,4.76239293814 l0.156727954745,1.19370684028 -0.000135505370054,2.32088342309 l0.508736073971,0.829875096679 2.85761535168,-0.000157441354531 l3.21977376938,-7.33689921617e-05 0.763064548373,-0.220527388155 m-1.90514355898,-13.2559525967 l-1.75454783857e-05,1.93205043674 0.275102220476,3.48451375961 l0.850328654051,0.523441880941 3.79615098238,-3.43141209669e-05 l0.743161961436,-0.615422613919 -0.000114383256005,-3.55269700289 l-0.374719873071,-0.822936892509 -0.791191980243,-0.612572617829 l-2.08685591817,-0.000208529108932 -1.43290042877,0.0330287427641 l-0.810334607959,0.175200756639 m10.565931797,-0.791002959013 l-6.27765484751e-05,3.28735917807 0.612424500287,1.10572814941 l0.890347212553,0.351799912751 4.42053228617,1.40674399063e-05 l0.697403997183,-0.547132194042 -0.000113524565677,-2.22872272134 l-0.677578896284,-1.19122855365 -0.864037573338,-0.568854548037 l-3.17154228687,-0.000202479059226 -1.38714119792,-0.0438374327496 m76.5975888316,6.74480603004 l-1.65512993932,0.0814148504287 -0.926132127643,0.631953626871 l-1.15506403148,1.73456162214 -0.628911554813,2.44141221046 l-4.31013359048e-05,3.63923728466 0.967874377966,0.995910614729 l3.73684942722,-0.000173676035047 0.815018936992,-0.629850700498 l1.93535760045,-3.11743527651 0.000192505776795,-3.20749610662 l-0.384482964873,-0.801985934377 -1.15261502564,-0.804842561483 l-1.30943194032,-0.428134016693 -1.41967043281,-8.48389663588e-05 m17.8067862988,0.850716456771 l-1.12610183656,0.24235252291 -0.809134095907,0.543714314699 l-1.03723779321,1.47403150797 -0.652951002121,2.00718507171 l-6.89059152137e-05,2.25262954831 0.686063542962,1.14392220974 l1.01628832519,0.818866640329 1.25463366508,0.478105433285 l2.2716063261,-9.64587979979e-05 1.09552107751,-0.879496634007 l0.589120239019,-1.67122587562 0.00010205705621,-2.75312483311 l-0.571898370981,-1.31153002381 -1.14406466484,-1.06100283563 l-1.33673965931,-0.63263207674 -1.91659942269,-0.000238397442445 m-19.9965143204,1.26769274473 l-0.0928822625428,-0.000217855285882 1.92333981395,-0.000125378855955 l3.96344780922,-0.000136637063406 3.48901391029,0.080397631973 l5.60924470425,-9.62302055996e-05 1.6647207737,-0.0281014619395 l5.67912697792,-8.69478662935e-05 1.45492941141,-0.0638574687764 l4.37537193298,-8.65571928443e-05 1.12804152071,-0.143172563985 l0.846393182874,-0.416096150875 0.784299522638,-0.679980441928 l-7.88017860032e-05,-5.21788299084 -0.420672595501,-6.95451438427 l-7.2215379987e-05,-6.03559195995 -0.543067455292,-0.609495192766 l-4.64462220669,-0.000155764191732 -4.01290744543,-0.0692540267482 l-9.58572626114,-7.30462534193e-05 -4.06962841749,0.16881249845 l-6.56800925732,-0.000130853086375 -0.78608982265,0.189304519445 l-3.26421439648,-0.00010026938071 -0.671120285988,0.420552194118 l-1.08906932175,1.31282925606 -1.09102837741,1.55580416322 l-1.68214082718,3.68375360966 -0.472394153476,2.02061057091 l2.99423686556e-05,5.03315389156 0.251332912594,1.62022575736 l-2.17550382331e-05,4.35879737139 0.596133619547,0.853972360492 l0.796068236232,0.447901450098 3.99753957987,-9.76754745352e-05 l1.71250402927,-0.10580056347 3.64664077759,-0.000165209858096 l0.712746828794,-0.155362607911 m-6.11184120178,-15.334135294 l-0.000141466680361,2.73222774267 0.32241165638,1.19537465274 l0.82984149456,0.420802421868 3.83585244417,-6.15453882347e-05 l0.64646743238,-0.582595914602 -6.92850971973e-05,-2.49226629734 l-0.438086688519,-0.807371214032 -0.771712660789,-0.541641786695 l-2.57223278284,-0.00025899231332 -1.24763399363,0.0940246973187 l-1.20751753449,-0.000223882780119 m10.3212785721,-0.379922501743 l-0.00012532393157,3.16914945841 0.549932532012,1.01776182652 l0.87488219142,0.369342975318 4.22036349773,2.45971733648e-06 l0.670022666454,-0.473627746105 -8.274364518e-05,-2.18143001199 l-0.437487997115,-0.810615420341 -0.802397429943,-0.539319813251 l-2.81321018934,-0.000207988468901 -1.45517677069,-0.201250072569 l-1.3762421906,-0.000196119381144 m72.9317813408,9.08175099926 l-1.65682345629,0.164002366364 -0.820172280073,0.50744947046 l-1.19452416897,1.71076476574 -1.17538958788,3.83875757456 l-6.14253576714e-05,3.61691385508 0.980674996972,0.901266932487 l2.20349177718,0.690701752901 4.71530258656,-1.22446544992e-05 l1.66078239679,-2.16672986746 0.561353564262,-4.48650360107 l7.93323215476e-05,-2.4352286756 -0.369051247835,-0.792846083641 l-1.10557727516,-0.70881575346 -2.24772363901,-5.73040415475e-05 l-1.39596104622,-0.0610972661525 -1.33663520217,-1.04365289744e-07 m20.2593207359,1.60376414657 l-1.00074887276,0.169621445239 -0.791578367352,0.486528798938 l-1.16857372224,1.48406907916 -0.626766979694,1.38164326549 l-5.04446370542e-05,2.82617151737 0.536563359201,1.19335569441 l0.944417342544,1.01844139397 1.84136673808,0.937135666609 l2.42882177234,0.403242558241 2.04243987799,-0.00015254157006 l0.774542838335,-0.462863445282 0.717579051852,-1.43113180995 l8.54252266436e-05,-2.48986825347 -0.574278049171,-1.74972265959 l-1.01908944547,-1.44250065088 -1.3856972754,-1.04238681495 l-3.10682117939,-1.19335494936 -1.81182846427,-0.000267541472567 m-20.9122562408,2.38926768303 l-0.165722928941,-0.000182351632247 1.03412210941,-8.80230254552e-05 l4.10744607449,-0.000119741807794 4.61384296417,0.157024040818 l4.8388838768,0.155508229509 2.51128047705,-0.0131559011061 l1.5746332705,-0.0204085372388 5.98885893822,-5.26322673977e-05 l1.50070279837,-0.0487147644162 5.51831364632,-0.000109844331746 l1.18902504444,-0.0345531408675 3.71521294117,-6.11909035797e-05 l0.487893596292,-0.66557943821 -0.000145205203808,-7.10477471352 l-0.201206877828,-6.58731102943 -0.225856974721,-5.09388804436 l-0.496181584895,-0.54952736944 -6.40054345131,-2.84060593003e-05 l-4.57497417927,-0.180563125759 -8.05693387985,-0.000115798566185 l-3.01458925009,-0.0887102726847 -6.92389845848,-7.50710250941e-05 l-3.36916148663,0.168769098818 -5.24112164974,-7.55051360102e-05 l-0.703355893493,0.346281863749 -1.38863369823,0.967820286751 l-1.105626598,1.73677027225 -0.475239343941,0.842929184437 l7.48763386582e-05,4.61855232716 -0.0522634852678,1.7859749496 l2.11588121601e-05,3.72780025005 2.24139307647e-05,3.98320168257 l0.447753891349,0.96806190908 0.68359054625,0.478407144547 l2.45566174388,-0.000104292112155 3.40991079807,-0.000139638341352 l1.1604911834,-0.0737648131326 1.9057328999,-0.000190591090359 m-5.5152785778,-13.351804018 l-0.122186038643,1.56802013516 0.0865153502673,2.68048167229 l0.77637180686,0.395349934697 2.93543040752,-6.59156785332e-05 l3.06018710136,-0.307826120406 0.485168769956,-0.881740823388 l-5.99701570536e-05,-2.47061684728 -0.351609624922,-0.719293877482 l-1.09399184585,-0.583438277245 -3.28920185566,-0.000192904972209 l-1.49486541748,0.125699331984 -0.939029678702,0.295502431691 m11.8841290474,-0.157635416836 l-8.39781023387e-05,2.85801678896 0.361516103148,1.04832954705 l1.08475744724,0.52240498364 3.46585929394,-6.85736210926e-06 l0.682719796896,-0.446797162294 0.492609217763,-0.908693373203 l2.37448853113e-05,-1.96706309915 -0.797097533941,-0.885875150561 l-0.839385613799,-0.388251282275 -2.78324306011,-0.000171151732502 l-1.20108284056,0.0832354649901 " fill="none" stroke="black" stroke-width="1" /></svg>