<?xml version="1.0" encoding="utf-8"?>
<!DOCTYPE svg PUBLIC "-//W3C//DTD SVG 1.1//EN" "http://www.w3.org/Graphics/SVG/1.1/DTD/svg11.dtd">
<svg viewBox="0 0 800 800" preserveAspectRatio="xMinYMin meet" xmlns="http://www.w3.org/2000/svg" version="1.1">
<g fill="none" stroke="black" stroke-linecap="round" stroke-linejoin="round" stroke-width="2.0929">
<g transform="translate(87.52,142.7057) scale(1.4334) translate(-33,-61)">
<path id="0" d="M192 68 C192 68 183.6605 62.2187 176 61 C163.4664 59.006 157.5902 58.0316 148 61 C141.8267 62.9108 138.2634 67.0974 134 74 C129.0126 82.0749 131.7831 85.6616 127 95 C121.7139 105.3204 118.5565 104.6118 113 115 C107.3777 125.5113 106.2302 126.6465 104 138 C100.9932 153.3072 101.1793 155.1338 102 171 C102.6301 183.1824 106.1529 183.6317 107 196 C108.6045 219.4263 109.6188 221.3037 107 244 C105.3066 258.6762 104.3276 261.0811 98 274 C93.1548 283.8922 91.1314 285.4294 83 293 C77.6648 297.9672 75.7312 299.2691 69 301 C60.089 303.2914 55.1987 302.8638 48 302 C46.4555 301.8147 44.7034 299.7586 44 298 C43.2463 296.1158 44.3153 292.172 44 292 C42.9403 291.422 33.6278 291.3151 33 292 C32.2528 292.8151 32.1143 298.9809 33 304 C33.4081 306.3127 34.1988 307.8345 36 309 C41.1657 312.3425 43.2112 313.9889 50 315 C65.1099 317.2504 67.9393 318.1862 83 316 C96.959 313.9737 101.104 312.5376 112 306 C118.0395 302.3763 119.0129 299.4305 123 292 C129.5914 279.716 129.1672 278.6455 134 265 C137.6172 254.7866 138.3772 254.5481 140 244 C144.2876 216.1309 146 187 146 187 "/>
<path id="1" d="M157 164 C157 164 154.168 170.1297 150 174 C140.8232 182.5214 140.1493 183.6982 129 190 C106.3626 202.7951 81.0269 212.9826 81 213 C80.9937 213.0041 89.0813 213.9729 95 212 C104.2221 208.926 104.2956 205.9813 114 202 C123.4351 198.1292 124.7154 200.1265 134 196 C151.2038 188.3539 168 178 168 178 "/>
<path id="2" d="M144 111 C144 111 138.5925 121.7628 137 132 C135.2698 143.123 137 156 137 156 "/>
<path id="3" d="M158 111 C158 111 154.784 121.406 155 122 C155.0555 122.1526 162 122 162 122 "/>
<path id="4" d="M161 119 L161 117 "/>
<path id="5" d="M184 63 C184 63 189.4003 64.8323 193 68 C201.3168 75.3188 209 85 209 85 "/>
<path id="6" d="M197 99 C197 99 207.1606 91.8609 216 90 C223.9488 88.3266 226.424 88.9688 235 91 C244.3151 93.2062 246.6049 94.3781 254 99 C256.8887 100.8054 258.659 102.931 259 106 C260.715 121.4352 257.5837 125.942 259 144 C259.4962 150.3268 262.5069 150.7534 263 157 C263.9229 168.6907 264.2663 170.9519 262 182 C260.6121 188.766 258.5569 190.8263 255 196 C254.1019 197.3063 251.7935 198.3439 251 198 C242.7695 194.4335 235.5734 191.6257 225 183 C218.0723 177.3485 219.4937 172.7145 213 167 C208.4484 162.9946 202.5269 164.0322 200 161 C197.9485 158.5382 198 149 198 149 "/>
<path id="7" d="M204 83 C204 83 208.6606 82.2982 211 83 C212.3034 83.391 214 86 214 86 "/>
<path id="8" d="M169 175 C169 175 165.3203 174.835 164 176 C158.534 180.823 152.0883 189.7528 152 190 C151.9879 190.0338 155.9736 190.7964 159 190 C164.7569 188.485 171 185 171 185 "/>
<path id="9" d="M228 86 C228 86 253.8232 83.3596 277 86 C291.6749 87.6718 292.8067 89.2265 307 95 C321.8007 101.0206 321.2089 104.9346 336 110 C356.5484 117.0371 360.8208 111.3782 380 120 C412.6401 134.6731 413.5674 139.036 445 159 C449.9304 162.1315 451.1841 162.6002 454 167 C458.3957 173.8683 458.5497 175.3423 461 184 C465.9395 201.453 468.4889 202.4939 469 220 C470.4231 268.7412 469.0464 271.3398 465 321 C463.6195 337.943 460.0302 338.1787 458 355 C456.6017 366.586 458 379 458 379 "/>
<path id="10" d="M191 198 C191 198 187.7644 213.7607 191 225 C196.3291 243.5115 210 264 210 264 "/>
<path id="11" d="M231 227 C231 227 205.6114 261.9416 192 298 C178.2182 334.5097 184.3042 339.1612 174 378 C171.5542 387.2188 168.3349 387.1794 166 396 C164.1123 403.1313 164.0639 408.4427 165 412 C165.2724 413.0351 168.2889 414.8916 171 415 C190.4738 415.779 211.2263 417.019 215 414 C217.4428 412.0458 212.6952 395.1109 216 379 C220.3254 357.9139 221.9409 356.5889 231 336 C243.7412 307.0428 247.5076 307.1079 260 279 C262.9195 272.4311 263 264 263 264 "/>
<path id="12" d="M244 315 C244 315 242.8859 325.881 246 334 C256.0784 360.2757 261.3051 361.6446 272 388 C274.6197 394.4557 274 403 274 403 "/>
<path id="13" d="M220 379 C220 379 224.6708 378.1138 226 379 C228.5108 380.6738 230.3308 382.8269 232 387 C235.9163 396.7907 234.3702 398.8365 238 409 C239.1169 412.1272 240.6116 414.8017 242 415 C250.8207 416.2601 264.6083 414.7867 273 414 C273.3205 413.97 274 412 274 412 "/>
<path id="14" d="M259 285 C259 285 295.1692 281.429 316 285 C321.5027 285.9433 322.0413 292.2861 329 297 C336.9361 302.3761 338.1964 303.9825 347 306 C360.3654 309.0629 362.9669 306.1036 377 308 C380.4331 308.4639 380.677 310.6885 384 311 C395.4095 312.0696 409 311 409 311 "/>
<path id="15" d="M432 245 C432 245 432.8407 251.3254 432 257 C430.9076 264.3734 430.1968 264.5647 428 272 C423.7021 286.5468 424.218 287.0853 419 301 C416.8644 306.6948 413 312 413 312 "/>
<path id="16" d="M412 315 C412 315 415.7683 352.6506 415 383 C414.8741 387.9715 411.1996 388.6017 410 394 C408.3932 401.2307 407.9486 408.7384 409 410 C410.0629 411.2755 417.8648 412.5097 425 412 C430.5282 411.6051 431.1687 408.6138 437 408 C449.2062 406.7151 460.6427 409.4506 463 408 C463.8927 407.4506 464.533 399.008 463 392 C461.3203 384.3213 456 376 456 376 "/>
<path id="17" d="M375 317 C375 317 377.1393 343.7952 372 363 C368.7846 375.0153 361.0768 375.872 356 388 C352.983 395.2074 353.4727 405.7502 354 406 C357.2316 407.5307 389.842 407.8711 394 406 C394.842 405.6211 392.6195 393.0619 394 388 C394.4323 386.4149 398.4086 386.3148 400 384 C403.0237 379.6019 404.3691 377.7832 405 372 C407.1679 352.1275 406.4105 349.523 406 329 C405.9328 325.6384 404 322 404 322 "/>
<path id="18" d="M181 406 L180 413 "/>
<path id="19" d="M181 407 L189 415 "/>
<path id="20" d="M204 412 L202 416 "/>
<path id="21" d="M204 410 C204 410 206.927 410.0246 208 411 C211.3182 414.0165 215 420 215 420 "/>
<path id="22" d="M422 403 L420 414 "/>
<path id="23" d="M422 400 L430 409 "/>
<path id="24" d="M447 396 L443 409 "/>
<path id="25" d="M449 393 L450 407 "/>
</g>
</g>
</svg>
