<?xml version="1.0" encoding="utf-8" ?>
<svg baseProfile="full" height="93.2889963295" version="1.1" width="860.783230597" xmlns="http://www.w3.org/2000/svg" xmlns:ev="http://www.w3.org/2001/xml-events" xmlns:xlink="http://www.w3.org/1999/xlink"><defs /><rect fill="white" height="93.2889963295" width="860.783230597" x="0" y="0" /><path d="M25,29.7199896031 m0.0,0.0 m36.4764380477,-4.68921361867 l-4.87349073092,0.324387773871 -2.17670440674,0.818945070108 l-2.05969492594,0.489759792884 -1.13021115462,0.341123292844 l-4.07026489576,2.69757568836 -1.80764774481,2.33234504859 l-1.27620269855,2.86840498447 -0.740389227867,3.37766448657 l-3.66998278878e-06,4.92517391841 -0.0362800434232,2.04099237919 l-5.7956197755e-05,4.64239994685 0.00674795514594,0.948782861233 l-7.80783739174e-05,3.37122996648 -0.384344408909,3.70140274366 l-0.640029211839,1.72405540943 -0.937067766984,1.35185162226 l-1.17583582799,0.919683078925 -2.2263588508,0.731566995382 l-2.67259001732,-7.94639466524e-05 -1.65935387214,-0.797406931718 l-1.30589147409,-1.02750907342 -1.83032413324,-3.1204255422 l-0.848934849103,-1.49570127328 -0.805409004291,-0.765028844277 l-0.769770840804,-0.0501539837569 -0.763985613982,1.19677682718 l-9.2759673862e-05,2.28927930196 1.0864324371,3.17310929298 l1.30448788404,1.82547887166 1.89316650232,1.52414470911 l2.17798670133,0.990816156069 2.95218984286,0.616458902756 l3.45543066661,-5.02786648819e-05 1.57199462255,-0.559080690145 l1.28844499588,-0.891828636328 1.54103239377,-1.83306674163 l0.717716664076,-1.18533094724 1.06339623531,-3.48080952962 l-0.000112721584931,-3.89715472857 0.501121083895,-2.85358389219 l0.74630583326,-2.46953209241 1.00449115038,-1.83822731177 l1.2978331248,-0.672098000844 2.85442928473,-0.000208975640514 l0.750211278598,0.49842407306 0.565751691659,0.870076616605 l0.418840845426,1.0064620773 -2.38931549272e-05,4.41455165545 l-1.08767906825,3.62391511599 -0.602681090434,3.85460416476 l-1.52045580156e-05,4.69703753789 0.37282894055,0.771474291881 l0.940347313881,0.733765015999 3.38757872581,-8.56950161203e-05 l0.772112607956,-0.565901597341 0.481613079707,-0.941761533419 l6.92528556101e-05,-6.02148373922 0.950279136499,-4.09354607264 l0.764143615961,-0.848593513171 2.78338948886,-0.000103089623735 l7.7010734876,0.23521301647 0.693620741367,0.593924870094 l0.000138705472637,4.75030263265 0.305989608169,4.8146434625 l1.09866102537,2.07918683688 3.96321773529,0.277910033862 l1.24113053083,-0.763133565585 0.445954203606,-0.903793176015 l4.57016327952e-05,-5.80822984378 0.284519518415,-3.52876226107 l0.000119046623392,-3.09546152751 1.00853592157,-2.02262620131 l0.915337105592,-0.881922940413 1.05130106211,-0.786236474911 l1.66393538316,1.97013180999e-05 0.789067596197,0.569839229186 l1.75722102324,3.45757285754 1.5654378136,4.45852716764 l1.13096167644,3.74756773313 1.00789109866,2.44816958904 l1.16694003344,1.42238289118 1.49835805098,0.597402602434 l2.53819584846,-0.000172549249934 0.772622823715,-0.649840633074 l0.448471655448,-0.932735204697 0.00014737482464,-4.1902923584 l-0.982891221841,-4.457107385 -0.764857580264,-4.48041558266 l0.000152406391862,-4.94061072667 -0.54732054472,-4.66495871544 l-0.779778609673,-2.6754407088 -0.976296067238,-1.82635943095 l-1.31873955329,-1.55480096738 -4.16343450546,-2.79242297014 l-3.57716878255,-1.39693061511 -6.99733893077,-1.12311065197 l-6.45968675613,-0.000127661114675 -3.27341477076,0.0150280507902 l-5.53837537766,-6.87363475057e-05 -1.86442335447,0.17056491226 m90.9635674734,-6.47843817588 l-6.09211365382,0.515683790048 -2.38313615322,0.92277854681 l-1.94575667381,0.658291776975 -1.15198125442,0.494497915109 l-3.40595642726,2.73854494095 -1.32473429044,1.86360398928 l-1.03507479032,3.10850600402 -3.54655852182e-05,4.03539101283 l-0.116320078572,1.98979278406 -2.66135248239e-05,4.46492195129 l-0.303368916114,1.92768355211 -0.715821832418,1.65625145038 l-0.996188918749,1.22590214014 -3.24229856332,2.22378472487 l-3.74843478203,1.17934713761 -1.95533315341,0.527334709962 l-2.5145248572,-0.000151156079179 -1.45539532105,-0.175070402523 l-1.15500728289,-0.115866996348 -0.996633867423,-0.0425538606942 l-0.951903859774,0.256827945511 -0.909183124701,0.7620109121 l-0.706498175859,1.10043893258 -8.50061102634e-05,2.16261168321 l0.471825798353,0.738520026207 1.47340804338,0.867553452651 l4.85883593559,0.824134399494 4.2957731088,3.90539935324e-05 l2.18064785004,-0.546761949857 1.71561261018,-0.592147856951 l1.5757577618,-0.81017434597 2.39296774069,-1.66579713424 l1.08956674735,-0.914973914623 0.868784387906,-1.03344192108 l1.75553361575,-2.61169989904 1.46524707476,-1.91679437955 l1.30516827106,-1.06292843819 1.3412947456,0.0527475774288 l0.729249020418,0.671287675699 0.654961168766,1.95665498575 l-6.91014975018e-05,5.1042286555 -0.958687961102,3.92025709152 l-0.000153746974926,4.70207571983 0.299578458071,0.819601068894 l1.29691342513,0.984622438749 0.860264499982,0.321430539091 l3.13460330168,-8.33247455982e-05 0.7362951835,-0.596627940734 l0.416920632124,-0.962622761726 3.85984882693e-05,-5.3525308768 l0.588264664014,-3.90515247981 0.759023427963,-0.866834421953 l2.64541228612,-0.000113328242151 6.26576821009,0.219105929136 l0.668631742398,0.624573926131 0.000107171241931,4.83806967735 l0.488243301709,4.08918023109 0.586751302083,0.823122908672 l1.94479087989,1.04092140992 3.03943296274,-6.06980878122e-05 l0.803485810757,-0.524704853694 0.452710439761,-0.947726170222 l4.07253113129e-05,-3.80431493123 0.00681240965302,-4.12999192874 l0.403039380908,-2.46975700061 1.15539610386,-2.24572360516 l1.33134106795,-1.7394733429 1.65833433469,-2.05648640792 l0.783538321654,-1.10293765863 1.4418549339,-2.70937840144 l1.18168969949,-2.25032170614 1.00335270166,-2.51106719176 l0.830692052841,-4.58310524623 -6.41426413495e-05,-4.14318283399 l-0.840010046959,-2.16337998708 -1.2362514933,-1.65005822976 l-1.56576355298,-1.25409573317 -1.80775821209,-0.88888357083 l-3.52961023649,-0.857075353463 -5.3527200222,-0.000109361765984 l-2.92789936066,0.359481746952 -3.58552058538,-0.000147873773434 l-2.48139103254,0.192645241817 -3.4360297521,-0.000143526255367 l-3.14940094948,-0.000135923631509 -1.73916657766,0.26837259531 m-1.71942234039,8.75573555628 l-6.1310838646e-05,1.59097472827 m82.2033533977,-11.3678963497 l-7.06832091014,0.705921004216 -2.40629553795,0.782805631558 l-1.75645411015,0.970249474049 -2.53288626671,2.02562550704 l-1.8947849671,2.47702916463 -0.999218722184,2.7575747172 l-4.33241499801e-05,4.06594435374 0.0920994207263,0.891895890236 l0.348340173562,3.48691264788 9.54689555025e-05,3.87220899264 l-0.714952896039,3.79753828049 -1.07959965865,2.59888648987 l-1.12102588018,1.38233701388 -1.2861597538,0.831326494614 l-3.48217368126,0.833994150162 -2.66057829062,-0.000164282234133 l-1.10325247049,0.0364621728659 -0.900912582874,0.39516667525 l-0.325292994579,0.903462072213 -0.0001215033141,1.96226775646 l0.49057940642,0.716383655866 1.62543604771,0.842811564604 l2.87017405033,3.79471718285e-05 1.66114886602,-0.33300464352 l1.74511830012,-0.615586936474 1.52968863646,-0.777004410823 l2.41985082626,-1.62325074275 2.03345795472,-1.73167586327 l0.787544846535,-1.18059118589 0.668986092011,-1.2227071325 l0.637288689613,-1.08234852552 1.33654177189,-3.12397201856 l1.1568770806,-2.90446897348 1.03087524573,-1.07256491979 l1.47865275542,-0.855133235455 2.55842606227,-0.000267280095917 l0.725255856911,0.579967896144 0.409751435121,0.933965444565 l1.62435393728e-06,4.4330783685 -1.16917808851,4.06367103259 l-0.000166547288245,5.61417857806 0.355366120736,3.17547261715 l1.16645425558,2.13783065478 1.76851928234,0.712852925062 l3.22477956613,-0.000148865765368 0.77644849817,-0.608174155156 l0.571363816659,-1.92042907079 2.34098858224e-05,-6.99355522792 l0.647787799438,-1.06531381607 1.72337333361,-1.22493644555 l6.07635140419,-0.461864173412 0.704244573911,0.63455765446 l5.82647953706e-05,4.91895357768 0.586907813946,4.27503585815 l0.472024033467,0.905695259571 0.875291228294,0.562224090099 l3.26790332794,-0.000142848572674 0.778330514828,-0.60514335831 l0.887552797794,-4.49055512746 -3.29642807628e-05,-4.30868069331 l0.591065933307,-2.15038696925 3.51762413979,-1.42487585545 l3.14090311527,-2.19968008726e-05 1.00938618183,0.530436436335 l1.07029239337,3.5918144385 0.869225462278,4.15552854538 l0.825081715981,2.94324258963 1.19455397129,1.25472327073 l1.61665797234,-0.284955402215 0.736401776473,-0.722984969616 l0.383338282506,-0.981081227461 0.000121528682939,-5.46810428301 l-0.160798194508,-3.89409224192 -0.36871239543,-3.57781211535 l-0.382033586502,-3.25536072254 6.10644989744e-05,-3.84896198908 l-0.497510631879,-2.55114773909 -0.806737194459,-1.9088135163 l-1.20491872231,-1.62586053212 -1.65800551573,-1.46106948455 l-1.77179594835,-0.945262014866 -6.56782150269,-1.72947784265 l-5.34608562787,-0.000177866507632 -3.62161159515,-0.162437558174 l-6.51570240657,-0.000106392120263 -2.85874962807,-0.216459284226 l-4.1341193517,-4.45423150571e-05 -1.60309165716,-0.395908330878 m78.1224671579,-2.25455751174 l-9.22525246938,0.914133787155 -2.80254681905,1.21698200703 l-1.65543357531,1.10797643661 -1.31147325039,1.4527156949 l-1.92936062813,4.10146594048 -0.00019155855019,4.2634610335 l0.281949241956,1.50584389766 0.811129510403,3.38814775149 l5.90218041907e-05,3.72131347656 -0.550489972035,1.67486508687 l-3.0101476113,4.40372387568 -0.156698351105,0.886288483938 l0.264521886905,0.76485529542 0.778568883737,0.596276919047 l1.98042134444,5.20903957598e-06 0.80755084753,-0.428596436977 l0.796409249306,-1.15244547526 1.28925999006,-3.64169398944 l0.61135545373,-1.53548171123 1.22386882703,-2.05508788427 l0.654377142588,-1.01044605176 1.51934057474,-2.75479098161 l1.45444244146,-1.80165171623 0.912291109562,-0.735879689455 l1.04404995839,-0.46990553538 2.49354243279,-0.000216278397905 l0.769069194794,0.550614098708 0.508075555166,0.912840267022 l-9.35333597833e-06,5.11074900627 -0.923083027204,3.41562509537 l-0.000135343628547,4.75585103035 0.271199171742,0.824056019386 l0.718908756971,0.909038980802 0.83168387413,0.446356584628 l3.18664332231,-9.9501224516e-05 0.731256902218,-0.559246788422 l0.416458596786,-0.953089992205 5.83390374231e-06,-5.42849500974 l0.697403003772,-3.12881449858 0.741124103467,-0.968973636627 l2.07204600175,-0.843644936879 3.71546824773,-0.000156305917092 l7.14290539424,0.0266398241123 0.751691708962,0.51479930679 l0.658778647582,5.29645562172 0.802552998066,4.68663533529 l1.10514263312,1.74770057201 0.828867256641,0.549778441588 l2.59536663691,-7.70644631605e-05 1.18428061406,-0.910877088706 l0.463874091705,-0.919843316078 3.72214071831e-05,-4.30217266083 l-0.0114778421509,-3.85906497637 -0.0288880243897,-3.28824778398 l0.49103418986,-2.45608369509 0.511915038029,-1.21501793464 l1.44835581382,-2.76684443156 0.438535809517,-1.41694009304 l3.71813439415e-05,-3.31443826358 -0.805507351955,-1.98007921378 l-1.16424173117,-1.49221658707 -1.59371217092,-1.27965062857 l-1.92821800709,-0.998869935671 -3.54089856148,-0.952308773994 l-6.18737975756,-0.000169848996544 -3.09254626433,0.139434374869 l-4.27639126778,-0.000179377226838 -2.28719174862,0.183532362183 l-3.21699778239,-9.61254894113e-05 -1.45936439435,0.0441197895755 m28.2933712006,2.92978743712 l2.60326107343,0.352901518345 1.96173012257,1.1164555947 l2.87890175978,3.39633742968 1.79441690445,4.24220403035 l1.41156295935,5.00617623329 8.42261821769e-05,3.99767756462 l0.026333918795,0.79988916715 -0.682397633791,2.47638881207 l-0.549614280462,0.797538657983 -0.982902944088,0.373815745115 l-2.55892296632,-0.00010307328921 -1.4738625288,-1.34038607279 l-1.46051208178,-3.24216425419 -2.34435719904e-05,-3.97748470306 l0.0798562976221,-1.3611950477 -0.185837025444,-2.92497297128 m59.0340614802,-13.7088161155 l-9.69485759735,1.02056364218 -3.03853094578,1.21275087198 l-1.05874886115,0.672300706307 -1.83129489422,1.91122810046 l-1.08976513147,3.1034608682 -0.000138829212422,4.78704770406 l1.25517169635,3.01882386208 1.52601271868,2.48860657215 l0.719529936711,0.595485419035 0.90759118398,0.436035792033 l2.83426006635,-0.000139290411122 1.73665344715,-0.962507327398 l1.28798911969,-1.15297456582 1.38872921467,-1.66059801976 l1.60696536303,-1.60825759172 1.48406426112,-1.16274366776 l1.52140716712,-0.691502839327 1.94071173668,-0.000170902094396 l0.775919010242,0.519018570582 0.621044139067,0.82079042991 l1.56281748787e-05,3.65628520648 0.362473254402,4.17030930519 l-0.000126389762348,4.9270872275 0.224999363224,0.891368687153 l0.644966413577,2.83199032148 1.1809506019,2.41003632545 l0.728342632453,0.70709168911 1.99961324533,0.810142407815 l2.76590704918,-6.8619386487e-05 0.782230248054,-0.527295321226 l0.43645247817,-0.84386130174 -2.89557556243e-05,-3.1052060922 l-0.457086016734,-3.10344854991 2.91003501237e-05,-3.27288826307 l0.408907408516,-2.6331893603 0.594854007165,-0.914871692657 l1.36311312517,-1.65339728196 1.03070745866,-0.689402470986 l2.58498211702,-1.11502276923e-05 1.49301995834,0.707940012217 l2.56909588973,0.51761229833 3.82850249608,-8.7361477199e-05 l1.35058611631,-0.629348258177 0.622239758571,-0.820908248425 l1.08484238386,-1.91647728284 0.695075045029,-2.93069223563 l-2.34229249448e-05,-4.01322921117 -0.723104129235,-2.40010042985 l-0.992280244827,-1.68244520823 -1.48439596097,-1.59318933884 l-3.01060696443,-1.94219052792 -2.35802769661,-0.995896557967 l-2.32816338539,-0.505725195011 -5.60152928034,-8.38839999536e-05 l-2.74379511674,0.350748027364 -2.31677552064,0.547674794992 l-3.60543290774,-0.000132508321258 -1.7052423954,0.00851474702358 l-2.48172601064,-0.000127725361381 m-0.922135015329,11.2528061867 l-8.72694242086e-05,3.20953786373 -0.00860147178173,1.41265114148 l0.0144076067954,2.4568049113 -0.0693823210895,3.30064475536 l-0.368428255121,2.69471724828 -0.636138121287,1.83315654596 l-0.941744844119,1.55470838149 -2.96954035759,2.72129933039 l-3.35740129153,1.67822440465 -4.92844939232,1.17812931538 l-3.68435462316,2.28162480198e-05 -1.64648125569,-0.786508272092 l-2.85012404124,-3.12228500843 -0.733531961838,-1.54335995515 l-0.000229602010222,-2.73844679197 0.625669807196,-1.31746917963 l1.40925506751,-1.43773198128 1.32468322913,-0.719286203384 l1.22772991657,-0.613057563702 2.35381086667,-1.07925434907 l2.3750046889,-1.11941864093 1.17288947105,-1.0563297073 l1.08773003022,-1.11381500959 0.936814347903,-1.12613807122 l1.65921111902,-1.80669307709 1.82297627131,-1.84499482314 m85.3673036744,-13.9221210724 l-7.85150845846,0.975274542967 -3.56130043666,1.35701080163 l-1.61054462194,1.04551156362 -1.16562118133,1.48943940798 l-0.680379271507,6.36720498403 1.18448833625,3.29417924086 l2.0709101359,1.88943604628 0.865548451742,0.488266398509 l2.66087472439,-8.44304304337e-05 1.20968689521,-0.438746511936 l0.975508093834,-0.713682671388 1.00683083137,-0.609190215667 l0.97009152174,-0.572406748931 1.71798586845,-0.00017268221806 l1.23393883308,1.74176951249 0.711738467216,1.26278281212 l1.33536616961,1.27265969912 1.80880029996,0.831003536781 l2.77751684189,0.406480555733 3.44651699066,-0.000116081779803 l1.41534735759,-0.512815713882 0.741228163242,-0.678091247876 l1.10195865234,-1.81020279725 0.571886648734,-1.07516398033 l1.00091089805,-2.18004842599 0.417885184288,-1.18776092927 l7.76270523299e-05,-2.70986616611 -0.0333815906197,-1.01859201988 l-1.65830353896,-4.50061122576 -0.790095279614,-1.09456211329 l-1.29704207182,-1.07665121555 -1.68650984764,-0.777622809013 l-1.1142757535,-0.247843712568 -4.3364584446,-7.51648682732e-05 l-1.66121592124,0.285944491625 -1.05879654487,0.55418441693 m12.0239869754,2.87791311741 l2.94135570526,-0.598860134681 3.97229631742,-0.000277228124711 l5.63868959745,-0.000244004719813 2.20558305581,0.773386359215 l2.43839720885,1.49017751217 1.41242394845,1.20512684186 l1.65342609088,2.26405799389 0.779751141866,1.59032146136 l0.814649214347,2.83071478208 0.349655225873,3.26032161713 l8.67575787803e-06,4.81541752815 -0.528185317914,2.06542372704 l-0.884645581245,1.48652931054 -1.24439358711,1.12669199705 l-1.46921038628,0.650376925866 -4.95930989583,0.625107089678 l-5.8542350928,-0.000187824116438 -2.97710398833,-0.881794492404 l-4.98958587646,-2.55211989085 -3.65357200305,-3.41200550397 l-0.703525046508,-0.640976180633 -0.932105481625,-1.54497613509 l-1.04607966023e-05,-2.11665034294 0.0837821948032,-0.738266011079 m3.00388415655,7.06729809443 l-0.000202787208157,4.52507615089 -0.368049417933,4.27831570307 l-0.000118580137496,2.78090258439 0.414483745893,0.741465091705 l2.43335862954,-4.5476399464e-05 0.602288196484,-0.745255500078 l0.273077438275,-0.98855872949 0.000102981612145,-4.86057917277 l0.0886389613152,-3.60251625379 m11.4365959167,0.867605209351 l-9.76405317488e-05,5.41944861412 0.635599642992,3.32380255063 l1.11008226871,0.738659203053 2.03074336052,-0.000124692087411 l0.560533702374,-0.702534963687 9.98750086486e-05,-3.99376074473 l-0.459165672461,-3.79990537961 m54.9626581359,-22.9115695091 l-7.31540123622,0.945109327634 -3.6976881822,1.43957336744 l-1.05771223704,0.694984694322 -2.17195351919,4.78003899256 l-0.000278510293962,2.56035546462 0.946043233077,1.26854677995 l2.22981154919,1.36025557915 3.04882645607,0.807765026887 l5.64301768939,-0.000147965001815 2.56292621295,-0.346471394102 l1.35716110468,-0.542193601529 1.09373956919,-0.696648557981 l1.43220831951,-1.43712292115 0.920758942763,-1.76875988642 l0.578583379587,-2.39808936914 1.01626172485e-05,-2.26178864638 l-0.753238598506,-1.79498910904 -1.08414093653,-1.2681555748 l-1.24322891235,-0.767110387484 -1.72089099884,-0.000111211314409 m5.40402770042,2.10842827956 l2.63315697511,-0.925210316976 2.28004813194,-0.515709519386 l4.24177606901,-0.00024493339879 1.00443681081,0.22275360922 l2.09467947483,0.97672611475 1.48923526208,1.2543596824 l1.62483245134,2.05166816711 1.17135435343,2.45739777883 l0.652834177017,2.83705393473 1.01048400817e-05,3.58803510666 l-0.567529102166,1.60893946886 -1.01367930571,1.18167579174 l-1.43440008163,0.955160260201 -2.88023928801,0.948781569799 l-3.61376643181,-0.000223860382296 -2.0078877608,-0.462693770727 l-1.01882139842,-0.502465565999 -1.88323279222,-1.49535288413 l-1.82015697161,-2.18485077222 -1.0736823082,-2.54848460356 l9.22861909203e-05,-2.01284945011 0.139272039135,-0.560985207558 m17.3887840907,-2.06553717454 l3.08661460876,-0.611702700456 3.9693681399,-0.000292362698625 l0.909936328729,0.358328918616 1.4522571365,1.25605106354 l1.22682015101,2.09443410238 0.713078727325,2.58109807968 l7.57916798951e-05,4.11449710528 -1.38393710057,1.6338789463 l-1.40122711658,0.605435073376 -2.91890164216,-0.000124221332953 l-1.80466433366,-0.90977281332 -1.9054834048,-1.81407690048 l-1.32746756077,-2.16355204582 2.99320769651e-05,-1.30183806022 l0.266113529603,-0.490762193998 m-23.3216842016,1.50996208191 l-0.000275278677388,3.42471122742 -0.475308597088,3.75092546145 l-7.02224618484e-05,3.33645820618 0.980120201906,1.50528778632 l1.04777773221,0.405756359299 2.25278278192,-8.39196824624e-05 l0.598515371482,-0.761472334464 2.77967804626e-05,-4.75456992785 l0.137058670322,-4.13074851036 m12.8723716736,0.497609823942 l0.480547895034,6.03965322177 0.659176359574,3.28446288904 l2.64378150304,0.0270596829553 1.25336309274,-0.506516396999 l0.44939989845,-0.795149356127 4.34330619707e-05,-3.60242446264 l-1.04213734468,-3.23317468166 -0.355139374733,-2.02227334181 m58.8808153972,-14.3974350982 l-6.13386948903,0.833314855893 -3.61969470978,1.28592203061 l-1.44967089097,1.10019057989 -0.732429524263,1.48867328962 l-9.52975218145e-05,4.02921835581 3.30923159917,2.64981150627 l2.8878368934,0.957267085711 4.15672739347,-5.35695653525e-05 l1.91812793414,-0.523286263148 0.81415394942,-0.503976196051 l0.90970804294,-0.797368536393 1.23828709126,-1.77470644315 l0.524535228809,-0.939053297043 8.14659567065e-05,-2.0563652118 l-0.496831536293,-1.7594786485 -0.881972809633,-1.314278543 l-1.05307956537,-0.819655011098 -1.07680807511,-0.820912321409 m5.51770488421,0.707809627056 l1.98308825493,-0.692218542099 2.20199306806,-0.495008975267 l5.79792777697,-0.00012831655719 2.25638906161,0.495621462663 l1.93495253722,0.90084562699 3.18826377392,2.36756543318 l1.79937859376,2.13876922925 1.2225535512,2.27547367414 l0.776476214329,2.60504186153 -7.3960715478e-05,2.54711170991 l-0.63188051184,1.37006521225 -1.10855271419,1.15535835425 l-2.57467885812,1.45541369915 -3.50297689438,0.966596702735 l-4.03444925944,0.340397655964 -5.35801887512,-0.000149068085496 l-2.2182393074,-0.449484388034 -2.87396728992,-1.07095728318 l-1.49486283461,-1.02509379387 -1.06079697609,-1.29331121842 l-0.712770769993,-1.97287758191 0.000104514438135,-2.23916212718 l0.379710644484,-0.776939640443 1.23701403538,-1.47743761539 m23.6973746618,-1.30701114734 l1.79127713044,-0.660552382469 1.5306164821,-0.701403568188 l2.25015938282,-0.910599033038 0.902470052242,-0.778977175554 l0.4559263587,-0.76213101546 -8.7125211697e-06,-1.32136931022 l-0.794603725274,-0.84103991588 -0.807765473922,0.241981918613 l-0.363863185048,1.26164376736 3.18994504293e-05,1.35741770267 l0.513672282298,0.819715907176 1.45762701829,0.702691525221 l2.33325382074,-7.29147965709e-05 1.11076106628,-0.948823094368 l0.768055816491,-1.0940087835 0.72983811299,-1.90994183222 l-3.90957150861e-05,-1.37961347898 m-37.041053772,11.4463273684 l-0.000394217616607,2.32828259468 -0.244850342472,2.99843788147 l0.0931015548607,2.06663091977 0.689420551062,1.60967200994 l1.01268212001,0.446377893289 2.43184785048,-9.00108413286e-05 l0.642443795999,-0.524955540895 0.47152236104,-4.12063598633 l-0.000162729047588,-2.94751783212 m11.2316727638,0.739146322012 l-9.7044139693e-05,2.7927116553 0.752580215534,3.23822577794 l1.40391796827,1.22256894906 3.02163640658,-0.126756690443 l0.561257600784,-0.691255778074 4.56032375951e-05,-3.66669376691 l-0.337538744013,-3.02590489388 m-28.33832105,-8.65321238836 l-0.0677849724889,0.000495893958335 m88.3322554714,-0.274713265547 l-4.69210743904,0.67417944471 -3.66839289665,1.29039744536 l-1.45842850208,1.14240934451 -0.498539706071,1.35294685761 l1.92775090535,3.81063024203 4.36424334844,2.25629190604 l2.49348481496,0.57962551713 4.37645077705,-0.000225734499206 l1.96899910768,-0.569893072049 1.43250644207,-0.740362604459 l1.64871841669,-1.3545798262 0.611914594968,-1.22426003218 l6.09412806322e-05,-2.15991199017 -0.980963309606,-1.64465844631 l-1.80545767148,-1.70823256175 -1.55823330084,-0.823351889849 l-1.42324099938,-0.335519860188 -2.01879024506,-0.000180123158013 m9.53944603602,1.46529297034 l1.067836682,-0.936949253082 2.59636898836,-1.53939386209 l3.08144629002,-1.08639250199 3.34799448649,-0.592785924673 l4.11943634351,-0.000128544561449 1.95260703564,0.660267472267 l2.33445882797,1.50597929955 1.74409051736,1.8542377154 l0.936548213164,1.45947357019 0.999783178171,2.47592747211 l0.375399490197,1.7500736316 -6.02029892131e-05,2.51135230064 l-0.664901634057,1.47139082352 -1.21550182501,1.26532832781 l-1.62937641144,1.01419389248 -3.10012757778,1.04951510827 l-4.36081806819,0.636214663585 -4.02189175288,-0.000221795611045 l-2.21919178963,-0.462689548731 -1.14563852549,-0.484944581985 l-2.14091142019,-1.40837629636 -1.98494275411,-1.98481837908 l-0.983755091826,-1.61179463069 4.65734350049e-06,-1.29365692536 l0.205291546881,-0.561148375273 m22.9263051351,-4.02126431465 l1.84918820858,-0.548558135827 1.29884938399,-0.692731340726 l0.708766827981,-0.844712853432 0.590979804595,-1.50985866785 l-6.81680042665e-05,-1.72227124373 -0.685442735751,-0.728873858849 l-0.983775357405,-0.000124703377272 -0.396343345443,0.910667081674 l3.72229237655e-06,1.21272494396 0.999995668729,0.682533532381 l1.6846827666,-7.2525805687e-05 0.821251918872,-0.433330535889 l1.11934194962,-1.3358626763 0.602911561728,-1.28213663896 l4.76014065498e-05,-1.71440720558 m-33.9859104156,14.7190745672 l-0.000374470546376,2.98230191072 m4.7230843703,-1.47058536609 l-0.000267139306137,3.23304831982 m-4.71944570541,-7.45817979177 l0.0379994511604,0.862100621065 m13.2899506887,1.07343196869 l-3.9420556277e-05,2.25784182549 -0.0668964534998,1.25613500675 m-9.62763706843,-6.17924014727 l0.497935662667,1.30940486987 0.307046274344,1.94688181082 l0.342836081982,1.44132028023 m74.2674518571,-8.78722322139 l-3.32442462444,0.495248585939 -3.45459222794,1.0877212882 l-1.23055626949,1.11507227023 0.391281371315,3.65027109782 l1.59663210313,1.32885297139 3.08969716231,1.12260748943 l7.23590056101,0.620610713959 2.42580413818,-0.418355365594 l1.4575885733,-0.756072252989 1.69485767682,-1.46681547165 l0.429880321026,-0.780194650094 3.67370891278e-05,-1.6327025493 l-0.516230016947,-0.876497526964 -1.50005410115,-1.38293484847 l-1.65068010489,-0.813693304857 -2.73745536804,-0.737384408712 l-2.69616882006,-0.0002121032594 m-4.24769639969,3.35118969282 l-0.000128970229222,0.927182038625 0.445641030868,1.08816613754 l0.812938561042,0.338611279925 0.539746880531,-0.609146008889 l2.25544802864e-05,-1.27249320348 -0.593138883511,-0.492301235596 m5.07165471713,0.651435951392 l-0.127657105525,1.46071642637 1.03780974944,0.33156854411 l0.567521800598,-0.650845468044 2.77844022397e-05,-1.24245027701 l-0.541630238295,-0.51227470239 m-10.2598412832,-7.03078428904 l0.815481146177,-0.772340198358 1.27057711283,-0.985994239648 l3.21024874846,-2.17735290527 2.96123921871,-1.29942874114 l3.12642892202,-0.744892805815 4.50207153956,-8.16247241649e-05 l1.88147544861,0.472762435675 1.47832165162,0.680751403173 l2.03263223171,1.44246429205 1.21979971727,1.24497205019 l1.38766119877,2.19699541728 0.647114266952,1.6215194265 l0.538155039152,2.76968459288 -4.04964672877e-05,2.94010877609 l-0.614238977432,1.71018024286 -1.02478583654,1.43568505843 l-2.11580336094,1.72198573748 -2.8774023056,1.19318942229 l-3.66693218549,0.578308999538 -2.6262875398,-0.000241029119934 l-1.02039963007,-0.26517448326 -2.3745038112,-1.50927821795 m-0.977457662423,-15.1225741704 l5.00024846891e-05,-0.204120675723 m8.40588092804,0.11200307558 l0.00328454848689,-0.000185827241997 m2.07521736622,2.12408264478 l-9.9304682711e-05,-0.470750778913 1.1827625831,-1.0807788372 l3.47935080528,-2.01433440049 3.00591766834,-0.979990760485 l2.18131085237,-0.465035984914 4.55209930738,-0.000137562613721 l1.85345808665,0.548316488663 2.802434961,1.475439171 l2.0906428496,1.79247895877 1.62505129973,2.08709220092 l0.884843369325,1.68276528517 0.77126160264,2.51706798871 l0.268795316418,2.97939538956 -0.000120803257839,3.36005806923 l-0.650669882695,1.8085316817 -1.14431877931,1.61566664775 l-1.56914363305,1.23143742482 -3.06435982386,1.30295594533 l-3.79173080126,0.744133939346 -5.08405208588,-0.00012838695208 l-2.38885819912,-0.53295681874 -3.31073681513,-1.29631807407 l-1.7987549305,-1.57712767522 -0.502281089624,-0.789279639721 " fill="none" stroke="black" stroke-width="1" /></svg>