<?xml version="1.0" encoding="utf-8" ?>
<svg baseProfile="full" height="345.5" version="1.1" width="1241.15" xmlns="http://www.w3.org/2000/svg" xmlns:ev="http://www.w3.org/2001/xml-events" xmlns:xlink="http://www.w3.org/1999/xlink"><defs /><rect fill="white" height="345.5" width="1241.15" x="0" y="0" /><path d="M25,25 m0.0,0.0 m23.45,32.45 l0.0,0.0 0.3,11.0 m0.0,-11.4 l13.5,0.0 m-14.5,-15.5 l2.0,3.4 0.6,0.0 l0.0,0.6 4.5,4.8 l2.0,1.0 3.8,4.5 m64.15,-12.5 l0.0,0.0 -8.6,0.6 l0.0,0.6 -11.0,0.3 l0.3,21.8 m66.0,-26.85 l0.0,0.0 -0.5,0.0 l-3.2,3.2 -2.7,4.8 l-0.5,5.4 1.6,0.5 l1.6,1.6 1.0,0.0 l0.5,1.0 2.7,1.6 l0.5,4.3 -0.5,1.6 l-1.0,0.0 -0.5,1.0 l-1.0,0.0 -6.5,3.8 l-1.0,1.6 0.0,-0.5 m23.9,-10.3 l2.1,5.9 0.0,3.8 m37.7,-30.6 l0.0,0.0 1.2,-0.6 l4.2,0.0 1.8,1.2 l0.0,0.6 2.4,0.6 l0.6,1.8 1.8,0.6 l1.2,2.4 1.2,0.0 l0.0,1.2 0.6,0.0 l0.0,1.2 0.6,0.0 l0.0,1.8 1.2,0.0 l0.0,2.4 0.6,0.6 l0.0,12.6 -1.2,0.6 l0.0,1.2 -2.4,0.6 l-1.2,2.4 -1.8,0.0 l0.0,0.6 -1.8,1.2 l-8.4,0.6 m1.8,-15.0 l0.0,-0.6 1.8,0.0 l0.0,-0.6 14.4,0.0 m45.9,-7.45 l0.0,0.0 -0.2,6.1 m0.4,-7.1 l11.8,0.0 m-4.9,0.9 l0.0,12.3 -2.6,1.9 l-6.4,-0.2 -0.9,-0.7 l-1.4,-2.1 0.0,-2.8 l0.7,-1.9 17.3,-0.2 m-0.2,-3.3 l0.0,9.5 -2.6,0.2 l-0.2,-5.7 m47.1,-10.85 l0.0,0.0 9.6,0.0 l0.0,0.6 1.2,0.6 l0.0,9.0 -1.8,3.0 l-0.6,0.0 0.0,4.2 l1.2,0.6 1.2,2.4 l2.4,0.0 0.6,0.6 m35.4,-27.9 l0.0,0.0 0.6,0.0 l0.0,0.6 7.8,0.0 l3.0,1.2 3.6,0.0 l1.2,0.6 15.6,-0.6 m-1.8,0.6 l0.0,14.4 m-30.6,0.6 l31.8,0.6 m-31.8,0.6 l0.6,0.0 -0.6,0.0 l0.0,9.0 -1.2,3.0 m-1.2,0.0 l-0.6,0.0 0.6,0.0 l0.6,1.2 3.0,0.6 l7.8,0.0 6.6,1.8 l6.6,0.0 2.4,-1.2 l6.6,0.0 0.6,0.6 l3.0,0.0 1.8,1.2 l2.4,0.0 0.6,-0.6 m50.1,-31.55 l0.0,0.0 0.4,0.0 l2.2,2.7 0.0,3.6 l-1.3,0.9 -26.7,-0.9 m21.7,1.8 l0.4,0.9 1.8,0.9 l2.2,4.9 0.0,7.2 l-1.8,2.2 -0.9,0.0 l-1.8,2.2 -3.1,2.2 l-3.1,0.9 -6.8,0.0 l-1.8,-1.3 -4.0,-5.9 l0.0,-1.3 -0.9,-1.3 l0.0,-3.6 0.4,0.0 l0.4,-2.2 4.9,-4.9 l0.9,-1.8 3.6,-0.4 m70.85,-12.35 l0.0,0.0 -1.1,0.0 l-0.5,0.5 0.0,5.7 l0.5,1.1 1.7,1.1 l2.8,0.0 0.5,-1.7 l0.5,0.0 0.0,-4.0 l-1.7,-2.8 -2.8,-2.3 m-26.6,38.2 l-1.1,1.1 0.0,4.6 l0.5,0.5 8.1,0.5 l0.0,-1.7 -2.8,-3.4 l-2.8,-0.5 -1.7,-1.7 m27.2,2.8 l-1.1,0.5 0.0,3.4 l1.7,1.1 7.5,0.0 l1.1,-1.1 0.0,-2.3 l-0.5,-1.1 -4.0,-2.8 l-1.1,0.0 -2.3,-1.7 l-1.7,0.0 m4.6,-22.6 l0.0,23.1 m-26.0,-1.7 l0.0,-0.5 2.3,0.0 l4.0,-1.7 0.0,-0.5 l1.1,0.0 4.6,-3.4 l2.3,0.0 4.0,-1.7 l1.1,-1.1 1.1,0.0 l0.0,-0.5 4.0,-2.3 l0.5,-1.1 m47.75,-13.5 l0.0,0.0 -0.6,0.0 l-1.2,1.8 -6.0,3.6 l-1.8,2.4 -0.6,0.0 l0.0,1.2 -1.2,0.0 l-0.6,2.4 3.0,6.0 l1.2,1.8 1.2,0.6 l0.6,1.8 9.0,6.6 m-4.2,-29.4 l8.4,11.4 1.8,0.6 l0.0,1.8 1.2,0.6 l3.0,4.2 0.6,2.4 l-0.6,0.0 0.0,1.2 l-0.6,0.0 -2.4,3.0 l-3.6,2.4 -0.6,1.8 l-3.6,0.6 m-17.4,-18.0 l33.6,0.0 m0.0,0.0 l0.6,4.2 m-39.6,-4.8 l0.0,3.6 m69.6,-11.4 l0.0,0.0 9.6,0.0 l0.0,-0.6 0.6,0.0 l-0.6,0.0 m-6.6,1.2 l-0.6,3.6 -0.6,0.0 l0.0,2.4 -0.6,0.0 l-1.2,3.6 1.8,0.6 l0.0,0.6 1.2,0.0 l0.6,1.2 1.8,0.0 l2.4,3.0 4.8,3.6 l1.2,0.0 0.6,1.2 l3.6,1.2 0.0,0.6 l1.8,1.2 -1.2,0.0 l-0.6,-7.2 -0.6,0.0 l0.0,-6.0 0.6,0.0 l0.0,-1.8 -0.6,-0.6 l0.0,-0.6 0.6,0.0 l-0.6,0.0 0.0,-1.2 l0.6,0.0 0.0,-1.8 l0.6,0.0 0.6,-3.0 l0.6,0.0 0.6,-1.2 m-3.0,4.8 l-3.0,1.8 0.0,0.6 l-1.8,1.2 0.0,1.2 l-2.4,1.2 0.0,1.2 l-1.2,0.6 -0.6,1.8 l-0.6,-0.6 0.0,0.6 l0.0,-0.6 0.0,0.6 l-0.6,0.0 m51.9,-12.3 l0.0,0.0 0.6,0.6 l1.2,0.0 6.0,6.6 l1.2,0.0 0.0,1.2 l4.8,4.2 1.2,1.8 l0.0,1.2 0.6,0.0 l6.6,7.2 m-15.0,-16.2 l-1.8,0.0 -0.6,1.2 l-1.2,0.0 0.0,1.2 l-1.2,0.0 0.0,5.4 l1.2,1.8 0.0,2.4 l1.2,2.4 0.6,0.0 l0.0,4.2 -1.2,0.6 l0.0,0.6 0.6,0.0 l-1.2,0.0 0.0,0.6 l-3.6,0.6 m16.2,-16.2 l0.0,-7.2 1.2,-0.6 l0.0,-2.4 1.2,-0.6 l0.0,-1.2 m-3.6,-3.6 l7.2,0.0 0.0,1.2 l-1.2,0.0 0.0,0.6 l-2.4,1.2 0.0,0.6 l-1.8,0.0 -2.4,-3.0 l-1.2,-0.6 0.0,-4.2 l0.6,-0.6 m49.5,15.0 l0.0,0.0 -3.0,0.6 l0.0,0.6 -3.6,1.2 l0.0,3.0 1.2,3.6 l4.8,4.2 4.2,0.6 l0.0,0.6 4.2,0.0 l0.0,-1.2 1.2,0.0 l0.6,-3.0 0.6,-1.2 l0.6,0.0 0.6,-9.0 l-1.2,0.0 0.0,4.2 l1.2,2.4 0.0,11.4 l0.6,1.2 m-16.8,-18.6 l-1.2,0.0 0.0,-1.8 l-1.2,0.0 0.0,-2.4 l-1.2,-0.6 0.0,-6.6 l0.6,-2.4 0.6,0.0 l0.0,-1.2 0.6,0.0 l1.8,-3.0 1.2,0.0 l0.6,-1.2 2.4,0.0 l0.6,-1.2 2.4,0.0 l0.6,-1.2 12.6,0.0 l2.4,0.6 4.2,3.0 l3.0,3.6 0.6,1.2 l0.0,7.8 -1.2,0.6 l0.0,0.6 -1.2,0.0 l0.0,0.6 -3.6,1.2 l0.0,0.6 -1.8,0.0 l0.0,0.6 m-20.4,1.8 l0.6,-2.4 0.6,0.0 l0.0,-1.2 0.6,0.0 l0.0,-1.2 3.6,0.0 m-4.8,16.2 l-1.2,1.8 -3.0,0.6 l0.0,1.2 -1.2,0.6 l0.0,0.6 m1.2,-1.2 l0.0,0.6 -1.8,0.0 l0.0,0.6 -1.2,0.0 l0.0,0.6 -1.2,0.0 l0.0,0.6 m1.2,0.0 l4.2,0.0 1.8,0.6 l0.0,0.6 2.4,0.0 l0.0,0.6 1.2,0.0 l1.8,1.2 5.4,1.2 l0.6,1.2 3.0,0.6 l0.0,0.6 1.8,0.0 l0.0,0.6 1.2,0.0 l0.0,0.6 3.0,1.2 m42.5,-36.35 l0.0,0.0 0.0,10.8 l-0.8,1.7 0.0,3.4 l-0.8,1.7 0.0,4.7 l-1.3,3.9 m4.3,-26.5 l19.5,0.0 2.1,2.1 l0.0,4.7 -1.7,1.7 l-2.6,1.3 -4.7,0.0 l-5.2,-3.4 -0.8,-1.3 l0.0,-6.9 m-8.7,15.2 l-6.5,0.0 m61.75,-9.1 l0.0,0.0 0.0,0.4 l3.1,0.4 17.2,-0.4 l2.7,-1.3 2.2,-2.7 l0.0,-3.6 -0.9,-1.8 l-2.2,-1.3 m-11.3,17.2 l0.4,0.0 0.0,4.0 l-1.8,0.0 0.0,-3.6 m-5.9,-0.4 l-3.1,0.0 -0.9,1.8 l0.0,1.8 -0.4,0.0 l0.0,4.5 0.4,1.3 l2.2,2.2 6.3,0.0 l2.7,-3.1 1.3,3.1 l1.3,0.9 7.2,0.4 l2.2,-4.5 0.0,-4.5 l-0.9,-0.4 -0.4,-2.2 l-1.3,-1.8 0.4,-1.3 l3.1,1.8 4.0,0.0 l0.0,-3.6 m-18.1,19.5 l-0.9,1.8 0.0,1.8 m57.35,-26.4 l0.0,0.0 1.9,0.0 l6.4,6.4 0.0,11.8 l-1.9,0.0 0.0,-0.4 l-3.4,-0.9 -0.9,-1.4 l-1.4,0.0 -1.9,-1.4 l0.0,-1.4 1.4,-1.4 l0.0,-0.9 0.9,-0.9 l0.9,0.0 2.9,-2.9 l0.0,-0.9 2.4,-1.9 l0.4,-2.4 2.4,-2.4 l0.0,-1.4 1.9,-2.9 l0.0,-3.4 0.9,0.0 l0.9,14.3 0.9,1.4 l0.4,3.9 0.9,1.9 l0.0,7.9 -0.9,0.0 l-0.9,0.9 -0.4,1.4 l-0.9,0.4 0.0,1.4 l-0.9,0.0 m50.0,-26.95 l0.0,0.0 0.6,4.8 l0.6,0.0 0.6,3.0 l0.6,0.0 0.6,1.8 l0.0,7.8 -2.4,3.0 l-3.6,1.2 m12.6,-24.0 l0.0,1.2 0.6,1.2 l0.6,0.0 0.0,1.2 l0.6,0.0 1.2,3.6 l0.6,0.0 0.0,2.4 l0.6,0.6 0.0,11.4 l-1.8,1.8 -3.6,0.6 l-0.6,1.2 m38.25,-25.5 l0.0,0.0 38.7,0.5 m-8.3,0.0 l0.0,24.6 m0.5,-11.0 l-4.1,3.1 -2.0,0.0 l-1.0,1.0 -3.6,1.0 m5.2,-3.1 l-7.3,-7.3 -5.2,0.0 l-3.6,1.5 -1.5,1.5 l-0.5,1.0 0.0,8.9 l4.1,3.6 4.7,0.5 m50.35,-30.3 l0.0,0.0 0.0,9.6 l0.6,0.6 0.0,3.0 l1.2,2.4 0.6,0.0 l1.8,2.4 8.4,0.0 l3.0,-2.4 0.0,-1.2 l1.2,-1.2 0.0,-1.8 l0.6,0.0 0.0,-9.0 m0.0,0.0 l8.4,0.0 m-1.2,0.0 l0.6,0.0 0.0,7.8 l0.6,0.6 0.0,24.0 m65.7,-29.8 l0.0,0.0 -15.6,5.9 l-13.4,2.6 -3.3,0.0 l-4.4,1.4 -0.3,14.9 l-0.7,0.0 15.2,-1.4 l16.3,0.3 6.7,1.1 m-20.4,-23.8 l-0.3,12.6 1.1,8.9 l-1.1,-0.3 m-1154.0,33.35 l0.0,0.0 5.5,-0.5 l25.7,0.0 m-30.7,-0.5 l2.5,8.5 0.5,15.1 l1.5,7.5 m12.1,-31.8 l0.0,5.0 1.5,4.5 l1.0,8.5 1.5,3.5 l1.5,15.6 m-17.6,-22.2 l4.0,0.0 3.0,-1.0 l15.6,0.0 0.0,-0.5 l2.0,0.0 m-25.7,12.1 l1.0,2.0 0.5,7.0 m61.8,-0.05 l0.0,0.0 0.0,-0.6 l2.4,-0.6 0.0,3.0 l-1.8,0.6 -1.8,-2.4 l-0.6,-1.2 0.0,-6.6 l1.8,-2.4 3.0,-2.4 l0.0,-1.2 4.2,-3.0 l0.0,-0.6 4.8,-3.6 l0.6,-1.2 m-15.0,9.6 l-1.2,0.0 -2.4,-3.6 l0.0,-15.6 2.4,-3.0 l7.8,-3.6 12.6,0.0 l0.0,0.6 1.8,1.2 l1.2,2.4 0.0,2.4 l1.2,1.8 m1.8,-8.4 l0.0,45.0 m33.1,-28.05 l0.0,0.0 0.0,5.6 l-0.5,1.1 0.0,3.9 l0.5,0.5 6.7,0.0 l1.6,-1.6 0.0,-1.1 l2.8,-2.8 0.5,-1.6 l-0.5,0.0 0.0,4.4 l1.1,0.0 0.5,1.1 l2.8,1.1 5.0,0.0 l3.9,-3.9 1.1,-2.2 l0.0,-4.4 -2.2,0.0 l-0.5,2.2 -1.1,0.0 l0.0,3.9 -1.1,0.0 l0.0,0.5 m54.55,-18.1 l0.0,0.0 -0.5,0.0 l-9.7,6.8 -4.5,0.5 m-6.3,11.4 l8.6,0.0 24.7,-5.7 l3.4,0.0 m-20.1,-8.0 l0.0,9.1 -1.1,2.2 l-1.1,5.1 -3.4,5.7 l-6.8,6.8 m59.4,-7.25 l0.0,0.0 -0.3,-5.8 l1.5,-2.3 1.1,-0.3 l0.0,-0.7 1.5,0.0 l0.7,-0.7 1.9,0.0 l2.7,2.3 0.0,4.6 l-0.7,0.0 -0.7,2.3 l22.1,-0.3 0.0,-17.8 l0.0,4.2 -2.7,2.7 l-4.2,1.1 -5.4,0.0 l-5.4,-3.4 -0.3,-3.8 l1.9,-1.5 3.1,0.0 l2.3,2.3 0.0,1.5 l1.9,4.6 0.0,9.7 m39.35,4.25 l0.0,0.0 4.0,0.0 l5.2,-1.7 3.4,-2.3 l1.1,-2.3 0.0,-6.9 l-3.4,-5.2 -1.1,0.0 l-0.5,-1.1 -2.8,-1.1 l-0.5,-1.7 -0.5,0.0 l0.0,-2.8 1.1,-1.7 l0.0,-1.1 m-14.4,0.5 l12.7,0.0 19.7,-2.3 m-9.8,17.9 l3.4,0.0 5.2,5.7 l1.1,1.7 0.0,1.1 l1.1,1.1 0.0,5.2 l0.5,1.7 m-4.6,-34.2 l0.5,0.0 0.5,2.3 l1.1,1.1 1.7,6.9 l0.0,22.0 m-5.2,-29.5 l1.1,-1.1 4.6,-0.5 l5.7,-1.7 6.3,0.0 m36.3,-6.95 l0.0,0.0 1.8,0.0 l1.2,1.8 0.0,1.2 l2.4,1.2 0.0,0.6 l2.4,1.2 0.0,0.6 l8.4,0.6 0.0,-0.6 l4.2,0.0 0.0,-0.6 l0.6,0.0 0.0,8.4 l-1.2,0.6 0.0,32.4 m-1.2,-21.0 l-7.8,0.0 m-1.2,-10.2 l0.0,32.4 -3.0,-0.6 l-1.8,-2.4 -6.0,-4.8 l-0.6,-1.8 -1.2,0.0 l-1.2,-1.8 -1.8,-1.2 l-1.8,-3.0 -1.2,0.0 l-1.2,-3.0 -3.0,-1.8 l0.0,-1.2 -2.4,-1.8 l-1.8,-3.6 -1.8,-1.2 l0.0,-2.4 m28.8,-3.0 l-10.8,0.0 -0.6,1.8 l-1.8,0.6 0.0,7.2 l1.8,0.6 0.0,0.6 l1.8,0.0 0.0,-1.2 l0.6,0.0 0.0,-3.0 l-1.8,-0.6 m46.35,-12.8 l0.0,0.0 -0.5,0.0 l0.0,31.0 1.7,1.1 m21.0,-28.6 l0.0,20.4 -1.1,1.1 l0.0,2.3 -0.5,0.0 l-0.5,1.7 -1.1,0.0 l0.0,1.7 -2.3,0.5 l0.0,0.5 -1.7,0.0 l0.0,0.5 -1.7,0.0 l0.0,-1.1 -1.7,-1.7 l0.0,-2.3 -0.5,0.0 l0.0,-5.8 0.5,0.0 l0.0,-1.1 2.3,0.0 l0.5,-1.1 4.6,0.0 l1.7,1.7 1.1,0.0 l0.0,1.1 1.7,1.7 l0.0,1.7 1.1,2.9 l1.1,0.5 1.7,2.9 l1.7,0.0 m-15.2,-22.8 l18.1,0.0 m51.15,-11.55 l0.0,0.0 -1.7,2.3 l-0.5,1.7 -1.7,1.1 l-0.5,2.3 -3.5,2.9 l0.0,1.1 -1.7,1.7 l0.0,1.1 -1.1,0.0 l-2.9,2.9 -0.5,1.7 l-1.7,0.5 0.0,0.5 l3.5,3.5 0.5,1.7 l12.8,12.2 -0.5,0.5 m45.85,-34.8 l0.0,0.0 0.4,0.0 l0.4,0.9 1.8,0.4 l0.0,0.9 1.3,0.9 l0.0,1.3 0.4,0.0 l0.0,3.1 -1.3,1.8 l-4.5,1.3 -10.4,0.0 l-4.9,0.9 m16.3,-0.9 l-9.5,-0.4 -1.3,0.9 l-2.7,7.2 0.0,3.6 l2.7,3.6 5.4,1.3 l3.6,0.0 3.1,-2.7 l1.8,-3.6 0.0,-4.0 l-0.9,-1.3 -1.3,-5.4 l0.4,5.4 3.6,8.6 l2.7,1.3 7.2,0.0 l2.2,-2.2 1.3,-4.0 l0.0,-6.3 -0.9,-1.3 l0.0,-1.3 -2.2,-2.2 m3.6,14.5 l0.4,1.3 1.3,0.9 l4.9,0.0 1.3,-0.9 l2.2,-4.9 0.9,-2.7 l0.0,-4.0 -4.0,-6.8 m-6.3,24.0 l0.0,2.7 m37.05,-22.25 l0.0,0.0 0.0,18.0 m4.2,-24.6 l1.2,0.0 0.0,0.6 l3.0,1.8 0.0,0.6 l1.8,0.0 0.6,1.2 l1.2,0.0 0.6,1.8 l1.8,0.0 1.2,1.8 l1.2,0.0 0.6,1.2 l1.8,1.2 1.2,0.0 m-13.8,15.6 l0.6,0.0 0.6,-1.8 l2.4,-0.6 0.6,-1.2 l3.0,-0.6 0.0,-0.6 l0.6,0.0 0.0,-1.8 l5.4,-1.8 m38.5,-19.45 l0.0,0.0 2.7,1.6 l0.0,2.1 1.0,3.2 l0.0,12.4 -0.5,2.7 l-0.5,0.0 0.0,1.0 l-1.0,1.0 -2.7,0.0 l-0.5,-0.5 0.0,-2.7 l0.5,-0.5 6.5,-2.7 l13.0,0.0 0.5,-11.9 l0.0,21.6 0.5,2.1 l2.1,0.5 2.7,-1.6 l1.0,0.0 0.0,-0.5 m43.3,-28.15 l0.0,0.0 1.8,-2.4 l1.2,0.0 0.6,-1.8 l5.4,0.0 0.0,0.6 l1.2,0.6 1.2,3.0 l0.6,0.0 1.2,3.0 l0.0,8.4 -1.2,0.6 l-0.6,1.2 -1.2,0.0 l0.0,0.6 -1.2,0.0 l-1.2,0.6 0.0,0.6 l-2.4,0.0 m0.6,0.0 l1.8,0.0 0.0,0.6 l3.0,2.4 0.0,1.2 l0.6,0.0 0.6,1.2 l0.0,10.8 -1.2,0.0 l-3.6,2.4 -3.0,0.6 l0.0,0.6 -4.8,0.0 l-1.8,-1.2 -0.6,-1.8 l-1.2,0.0 0.0,-1.2 l-1.2,0.0 0.0,-1.8 l-1.2,-0.6 0.0,-7.8 l1.2,-2.4 m55.2,-9.0 l0.0,0.0 0.0,1.8 l1.2,1.2 0.0,6.0 l0.6,0.6 0.0,1.8 l1.2,0.0 0.6,1.2 l3.6,0.6 12.0,0.0 l4.2,-0.6 1.2,-0.6 l0.0,-3.0 -3.0,-4.2 l0.0,-4.2 -1.8,-6.0 l-7.2,1.2 -2.4,1.8 l-2.4,0.0 -0.6,0.6 l-1.8,0.0 0.0,0.6 m22.2,15.6 l3.0,3.6 0.6,3.0 l0.6,0.6 1.2,0.0 l0.0,-0.6 m-39.0,-30.0 l0.0,3.6 1.8,0.6 l0.0,1.8 3.0,1.8 l5.4,0.6 0.6,0.6 m55.2,3.6 l0.0,0.0 0.6,-1.8 l2.4,-1.2 5.4,0.0 l3.0,2.4 1.2,6.0 m1.2,-14.4 l0.0,23.4 m1.2,-14.4 l0.0,-1.8 1.2,-0.6 l0.0,-1.8 1.2,0.0 l0.6,-1.2 1.2,0.0 l3.6,-1.8 2.4,0.0 l0.0,0.6 0.6,0.0 m-12.6,9.6 l-6.0,1.8 -1.8,1.2 l-2.4,4.8 0.0,1.8 l-0.6,0.0 0.0,1.2 l-0.6,0.0 m13.2,-9.6 l8.4,0.0 1.2,0.6 l2.4,3.0 0.0,3.6 m33.9,-16.5 l0.0,0.0 2.4,4.8 l0.6,0.0 0.6,3.0 l1.2,0.6 0.0,1.8 l0.6,0.0 0.6,2.4 l1.2,0.6 0.0,1.8 l0.6,0.0 0.0,1.2 l0.6,0.0 0.0,1.2 l0.6,0.0 0.0,1.8 l0.6,0.0 0.6,1.8 l0.6,0.0 0.6,3.6 l1.2,0.0 0.0,-1.8 l2.4,-1.2 1.8,-5.4 l1.8,-1.2 0.0,-1.2 l1.2,0.0 0.6,-1.8 l0.6,0.0 0.0,-1.2 l3.6,-3.0 0.0,-1.8 l0.6,0.0 0.0,-6.0 l-0.6,0.0 -0.6,-1.8 l0.0,-3.0 -0.6,0.0 l-0.6,-4.2 m59.65,0.55 l0.0,0.0 1.1,0.0 l0.0,1.1 2.8,1.1 l0.0,4.0 -1.7,0.0 l0.0,1.7 -2.2,2.2 l-1.1,0.0 -1.1,1.7 l-2.2,0.5 -2.2,2.2 l-4.5,1.1 -3.4,2.8 l-3.4,0.5 -1.7,2.2 l-4.0,1.1 m22.9,-10.9 l0.0,21.2 m37.05,-28.65 l0.0,0.0 3.1,-0.5 l6.8,0.0 0.5,0.5 l1.0,-1.0 16.2,0.0 l0.0,0.5 0.0,-0.5 m-7.3,0.5 l-0.5,0.0 -0.5,2.6 l0.0,7.8 -1.5,0.0 l-0.5,-1.0 -3.6,-0.5 l0.0,-0.5 -3.1,0.0 l-0.5,-0.5 -3.6,0.5 l-2.0,2.0 -1.5,0.5 l-0.5,6.2 -0.5,0.0 l1.5,4.1 2.6,1.0 l0.0,0.5 4.1,0.5 l0.0,0.5 0.5,-0.5 l3.6,0.5 -0.5,0.0 l0.5,-1.0 5.2,-2.0 l1.0,-1.0 m-3.1,-3.1 l1.0,-0.5 2.0,2.0 l3.6,6.2 1.5,0.5 l0.5,1.5 1.0,0.0 l0.0,-0.5 -0.5,0.5 m25.2,-32.6 l0.0,0.0 15.0,0.0 l1.1,0.5 4.0,0.0 l0.5,0.5 17.3,0.0 l0.0,-0.5 6.3,0.0 m-17.9,1.1 l0.5,17.3 -0.5,1.7 l0.0,11.0 -0.5,0.5 l-0.5,6.3 -3.4,-6.9 l-2.3,-1.1 -1.1,-2.8 l-2.3,-1.1 0.0,-1.1 l-4.6,-4.6 -9.2,0.0 l0.0,-2.3 1.7,-2.8 l5.2,-2.8 0.0,-0.5 l12.1,-2.3 12.1,0.5 l1.7,2.3 4.0,1.1 l1.1,1.1 0.5,2.8 l0.5,0.0 1.1,2.8 l0.0,3.4 -0.5,0.0 l0.0,1.1 -1.1,0.0 l-1.1,1.1 -2.3,-0.5 m28.9,-15.0 l0.0,0.0 0.0,-0.4 l2.8,-2.3 2.3,0.0 l1.4,0.9 0.9,13.6 l1.4,1.8 1.8,0.9 l7.0,0.4 4.2,-3.7 l1.4,-3.2 0.0,-6.1 l-3.2,-3.7 5.1,0.0 l2.3,1.4 0.0,0.9 l1.4,0.9 2.8,6.5 l0.0,9.8 m-13.6,-8.4 l1.8,3.2 1.8,7.0 m-1165.9,42.9 l0.0,0.0 0.6,-2.4 l1.2,0.0 0.0,0.6 l1.2,0.6 0.6,2.4 l0.6,0.0 0.0,10.2 l-0.6,0.0 0.0,3.0 l0.0,-3.6 0.6,0.0 l0.6,-1.8 0.6,0.0 l0.6,-2.4 1.2,0.0 l4.8,-5.4 1.2,0.0 l1.2,-2.4 3.0,0.0 l1.2,2.4 0.0,8.4 l-0.6,0.0 0.0,1.2 l0.0,-1.8 1.2,-2.4 l0.6,0.0 0.0,-2.4 l0.6,0.0 1.8,-2.4 l1.2,0.0 0.0,-0.6 l3.6,-1.2 0.0,-0.6 l3.6,0.0 0.6,1.8 l-0.6,7.8 -1.2,0.0 l0.0,1.2 -0.6,0.0 l0.0,1.2 -0.6,0.0 l0.0,1.2 -0.6,0.0 m-22.2,1.2 l31.8,0.0 3.0,-5.4 m29.4,-16.2 l0.0,0.0 21.6,0.0 l0.0,7.2 1.2,0.6 l0.6,1.2 0.0,5.4 l-1.2,0.0 0.0,1.2 l-1.2,0.0 0.6,1.2 l0.0,11.4 m-22.2,-28.8 l0.0,15.0 -1.2,0.0 l1.8,4.8 -1.2,0.0 l0.0,5.4 -1.2,0.0 l0.0,3.0 m61.75,-28.15 l0.0,0.0 0.5,4.6 l1.1,0.5 0.0,1.1 l2.3,3.5 0.0,1.7 l1.1,0.5 0.5,2.3 l0.0,14.0 -0.5,1.7 l-3.5,0.0 0.0,-0.5 l-1.1,0.0 0.0,-7.6 l1.1,-0.5 1.1,-3.5 l5.2,-3.5 1.1,-1.7 l9.9,0.0 0.0,1.1 l4.0,1.7 0.5,1.7 l1.7,1.7 0.0,8.1 l-4.0,0.5 -0.5,-1.1 m0.5,-27.5 l4.0,0.0 1.1,0.5 l1.7,4.0 0.0,2.9 m-33.3,2.3 l0.0,-1.7 5.2,-1.7 l1.1,-2.3 8.7,-0.5 l1.1,-0.5 m55.5,-2.65 l0.0,0.0 0.0,12.9 l0.5,0.0 0.5,3.2 l0.5,0.0 0.0,8.1 l-1.0,7.5 m0.0,-33.0 l9.2,0.5 1.0,0.0 l-0.5,-0.5 m-22.2,12.4 l34.1,0.0 m20.0,-14.8 l0.0,0.0 -2.3,0.0 l0.0,5.2 1.1,0.0 l1.1,1.1 5.2,0.0 l0.0,-4.0 -1.7,-1.7 l-1.1,0.0 m41.7,-2.8 l-0.5,-0.5 -2.8,0.0 l0.0,4.6 1.7,0.5 l0.0,0.5 1.1,0.0 l0.0,0.5 2.3,0.0 l0.0,-4.6 -0.5,0.0 l0.0,-2.3 -0.5,0.0 m-36.5,7.5 l5.2,0.5 1.7,1.7 l1.1,0.0 4.0,4.6 l5.7,4.0 11.5,10.4 l1.7,0.5 0.5,1.1 l1.7,0.5 0.0,0.5 l1.7,0.0 0.0,0.5 l1.1,0.0 2.3,1.7 l1.7,0.0 m0.0,0.5 l-8.1,0.5 -12.7,5.2 l-5.7,1.1 -11.5,4.0 l-2.8,0.0 m34.7,-41.1 l-1.1,0.0 -1.7,1.1 l-8.1,8.1 -1.7,0.5 l-1.7,1.7 -1.1,0.0 l0.0,1.1 -0.5,0.0 m48.25,14.55 l0.0,0.0 0.0,-7.0 l0.4,0.0 0.4,-2.3 l1.4,-1.4 0.0,-2.3 l4.6,-3.7 6.5,0.0 l2.8,1.8 0.0,0.9 l0.9,0.4 0.0,8.9 l-1.4,2.8 m33.9,-1.7 l0.0,0.0 2.3,-1.9 l3.4,0.0 1.1,3.4 l0.7,0.0 -0.3,3.4 l-6.2,0.0 -1.1,-1.9 l0.0,-5.8 3.4,-6.9 l3.8,-2.3 5.4,-0.3 l1.1,0.7 1.5,6.6 l0.0,9.3 0.0,-13.2 l1.1,-3.8 0.7,-0.3 l0.0,-0.7 1.1,0.0 l0.0,-0.7 4.6,0.0 l1.5,1.1 0.0,0.7 l0.7,0.0 1.9,4.2 l0.0,7.7 -1.1,2.3 l-1.5,1.1 -0.3,1.5 l14.3,0.0 -0.3,-18.2 m29.2,-6.65 l0.0,0.0 0.0,0.6 l3.0,4.2 1.2,0.0 l0.6,1.8 2.4,1.8 l0.0,1.2 1.2,0.6 l0.6,1.8 2.4,2.4 l0.0,1.2 1.8,2.4 l4.2,3.6 6.6,9.0 m0.0,-28.8 l-3.0,3.6 -0.6,1.8 l-2.4,1.8 -6.0,7.8 l-3.0,6.0 -4.2,6.0 l-1.2,0.6 -0.6,2.4 m53.1,-28.7 l0.0,0.0 7.8,-1.0 l2.6,-1.0 21.4,-1.5 m-11.0,3.1 l-0.5,0.0 0.0,2.6 l-0.5,0.5 0.0,5.2 m4.7,3.6 l0.5,-0.5 -0.5,-1.0 l-3.6,-1.5 -5.7,0.0 l-3.6,2.6 -1.0,2.0 l-1.0,5.7 0.0,5.7 l3.1,3.6 2.6,1.0 l3.6,0.0 3.6,-1.0 l3.6,-2.6 1.5,-3.6 l0.0,-5.7 -2.6,-4.7 l-2.6,-1.5 m49.6,-18.2 l0.0,0.0 0.6,0.6 l0.0,1.8 4.2,12.6 l0.0,1.8 4.2,13.8 l0.0,2.4 0.6,0.6 l0.0,8.4 m-25.8,-32.4 l0.0,-0.6 0.6,0.0 l1.2,1.2 1.2,9.0 l1.2,1.8 0.6,5.4 l0.6,0.0 0.0,2.4 l0.6,0.0 0.0,1.8 l0.6,0.0 0.0,0.6 l10.2,0.0 0.0,-0.6 l2.4,-0.6 0.0,-0.6 l3.6,-0.6 3.6,-1.8 l7.8,-0.6 1.2,-1.2 l0.0,-10.8 -1.2,-1.2 l6.0,0.0 m26.1,-16.2 l0.0,0.0 -0.6,49.2 m27.0,-50.4 l0.0,1.8 0.6,0.0 l0.0,6.6 -0.6,0.0 l0.0,11.4 -0.6,0.0 l0.0,4.2 -0.6,0.6 l0.0,22.8 -0.6,0.0 l0.0,1.2 -0.6,0.0 m-22.8,-31.8 l2.4,0.0 1.8,0.6 l0.0,0.6 4.8,0.6 l0.0,0.6 1.8,-1.2 l0.0,-0.6 2.4,0.0 l0.0,0.6 4.2,0.6 l0.0,1.2 2.4,0.0 l0.0,0.6 1.2,0.0 l0.0,1.2 1.2,0.0 l0.0,1.2 1.8,0.0 m-25.2,6.0 l4.2,0.6 0.6,1.2 l4.8,0.0 0.0,0.6 l1.2,0.0 0.0,0.6 l1.2,0.0 0.0,0.6 l-0.6,-1.2 4.8,0.6 l0.0,0.6 1.2,0.0 l0.0,1.2 2.4,0.0 l2.4,1.2 6.0,0.6 m46.8,-20.85 l0.0,0.0 -7.0,0.4 l-6.0,4.2 0.9,7.5 l2.8,4.6 4.2,3.7 l1.4,0.9 1.4,0.0 l1.4,-1.4 6.0,-2.8 l1.4,0.0 1.4,-1.4 l2.3,-0.9 0.4,-5.1 l-1.8,-4.6 -4.6,-4.2 l-1.8,-0.9 -4.2,0.0 l-1.4,0.9 m-4.6,1.4 l0.0,2.3 1.8,3.2 l0.0,6.0 -1.4,0.4 m52.7,-20.05 l0.0,0.0 7.2,0.0 l0.0,37.8 m15.0,-45.6 l3.6,0.0 0.0,15.0 l-0.6,1.2 0.0,6.0 l-1.2,1.2 0.0,7.2 l-0.6,1.2 0.0,16.8 m-14.4,-21.0 l15.6,0.0 2.4,-0.6 m42.9,-22.8 l0.0,0.0 0.0,18.0 m12.0,-16.8 l0.0,15.6 -1.2,1.2 l0.0,7.8 -1.2,1.2 l0.0,10.8 -1.2,0.0 l0.0,0.6 -1.8,0.6 l-1.8,0.0 0.0,0.6 l-1.8,0.0 0.0,0.6 l-5.4,0.0 0.0,-1.2 l-1.2,0.0 0.0,-1.2 l-1.2,0.0 m5.4,-21.0 l1.2,0.0 0.0,-1.2 l1.8,0.0 0.0,-1.2 l2.4,0.0 0.0,-1.2 l1.8,0.0 0.6,1.2 l1.8,0.0 m1.2,-12.6 l-2.4,1.2 0.0,0.6 l-1.8,0.0 0.0,0.6 l-6.0,0.6 m50.1,16.5 l0.0,0.0 -1.8,-1.8 l-3.0,-1.2 -1.2,-1.8 l0.0,-10.2 3.0,-0.6 l0.0,-1.2 1.2,-0.6 l0.0,-0.6 1.8,0.0 l1.2,-1.8 1.8,0.0 l0.0,-0.6 6.6,0.0 l0.0,0.6 3.6,2.4 l1.8,3.6 0.6,0.0 l3.6,5.4 1.2,0.0 l0.6,12.0 -0.6,0.0 l0.0,1.8 -1.2,0.0 l0.0,3.0 2.4,1.8 l1.8,0.0 1.8,2.4 l1.8,0.6 0.0,1.2 l3.6,1.2 0.0,-0.6 m-30.0,-19.8 l-0.6,1.8 -1.8,0.6 l0.0,3.0 -0.6,0.0 l0.0,3.0 -1.2,4.2 l-1.2,0.0 0.0,6.0 l1.8,1.8 3.6,1.2 l0.6,1.2 2.4,0.0 l0.6,-1.8 1.8,0.0 l1.2,-2.4 1.2,0.0 l0.0,-1.2 0.6,0.0 l0.0,-3.0 0.6,0.0 l0.6,-6.6 1.2,0.0 l0.0,-3.0 m-4.8,10.2 l-1.2,0.0 0.0,-1.2 l-3.0,-0.6 0.6,-6.0 l1.2,-0.6 m58.8,-5.7 l0.0,0.0 0.0,-3.0 l1.8,-0.6 0.6,-1.2 l3.6,-1.2 2.4,0.0 l0.0,-0.6 10.2,0.0 m-9.6,0.6 l0.0,16.2 1.2,1.8 l6.0,0.0 m42.4,-21.15 l0.0,0.0 1.1,9.6 l-0.3,5.5 m10.0,-8.5 l0.3,7.4 m8.5,-8.5 l1.8,8.9 0.0,9.3 m38.8,-30.15 l0.0,0.0 0.0,36.6 m0.6,-13.2 l0.0,-1.2 4.8,-4.2 l3.6,-1.8 1.8,0.0 l0.6,-1.2 3.6,0.0 l5.4,4.2 3.0,4.8 l0.6,2.4 0.0,6.6 m-27.6,-25.2 l3.0,-1.8 3.6,0.0 l9.6,-3.0 8.4,-1.2 l1.8,-1.2 1.8,0.0 m32.95,16.7 l0.0,0.0 0.4,-6.5 l3.2,-1.4 1.4,5.1 l-0.9,9.4 1.4,0.9 l8.9,0.4 2.3,-2.3 l1.8,-3.2 0.0,-3.2 l-0.9,-3.2 -2.3,-3.2 l1.4,-0.9 2.8,0.0 l3.2,1.4 1.8,3.2 l1.4,4.2 0.0,3.7 m-15.5,-1.8 l1.4,-0.9 4.7,8.4 m35.3,-1.25 l0.0,0.0 34.6,0.0 l7.7,-1.0 m-37.0,0.0 l0.3,-12.1 m0.0,0.0 l0.0,-2.0 m0.0,0.0 l25.2,-0.6 m0.0,0.0 l0.0,9.0 m0.0,0.0 l-10.7,-0.6 m-1151.5,45.85 l0.0,0.0 -0.5,1.1 l0.0,2.3 -1.1,0.5 l0.0,2.3 -1.7,4.0 l0.0,2.9 -0.5,0.5 l0.5,15.8 m25.7,-31.6 l-0.5,0.5 0.0,3.5 l-1.1,1.1 0.0,2.9 l-1.1,0.5 0.0,2.3 l-1.7,4.6 0.0,5.2 l-1.7,1.1 0.0,2.9 l-1.1,0.5 0.0,1.1 l-0.5,0.0 -0.5,1.7 l-3.5,0.0 m-1.7,-21.0 l19.9,0.0 m45.15,-12.4 l0.0,0.0 -1.8,18.6 l-0.6,0.6 0.0,18.6 l-0.6,0.0 0.0,4.8 m47.6,-37.1 l0.0,0.0 0.0,-1.1 l-1.6,0.0 0.0,-0.5 l-5.0,0.0 -1.1,2.8 l-1.1,0.5 0.5,3.9 l3.3,1.1 1.1,1.6 l2.2,0.5 2.2,2.2 l5.6,2.2 0.5,1.1 l1.6,0.5 2.8,2.8 l0.5,1.6 4.4,4.4 l1.6,0.5 1.6,1.6 l1.1,0.0 2.2,2.2 l2.2,0.5 0.5,1.1 l1.6,0.0 0.0,0.5 l3.3,1.1 1.1,1.1 l1.1,0.0 0.0,0.5 l3.3,0.5 0.0,-2.2 l1.1,0.0 0.0,-6.1 l-0.5,0.0 -1.1,-3.9 l-1.6,-0.5 -3.9,-3.9 l-2.8,-1.1 -0.5,-1.1 l-1.1,0.0 -0.5,-1.1 l-1.1,0.0 -3.3,-3.3 l-3.3,-1.1 -0.5,-1.1 l-3.3,-1.1 -0.5,-1.1 l-1.1,0.0 0.0,-0.5 l-3.3,-1.6 m49.2,1.5 l0.0,0.0 -0.6,0.0 l0.0,-5.4 0.6,0.0 l0.6,-2.4 m0.6,-0.6 l0.6,-0.6 16.2,0.0 l1.2,-0.6 10.2,0.0 l0.6,0.6 1.2,4.2 l0.0,20.4 1.2,4.2 l-0.6,0.6 -0.6,6.0 l1.2,0.6 0.0,1.8 l1.2,1.2 0.0,1.2 m28.1,-40.0 l0.0,0.0 0.5,0.0 l-1.5,2.0 0.0,1.0 l-1.0,0.5 -0.5,6.5 m0.0,0.0 l-2.0,0.0 3.5,0.0 l0.0,0.5 m4.0,-12.5 l0.5,1.5 -0.5,0.0 l0.5,0.5 -0.5,2.0 l1.0,1.0 0.5,2.5 l1.0,0.0 0.0,-0.5 l1.5,0.5 3.0,4.5 l-3.0,0.0 2.0,0.0 m-5.0,0.0 l8.5,-0.5 m-6.5,-6.5 l-1.0,0.0 1.0,0.0 l0.0,-0.5 15.1,0.0 l-2.0,-3.0 0.0,-1.0 l1.0,0.0 -0.5,-0.5 l1.5,-1.5 4.5,0.0 l1.5,1.0 4.0,1.0 l0.0,1.0 2.5,1.5 l0.5,1.5 0.0,1.0 l-0.5,0.0 0.0,25.7 l-0.5,3.5 -1.5,3.0 l-1.5,0.5 -1.5,2.0 l-5.5,3.0 -12.0,1.5 m9.0,-40.3 l0.5,0.5 -1.0,0.5 l0.5,2.5 -0.5,0.5 l0.0,-0.5 5.5,-0.5 l0.0,-1.0 1.0,-0.5 l0.0,-1.5 1.0,-0.5 l0.5,-1.5 -0.5,-0.5 l-3.0,0.5 m54.3,7.2 l0.0,0.0 0.0,11.4 l-0.6,1.2 0.0,8.4 l-0.6,0.6 0.0,7.8 l0.6,0.0 m1.2,-31.2 l0.0,-1.8 -1.8,-0.6 l-10.2,0.0 -1.8,0.6 l-1.8,1.8 0.0,6.6 l0.6,1.8 6.0,3.6 l3.6,0.6 2.4,1.2 l9.0,0.0 1.2,-3.0 l0.0,-9.0 -1.8,-3.0 l-1.8,-1.2 -2.4,-1.2 l-3.0,0.0 m48.9,2.1 l0.0,0.0 -5.4,2.4 l-3.6,4.2 0.0,4.2 l0.6,1.2 3.6,1.2 l1.8,1.2 0.0,0.6 l2.4,0.0 -6.0,0.0 l-1.8,1.8 -1.2,0.0 l0.0,0.6 -0.6,0.0 l0.0,1.8 -2.4,3.0 l0.0,3.6 3.0,3.6 l1.2,0.0 1.2,1.2 l9.6,0.0 0.0,-0.6 m-6.0,-15.6 l12.6,0.0 0.6,-1.2 l1.8,-0.6 0.6,-1.8 l0.6,0.0 0.0,-8.4 l0.0,4.8 1.2,1.2 l0.0,4.8 1.8,-0.6 l0.6,-1.2 1.2,-0.6 l1.8,-3.0 0.0,-1.2 l1.2,-0.6 0.0,-2.4 l-0.6,6.6 1.8,1.2 l0.0,0.6 1.2,0.0 l1.2,-0.6 3.6,-4.2 l0.6,-6.6 1.8,0.6 m28.5,-3.3 l0.0,0.0 1.8,6.6 l0.0,14.4 1.2,3.6 l0.0,9.6 0.6,0.0 l0.0,0.6 m-2.4,-24.6 l1.8,-0.6 3.0,-2.4 l0.0,-3.6 0.6,0.0 l1.2,-1.8 6.0,0.0 l2.4,1.2 1.8,0.0 l0.0,0.6 2.4,1.2 l0.0,6.6 -0.6,0.0 l0.0,1.2 -3.6,2.4 l-2.4,3.0 -12.6,0.0 m51.2,-7.25 l0.0,0.0 45.2,0.0 l0.5,-0.5 m-40.5,-14.4 l0.5,0.5 0.0,1.7 l2.8,2.8 7.5,0.5 l0.0,0.5 1.7,0.0 l0.0,0.5 1.1,0.0 l7.5,3.4 5.7,0.0 m-18.5,6.3 l0.5,0.5 0.0,2.3 l1.1,1.1 0.0,11.0 l1.7,1.1 1.7,2.8 l6.3,0.5 0.5,0.5 l4.6,0.0 3.4,-2.3 l2.3,-4.0 1.1,-4.0 l-0.5,0.5 0.0,6.3 l-1.1,0.5 -0.5,3.4 l-1.7,1.7 -1.1,3.4 l-1.1,1.1 -18.5,0.0 l-1.7,-0.5 0.0,-1.1 l-1.1,0.0 -2.8,-3.4 l-1.1,0.0 -1.7,-1.7 l0.0,-1.1 -1.1,0.0 l0.0,-1.1 -4.0,-3.4 l0.0,-1.1 -2.8,-2.3 l0.5,-1.1 -3.4,-2.3 l0.0,-1.1 m23.7,20.2 l-2.8,0.5 -13.9,0.0 l-3.4,-3.4 -1.7,0.0 l0.0,-0.5 -3.4,-2.3 l0.0,-1.1 -1.1,-0.5 l-0.5,-2.3 m77.4,-26.75 l0.0,0.0 -2.4,0.6 l-2.4,3.0 -1.2,0.6 l0.0,1.2 -0.6,0.0 l-0.6,7.8 1.8,3.6 l1.2,0.6 9.6,0.0 l1.2,-0.6 1.2,-3.0 l1.8,-1.8 0.6,-3.0 l0.6,0.0 0.0,-3.0 l-0.6,4.2 -0.6,0.6 l0.0,6.6 0.6,0.0 l0.0,0.6 7.2,0.0 l0.6,-1.2 1.2,0.0 l5.4,-7.2 0.0,-1.2 l1.8,-3.0 0.0,-3.0 l1.2,-2.4 0.0,-4.2 l0.0,38.4 0.6,0.6 m45.0,-38.5 l0.0,0.0 0.5,0.0 l0.5,-1.1 1.1,0.0 l1.7,-1.7 1.1,1.1 l0.0,4.5 0.5,0.5 l0.0,18.9 -0.5,2.2 l-0.5,0.0 -0.5,6.8 l-2.8,4.5 -6.3,2.8 l-0.5,-0.5 -5.1,2.8 l0.0,-1.7 m0.5,-38.5 l2.2,0.5 1.1,1.1 l0.5,2.2 0.5,0.0 l0.0,4.5 0.5,0.0 l-0.5,0.0 0.0,12.0 l-0.5,0.0 0.0,3.4 l-0.5,0.0 0.5,-2.2 m72.4,-18.7 l0.0,0.0 2.2,3.1 l0.0,1.8 -0.9,1.8 l-1.8,1.3 -9.9,0.0 l-2.7,-0.9 -0.4,-0.9 l-5.9,-0.4 m9.0,3.1 l-1.3,0.9 0.0,2.2 l1.8,1.3 3.6,-1.8 l0.0,-2.2 -3.1,-0.4 l0.0,3.1 m5.9,-3.1 l0.9,1.8 0.0,4.5 l-1.3,2.7 -2.7,2.2 l-7.2,2.2 -3.1,3.6 l0.0,1.3 1.3,1.8 l2.7,1.8 9.0,0.4 l3.6,-1.8 2.2,-2.7 l0.0,-3.6 -1.8,-4.9 l0.0,-9.0 -0.9,-1.3 m35.5,-9.75 l0.0,0.0 30.1,0.0 m0.0,0.0 l1.7,7.5 0.0,20.8 l1.1,1.7 0.5,3.4 m-4.6,-27.2 l-1.1,1.1 -1.1,3.4 l-1.1,0.5 0.0,1.1 l-1.7,1.1 0.0,1.1 l-1.7,0.5 -1.1,1.1 l0.0,1.1 -1.1,0.0 l0.0,1.1 -2.8,1.7 l-1.7,2.3 -1.1,0.0 l0.0,0.5 -1.7,0.5 l-3.4,4.0 8.6,0.0 l0.0,0.5 1.7,0.0 l0.0,0.5 1.7,0.0 l1.7,1.1 3.4,0.5 l3.4,3.4 1.7,0.5 l0.0,1.1 0.5,0.0 l1.1,-5.2 m31.7,-33.55 l0.0,0.0 3.0,0.0 l0.6,0.6 12.6,0.0 l3.6,0.6 -0.6,0.0 l0.6,0.6 2.4,0.0 l1.8,1.2 m-10.2,-0.6 l0.6,3.6 0.6,0.0 l0.6,3.0 0.6,0.0 l0.0,2.4 0.6,0.0 l0.0,1.8 0.6,0.6 l-4.2,0.6 0.0,0.6 l-1.8,0.0 0.0,0.6 l-2.4,0.6 -0.6,1.8 l-1.8,0.6 0.0,1.2 l-1.2,1.2 -0.6,4.8 l-0.6,0.0 0.0,7.8 l-0.6,0.0 0.0,3.6 l0.6,0.6 -0.6,0.0 l0.0,4.2 0.6,0.0 l0.0,0.6 0.0,-1.2 m45.4,-33.0 l0.0,0.0 -0.3,0.0 l-0.3,14.5 0.7,13.0 l7.0,0.0 2.2,-0.7 l36.1,0.3 -0.7,-8.1 l-1.1,-3.7 0.0,-7.4 l1.1,-4.8 0.0,-4.8 l-16.3,0.0 -8.5,1.1 l-19.7,-0.7 m58.2,-2.3 l0.0,0.0 1.8,1.2 l15.6,0.0 0.0,1.2 l1.2,0.0 0.6,1.2 l18.0,0.6 m-32.4,28.8 l0.0,-0.6 1.8,-1.2 l4.8,0.0 12.6,-3.0 l12.6,0.0 10.2,1.8 l1.2,1.2 m-34.2,-21.0 l0.0,4.2 2.4,4.8 m12.6,-12.0 l0.0,12.6 -1.8,3.0 m75.2,-18.4 l0.0,0.0 -9.0,1.0 l-13.1,0.0 -8.5,-0.5 l-3.0,-1.0 -5.5,0.0 m22.2,-0.5 l-1.0,2.5 1.0,22.2 l-1.0,1.5 -5.0,0.0 l0.0,-0.5 -1.5,-0.5 l-1.0,-3.5 -0.5,0.0 l-0.5,-4.5 1.0,-1.0 l1.5,0.0 3.5,-1.5 l2.5,0.0 0.0,-0.5 l17.6,-0.5 -1.5,2.0 l-1.0,0.0 -2.5,2.0 l-0.5,6.0 2.0,2.0 l3.5,0.0 3.0,-2.0 l0.0,-1.0 m21.05,-25.75 l0.0,0.0 0.0,2.6 l1.0,0.5 0.0,2.0 l1.0,0.5 0.5,7.3 l1.0,1.0 0.0,1.5 l0.5,0.5 8.9,0.0 l5.2,-5.2 1.5,-2.6 l1.0,-11.0 m10.4,2.6 l0.0,9.4 1.0,1.0 l1.0,4.1 0.0,19.3 l0.5,0.0 0.0,2.0 m-41.9,-38.2 l0.0,-0.5 52.9,0.0 m22.75,1.65 l0.0,0.0 0.0,9.6 l1.2,1.2 0.0,28.2 m1.2,-41.4 l1.2,0.0 0.6,1.8 l1.2,0.6 3.0,3.6 l3.6,1.8 0.6,1.2 m0.6,0.0 l0.0,-0.6 0.6,0.0 l0.0,-2.4 1.8,-0.6 l0.0,-1.8 2.4,0.0 l0.6,-1.8 1.8,0.0 l0.0,-0.6 1.8,-1.2 l0.0,-1.2 m-22.8,40.8 l0.6,-2.4 2.4,-0.6 l0.6,-1.8 1.8,0.0 l0.6,-1.2 1.8,0.0 l0.6,-1.8 1.8,0.0 l0.0,-0.6 0.6,0.0 m-0.6,0.6 l0.0,1.8 0.6,0.0 l0.0,0.6 1.2,0.0 l3.0,2.4 0.0,1.2 l0.6,0.0 0.6,1.2 l1.8,0.0 m35.1,-30.0 l0.0,0.0 2.4,0.0 l2.4,-1.2 3.6,0.0 l1.8,10.2 0.0,12.0 l-0.6,0.6 0.0,1.8 m1.8,-15.0 l4.8,0.0 0.0,5.4 l0.6,0.0 0.0,1.8 l1.2,1.8 3.0,3.6 l1.2,0.0 2.4,1.2 l0.0,0.6 1.8,0.0 l0.0,-1.8 1.2,-1.8 l0.0,-1.2 1.2,-0.6 l0.0,-1.8 0.6,0.0 l1.8,-2.4 -2.4,-1.2 l-2.4,-3.0 -1.2,-3.6 l0.0,-2.4 11.4,0.0 l0.0,0.6 m-25.8,1.8 l0.0,0.6 2.4,0.0 l0.0,0.6 2.4,0.6 m-1137.45,47.3 l0.0,0.0 0.0,0.5 l0.5,0.0 0.0,3.9 l0.5,0.5 0.0,9.5 l1.6,2.2 2.8,0.5 l1.1,1.1 1.6,5.0 l0.0,6.7 -1.1,1.6 l-2.2,0.5 -0.5,1.1 l-2.2,0.5 0.0,0.5 l-3.9,0.0 -2.2,-1.1 l-2.2,-2.2 -1.6,-3.9 l0.0,-3.3 m15.1,-5.0 l-4.4,-4.4 -1.1,-3.3 m-4.4,-11.8 l0.0,0.5 -1.6,0.0 m-1.1,2.8 l0.0,-0.5 m64.85,-4.25 l0.0,0.0 0.0,2.1 l-3.2,3.2 -1.6,2.7 l-3.2,2.1 -0.5,1.6 l0.0,11.4 3.8,7.0 l2.7,2.1 3.2,4.8 l2.1,1.0 m-0.5,-38.1 l2.1,2.1 2.7,0.5 l2.1,2.7 0.0,16.8 l-3.2,4.8 -0.5,4.8 l-3.8,3.8 m41.0,-41.95 l0.0,0.0 0.6,1.2 l1.2,0.0 0.0,1.2 l3.0,4.8 1.8,5.4 l0.6,0.0 1.2,2.4 l0.6,0.0 3.0,6.0 l0.6,0.0 1.8,2.4 l0.6,1.8 1.2,0.6 l0.0,1.2 1.2,0.6 l0.0,1.2 1.8,1.2 l0.0,1.2 0.6,0.0 l1.8,3.0 0.6,0.0 l0.0,1.2 1.8,1.2 l0.0,1.2 2.4,1.8 l0.0,1.8 1.8,1.2 l0.0,1.2 1.2,0.6 l2.4,3.6 1.2,0.0 l1.2,1.8 0.0,1.2 l0.6,0.0 m0.0,-48.6 l-1.8,1.2 -0.6,3.0 l-0.6,1.2 -0.6,0.0 l0.0,1.8 -0.6,0.0 l0.0,1.2 -0.6,0.0 l0.0,1.2 -1.2,1.2 l0.0,1.2 -0.6,0.0 l0.0,1.2 -0.6,0.0 l-1.2,3.6 -0.6,0.0 l-1.8,4.2 -0.6,0.0 l0.0,1.2 -1.8,1.2 l-0.6,2.4 -0.6,0.0 l-1.2,2.4 -2.4,1.8 l-0.6,1.8 -9.0,8.4 l-0.6,1.8 -1.8,1.2 l0.0,1.2 -1.2,0.6 l0.0,1.2 -1.8,2.4 m69.9,-34.2 l0.0,0.0 0.0,-4.2 l0.6,-1.2 3.6,-3.0 l-0.6,-0.6 0.6,0.0 l3.0,-3.6 2.4,0.0 l0.0,0.6 0.6,0.0 l0.0,1.2 1.8,2.4 l0.6,5.4 -1.2,1.8 l0.0,1.8 -1.8,3.0 l-1.2,0.6 0.0,1.2 l-2.4,1.2 -0.6,1.2 l-3.6,1.2 -0.6,1.2 l-2.4,0.6 0.0,1.2 l-1.2,0.0 -1.8,2.4 l-1.2,0.0 0.0,1.2 l-2.4,1.8 0.0,2.4 l-0.6,0.0 0.6,3.0 l0.6,0.0 1.2,1.8 l8.4,3.6 6.6,1.8 l7.8,0.0 0.0,-1.2 l1.2,-0.6 0.0,-1.8 l1.8,-1.2 0.0,-1.8 l-1.8,-3.0 0.0,-1.2 l-1.8,-2.4 -5.4,-0.6 l2.4,0.0 m42.5,-15.65 l0.0,0.0 0.0,2.3 l-2.8,0.5 -0.5,-0.5 l0.0,-4.0 1.7,-1.7 l2.3,0.0 0.0,-0.5 l3.4,0.0 0.0,1.1 l1.1,0.5 0.0,1.1 l1.1,1.1 0.0,17.9 l1.1,2.8 0.0,5.7 m0.5,-11.0 l0.0,-2.3 -0.5,0.0 l0.0,-17.3 0.5,0.0 l0.0,-2.3 0.5,0.0 l0.0,-3.4 12.1,0.0 l0.5,0.5 2.3,0.0 m37.4,2.05 l0.0,0.0 0.0,1.2 l0.6,0.0 0.0,30.0 m0.0,-11.4 l0.6,-1.8 1.8,-0.6 l0.0,-0.6 1.8,-1.2 l4.8,0.0 0.0,0.6 l1.8,0.0 0.0,0.6 l1.2,0.6 m-2.4,-15.6 l0.6,9.6 0.6,0.6 l0.0,3.0 0.6,0.0 l0.0,9.6 m1.8,-6.6 l-0.6,0.0 0.6,-3.0 l4.8,0.0 m-2.4,-15.0 l0.6,12.6 1.8,4.2 l0.0,1.8 m40.2,-4.25 l0.0,0.0 0.5,0.0 l3.0,-3.0 2.5,-4.5 l2.5,0.5 4.0,2.5 l1.0,0.0 1.5,1.5 l2.0,0.0 3.5,-4.0 l0.5,-4.5 -0.5,1.5 l-2.5,2.5 -1.5,4.0 l-3.5,6.0 -0.5,3.5 l-2.0,3.0 -1.0,5.0 m51.1,-31.05 l0.0,0.0 0.0,6.0 l0.6,0.6 0.0,26.4 l-0.6,0.0 0.0,1.2 l-1.8,0.6 -0.6,1.8 m4.8,-30.6 l0.0,-1.8 4.8,-3.6 l7.2,0.6 0.0,13.8 l-0.6,0.0 -1.2,2.4 l-0.6,0.0 -2.4,3.0 l-1.8,0.6 -5.4,0.0 l16.2,0.0 0.0,-0.6 l1.2,0.0 0.6,-1.2 l1.2,0.0 0.6,-1.8 m39.05,-7.25 l0.0,0.0 -0.4,0.0 l-1.8,7.9 0.0,7.0 l2.8,4.2 4.2,1.8 l6.5,0.0 4.6,-2.8 l3.2,-3.7 0.4,-7.9 l-5.6,-7.9 -0.4,-3.2 l-0.9,4.2 0.0,13.1 l1.4,2.3 2.3,0.9 m69.8,-22.2 l0.0,0.0 -2.3,0.5 l0.0,0.5 -2.9,0.5 l-0.5,1.1 -3.5,2.3 l-2.3,2.3 0.0,1.1 l-1.7,2.9 -0.5,0.0 l-0.5,1.7 m1.1,-1.7 l1.1,0.0 0.5,1.1 l2.9,0.0 2.3,1.1 l5.3,5.3 0.5,1.7 l1.1,0.5 0.0,1.1 l1.1,1.1 1.1,3.5 l0.0,5.9 -1.1,1.1 l-1.7,0.5 -33.8,0.0 l-2.3,-3.5 -0.5,0.0 l0.0,-1.7 -1.1,-1.1 l0.0,-4.1 0.5,-0.5 l2.3,0.0 m21.9,-28.4 l1.1,0.0 0.0,1.1 m60.45,0.25 l0.0,0.0 -4.6,0.5 l-2.8,1.7 -2.3,0.0 l-2.3,2.8 0.5,3.4 l1.1,0.0 0.5,1.1 l6.3,0.0 2.8,-2.8 l0.5,-7.5 -1.1,0.0 l0.0,-1.1 -1.7,0.0 m-4.0,11.0 l0.5,0.0 0.0,28.9 l0.5,0.5 m70.8,-32.5 l0.0,0.0 -5.5,0.3 l-3.4,1.0 -2.7,0.0 l0.0,-0.6 -1.7,0.3 l-0.3,-0.6 -4.1,1.3 l-0.6,-0.6 -3.1,1.0 l0.3,22.5 m52.8,-34.6 l0.0,0.0 -2.8,-2.3 l-0.5,10.4 2.8,1.1 l1.1,0.0 1.7,-1.1 l1.7,-4.0 0.0,-1.7 l-3.4,-4.6 m7.5,6.9 l13.9,2.3 8.6,0.0 m0.0,-2.8 l-1.7,1.1 -1.1,4.0 l1.1,3.4 4.6,1.1 l1.7,0.0 2.8,-2.8 l0.5,-2.8 -0.5,-3.4 m-5.2,0.5 l2.3,-1.1 3.4,0.0 m-20.8,7.5 l3.4,27.2 m0.0,-2.3 l-4.0,0.0 -1.1,1.7 l-0.5,7.5 1.7,1.1 l5.7,0.0 1.1,-2.3 l0.0,-6.3 m36.9,-31.55 l0.0,0.0 11.4,0.5 m-5.4,0.5 l0.0,3.8 -2.7,1.6 l-2.1,0.0 m0.0,0.0 l0.0,1.0 4.3,2.1 l0.5,6.5 0.0,13.0 l-0.5,0.5 -3.8,0.0 m0.0,0.0 l19.5,1.6 m-1.6,-25.0 l9.2,0.5 1.0,2.1 l2.1,2.1 0.5,3.8 l1.0,1.6 0.0,10.8 l-0.5,0.5 m24.2,-28.95 l0.0,0.0 0.0,0.4 l0.4,0.0 0.4,15.5 l4.1,9.6 2.7,2.7 l0.4,1.3 2.7,1.3 l11.4,3.2 8.6,0.0 l1.8,-1.8 5.9,-17.3 l0.4,-11.8 0.4,-0.4 m24.15,-0.25 l0.0,0.0 0.0,2.4 l-0.9,0.4 -0.4,5.4 l-0.4,0.0 0.0,3.4 l-1.9,1.9 0.0,1.4 m4.4,-15.3 l-0.4,-0.9 0.4,-1.4 l0.9,0.0 1.4,-1.4 l5.4,0.0 0.0,-0.4 l3.4,0.4 0.0,0.4 l1.9,0.4 1.4,1.9 l0.4,3.9 1.4,3.9 l-0.4,6.9 -0.4,0.4 l0.4,7.9 0.4,0.0 l-0.4,2.4 -2.9,0.0 l-0.9,0.9 -3.4,0.9 l-0.4,0.9 -5.4,0.9 l0.0,-0.4 -1.4,0.0 l-0.9,-0.9 -0.4,-5.9 m-4.9,-9.3 l-0.4,2.4 2.9,1.9 l2.4,0.4 0.4,0.9 l6.4,-0.4 2.4,-0.4 l0.0,-0.4 3.9,0.0 l1.9,-1.9 1.4,0.0 l6.4,-2.9 0.0,-0.4 l1.4,0.0 0.0,-0.9 l1.4,-0.4 1.4,-1.9 l0.4,-2.4 1.9,-1.4 l0.4,-2.9 3.4,1.4 l2.9,7.9 -0.9,16.8 l-0.9,1.4 0.0,2.4 l-1.9,2.9 -1.4,0.0 l0.0,0.4 -5.4,0.0 l0.0,-0.4 m28.15,-17.7 l0.0,0.0 0.5,0.5 l0.5,2.8 1.1,1.1 l25.3,0.0 -11.2,-0.5 l-4.4,-4.4 0.0,-1.1 l-1.1,-1.1 1.1,-2.8 l1.6,0.0 0.0,-0.5 l9.5,0.0 1.1,1.1 l3.3,1.1 2.2,2.8 l5.0,2.8 8.4,0.0 l0.0,-1.1 0.5,0.0 m-19.1,2.2 l1.1,-1.1 0.0,-3.3 l-12.9,-0.5 0.0,1.1 l1.6,1.6 8.9,1.1 l0.0,0.5 -7.3,1.1 l0.0,-0.5 3.9,0.0 l0.0,-0.5 -3.9,0.0 l0.5,-1.1 5.0,-1.1 l1.6,-1.1 0.0,-1.1 l-1.6,-1.1 -2.2,0.0 m-5.6,1.1 l0.5,0.0 0.5,-2.2 l1.1,-0.5 0.5,-1.6 l5.0,0.0 1.6,1.6 m63.3,-10.95 l0.0,0.0 -0.6,0.0 l-3.6,-3.0 -3.0,0.0 l-5.4,2.4 -0.6,1.8 l-0.6,0.0 -0.6,6.0 l1.2,4.8 0.6,0.0 l1.2,2.4 0.6,0.0 l0.0,0.6 6.6,0.0 l0.0,-1.2 0.6,0.0 l-4.2,1.2 -0.6,1.2 l-3.6,1.8 0.0,8.4 l4.2,4.2 6.0,1.8 l1.2,-1.8 2.4,-0.6 l0.6,-1.8 0.6,0.0 l1.2,-4.2 1.2,-1.8 l0.0,-3.6 0.6,0.0 m28.75,-7.3 l0.0,0.0 -0.4,-0.4 l0.0,-4.7 1.8,-2.8 l0.9,0.0 2.3,5.1 l0.9,5.1 -0.4,9.8 l0.9,1.4 4.7,0.9 l1.4,-0.9 -2.3,-2.3 l0.0,-13.1 2.3,-6.5 l0.9,-0.9 2.8,0.0 l3.2,3.2 0.4,3.7 l0.4,0.0 0.4,-2.3 l2.3,-2.3 5.1,-0.4 l0.0,0.4 1.8,0.4 l3.2,3.2 1.8,3.2 l0.0,5.1 -1.4,3.2 l-5.1,3.7 2.3,0.0 l3.7,-1.4 3.2,-4.2 l0.9,-3.2 0.4,-6.5 l-0.4,0.0 -0.9,-2.8 l1.8,0.0 3.2,3.2 l0.4,2.3 0.0,16.9 m54.15,-17.8 l0.0,0.0 0.0,-0.6 l0.6,0.0 0.0,-1.2 l0.6,0.0 -0.6,0.0 l0.0,-1.8 -1.2,-0.6 l0.0,-1.2 -3.6,-1.8 l-1.2,0.0 0.0,-0.6 l-1.8,-1.2 -1.8,0.0 l-1.8,-1.2 -5.4,-0.6 l-0.6,-0.6 -9.6,0.0 l0.0,0.6 -1.8,0.0 l0.0,0.6 -1.2,0.0 l-2.4,1.8 0.0,1.8 l-0.6,0.0 0.0,6.0 l0.6,0.0 0.6,2.4 l0.6,0.0 1.2,1.8 l3.0,1.8 2.4,0.6 m-2.4,15.0 l-0.6,-0.6 0.0,-8.4 l-0.6,-1.8 0.6,-1.8 l0.6,0.0 0.0,-1.2 l0.6,0.0 -0.6,-1.2 l1.2,-0.6 -0.6,0.0 l-0.6,-1.2 1.2,-0.6 l0.6,-1.2 1.8,0.0 l0.6,0.6 2.4,0.0 l1.8,3.0 0.0,1.2 l0.6,0.0 0.6,6.6 l0.6,0.0 0.0,2.4 l0.6,0.0 0.0,4.8 l0.0,-0.6 -1.2,0.0 l0.0,-4.8 0.6,0.0 l0.6,-2.4 0.6,0.0 l0.0,-0.6 1.2,-0.6 l0.0,-1.2 2.4,-1.2 l3.6,-4.2 1.2,0.0 l2.4,4.2 0.0,2.4 l1.2,3.6 0.0,4.2 l0.6,0.6 -0.6,0.0 l0.0,1.2 " fill="none" stroke="black" stroke-width="1" /></svg>