<?xml version="1.0" encoding="utf-8" ?>
<svg baseProfile="full" height="116.579980666" version="1.1" width="821.672479401" xmlns="http://www.w3.org/2000/svg" xmlns:ev="http://www.w3.org/2001/xml-events" xmlns:xlink="http://www.w3.org/1999/xlink"><defs /><rect fill="white" height="116.579980666" width="821.672479401" x="0" y="0" /><path d="M25,35.9155103529 m0.0,0.0 m24.5952938898,12.1258303558 l0.399825945497,-3.81121814251 0.657198131084,-2.42006212473 l1.46915793419,-3.59733909369 2.04316973686,-3.60909581184 l2.48330026865,-3.26320946217 2.66482442617,-2.63252437115 l2.90719389915,-2.07434341311 2.93292969465,-1.30274355412 l1.50731116533,-0.330804735422 2.83754706383,0.000303467386402 l2.39181399345,0.821120291948 2.15399906039,1.6976891458 l1.93925768137,2.61638998985 1.55914455652,3.52542847395 l1.26663073897,5.84519207478 0.00012123072338,6.01904630661 l-0.521432682872,4.06874626875 m-19.0761363506,-15.0170731544 l-1.65572211146,0.798536390066 -1.63060590625,1.99980258942 l-0.722017735243,2.0379793644 0.000239142809733,2.10946768522 l1.69981092215,1.46637365222 2.10743308067,0.33996809274 l2.21700832248,-0.000459216535091 1.58879026771,-0.662720128894 l1.33267328143,-1.3982950151 0.722467675805,-2.01936751604 l0.000317696867569,-2.31657505035 -1.42071127892,-1.59879550338 l-1.85715168715,-0.713649690151 -1.72748535872,-8.32630178138e-06 m11.3735675812,-0.0623871618882 l-1.59864723682,0.80772317946 -1.76134213805,2.35860362649 l-0.521973632276,1.83967903256 0.00022514270313,1.83153286576 l0.696865543723,1.39902427793 1.00042298436,0.622231885791 l2.38516882062,-0.000294560704788 1.80762201548,-1.36849373579 l1.16971075535,-2.18716740608 0.356253162026,-1.88752904534 l0.000228093776968,-2.09950655699 -0.855823233724,-0.894347503781 l-1.70513913035,-0.429253093898 -1.79247826338,0.000632306037005 m-8.01386356354,11.1994552612 l0.964965969324,2.58985102177 0.849151238799,0.508549883962 l1.46786928177,-2.69407868385 0.713230445981,-1.29923567176 m-15.1509809494,2.25320994854 l-1.62040010095,2.23358854651 -2.0562274754,4.77225482464 l-0.992138236761,4.00994807482 -0.555861406028,4.31380003691 l8.5375204435e-05,7.80306398869 0.415124706924,2.89960443974 l1.20501495898,3.95648598671 1.73611432314,3.73029410839 l2.14533790946,3.05864453316 0.974955260754,0.900991111994 l1.77179262042,0.939060151577 m24.2390871048,-38.8202047348 l1.62691697478,3.13445597887 2.28846415877,5.42271316051 l1.09463833272,4.76899117231 0.465414524078,4.8074054718 l8.41356086312e-05,7.10047483444 -0.423780195415,2.87667661905 l-1.15893945098,3.6994639039 -1.658821702,3.43308091164 l-1.97617724538,2.76372373104 -2.24300861359,2.08889991045 l-2.37970530987,1.32936373353 -2.86167174578,0.877554938197 l-4.52986627817,0.000471898893011 -5.19519984722,0.000477026515 l-4.22948211432,-1.02918088436 -1.80997550488,-0.758646726608 l-2.37325072289,-1.44237309694 m6.14962518215,-30.7586765289 l-0.213129259646,3.86194318533 -1.08197972178,4.97126251459 l-2.94882625341,10.1865160465 -1.65811181068,3.72824430466 l-1.42287403345,2.25295186043 m20.1047253609,-25.1854991913 l0.358208715916,3.40606093407 1.59285962582,5.78536510468 l2.07201376557,4.98150289059 3.54658663273,5.83277106285 l2.51318633556,2.76673227549 2.61101096869,1.90507218242 m45.9717832242,-36.0940755606 l0.453069210052,-2.79690116644 0.707343518734,-2.03823283315 l1.75245776772,-3.33343327045 2.30667665601,-3.1846600771 l2.52531707287,-2.55090355873 2.81425058842,-2.02994987369 l2.97164797783,-1.40063017607 2.98528283834,-0.705654844642 l2.86751002073,0.000169220566022 1.4940957725,0.45272719115 l1.71725004911,1.33706510067 1.62360414863,2.3115067184 l1.65747314692,4.61794376373 0.591463111341,3.82179051638 l7.54901566324e-05,5.26044309139 m-19.2925238609,-8.76079678535 l-1.19855418801,0.299114175141 -1.27902165055,1.19458213449 l-0.966567099094,1.86530843377 -0.347113013268,1.98842734098 l0.000208157143788,2.32235208154 0.888245999813,0.93603387475 l1.58581852913,0.52661433816 2.25990369916,-3.03439350091e-06 l1.77629381418,-0.847260802984 1.3909804821,-1.69074341655 l0.711860880256,-2.17318043113 0.000235233055719,-2.48840451241 l-0.711390972137,-0.995844379067 -1.57696127892,-1.00998312235 l-1.67171955109,0.00045312975999 m11.4622747898,-0.275396108627 l-1.48452922702,0.663617253304 -1.79653853178,2.35640704632 l-0.601678006351,1.90721154213 0.000262603080046,2.1320655942 l1.71099469066,1.38640388846 1.02698341012,0.158029682934 l2.13896885514,-0.000219612575165 1.65451839566,-0.693303197622 l1.25205382705,-1.38172060251 0.746399536729,-1.94879949093 l0.000241201250901,-2.36756831408 -0.754537135363,-1.04395292699 l-1.12164609134,-0.790892317891 -1.90571844578,0.000744589196984 m-9.26125407219,10.6576180458 l0.806265473366,2.44975835085 0.867412090302,2.71294981241 l0.869371220469,-0.218568257987 1.60085827112,-3.36080372334 l0.994518473744,-1.67555525899 m-14.9258589745,-0.699904486537 l-1.30406856537,2.32762992382 -1.08129121363,3.15594375134 l-1.01852156222,5.84777235985 4.88615569338e-05,6.57614409924 l0.745667517185,4.545532763 1.43704608083,4.45274114609 l1.88442751765,3.88146936893 2.10029989481,2.97907084227 l3.76495301723,3.59046071768 1.19386650622,0.694951191545 m18.3017206192,-39.1325974464 l1.26628220081,3.1815674901 1.97473049164,5.52119076252 l0.921951383352,5.19389212132 9.17002398637e-05,6.40222251415 l-0.428289137781,2.79715538025 -1.25472873449,4.19249594212 l-2.68890917301,5.68074464798 -2.30496183038,3.25532913208 l-2.44160830975,2.39929556847 -2.56003856659,1.60254403949 l-2.68572241068,0.945582985878 -2.57446676493,-5.89537967244e-05 m-6.28399193287,-2.80335098505 l-0.576114356518,1.62733659148 -1.045326069,3.41126561165 l-0.51159709692,1.97622701526 7.02487113813e-06,1.76386341453 l0.864947140217,0.077982256189 1.61080285907,-2.59287744761 l1.09431348741,-1.32415473461 0.848765894771,-0.111884763464 l0.751086771488,0.510974787176 0.832944437861,0.481690615416 l0.858936458826,0.0251600937918 1.07734747231,-1.69744774699 l0.698304101825,-1.10336586833 0.788917019963,-0.424595177174 m2.44494959712,-1.26029014587 l0.988071784377,2.17838361859 0.765308141708,1.00227847695 l0.817413926125,0.349061340094 1.19656600058,-1.80975005031 l0.977299138904,-0.95080293715 0.815385356545,-0.0957814324647 l1.04705862701,-0.198459662497 0.729626119137,-1.47064134479 l0.371418520808,-1.64655715227 m55.7165216715,-32.3400466938 l0.463323518634,-1.94039821625 0.698966383934,-1.51377648115 l1.91169247031,-2.67078667879 2.48100697994,-2.37583741546 l2.31441989541,-1.68990671635 2.18905836344,-1.14233367145 l2.75745630264,-0.837068557739 2.6984244585,-0.184147618711 l2.8232896328,-5.37064988748e-05 1.82504609227,0.611408092082 l1.57842949033,1.3560770452 1.22858501971,2.25541353226 l0.66031947732,2.88019776344 0.000182834919542,3.93310636282 m-19.4215369225,-1.78653240204 l-1.06008991599,-0.981989279389 -1.20731689036,-2.31025889516 l-0.761419013143,-2.50861406326 -0.54172039032,-3.40969353914 l-0.119820535183,-3.58558773994 1.10490344465,-0.932487770915 l1.14479660988,0.364643596113 2.37723425031,2.81215876341 l1.81959062815,2.68496096134 1.29694417119,1.85187399387 m10.3452086449,-0.309006199241 l0.218272637576,-1.28684431314 2.22558364272,-3.92817288637 l2.96758443117,-3.81784468889 0.952416136861,0.293370839208 l0.692204162478,1.47322401404 0.000191711515072,4.57621127367 l-0.991560816765,4.41357284784 -1.13956451416,2.388356179 m-16.2015295029,2.46999129653 l-0.300295762718,0.491458252072 -8.75583464222e-05,1.45598262548 l0.894370228052,0.473186932504 0.901011377573,-0.190756041557 l0.462811365724,-0.912736058235 0.000378027616534,-1.2762182951 l-0.815341100097,-0.631517469883 -0.744303315878,-0.000232564598264 l-0.326732620597,0.760947540402 m9.2707824707,-0.868383273482 l-0.463775210083,0.918343886733 0.000125793903862,1.3387799263 l0.914638116956,0.468176417053 0.858535990119,-0.22342145443 l0.38553416729,-0.967643558979 0.000259299140453,-1.24788202345 l-0.879634991288,-0.562260523438 -0.868541449308,0.000430824511568 l-0.387804545462,0.722184702754 m-5.34106492996,6.30537927151 l0.566158518195,1.74472600222 1.02533437312,0.827862396836 l0.836463496089,-0.326287820935 1.08080498874,-2.12410658598 l0.535252690315,-1.06444224715 m-13.6927998066,-0.557818338275 l-1.1189083755,2.74265646935 -0.81016369164,3.41378301382 l-0.507307946682,5.53271055222 5.71706914343e-05,7.60559439659 l0.695095807314,4.61039483547 1.26243084669,4.25896197557 l1.69869497418,3.6100256443 1.92518025637,2.51576751471 l0.926156640053,0.725920796394 m18.6569571495,-36.3712286949 l1.22235059738,3.40213268995 1.86147063971,6.03610217571 l0.687949433923,4.887380898 5.99923396294e-05,6.39111399651 l-0.835397467017,4.59260284901 -1.36976137757,4.12473112345 l-1.71997830272,3.58606308699 -1.86773270369,2.61527568102 l-2.06224694848,1.92422240973 -2.3699401319,1.35682821274 l-2.74051427841,0.783316120505 -2.99395471811,0.000544703252672 l-3.4944331646,-1.23590283096 m-2.35694974661,-28.0205535889 l-0.599122606218,2.47641339898 0.000356063501386,6.05635404587 l0.890942886472,4.02113616467 2.01291576028,5.06429493427 l1.80759757757,2.96420544386 1.96199893951,2.02490821481 l2.13134467602,1.24170586467 2.3076428473,0.567722953856 l2.55163997412,0.000486101962451 1.02395869792,-0.339769609272 l1.90030351281,-1.7666785419 0.793725475669,-1.31319090724 l0.896783173084,-2.81686365604 0.453370288014,-4.12342041731 l0.000338429199473,-5.29899954796 -0.704076960683,-4.14842516184 l-1.82981431484,-5.23470759392 -0.722221285105,-1.70189112425 m62.9740278128,-14.0130069239 l0.433562882245,-1.25473856926 0.679330527782,-0.951029881835 l1.87427043915,-1.76591068506 2.62144804001,-1.59182161093 l2.75346726179,-0.968721583486 2.61838018894,-0.394530966878 l2.99974381924,-3.35167533194e-05 1.79800376296,0.675258487463 l1.27738773823,1.26695647836 0.757157802582,1.75908282399 l0.00025609131626,1.35638743639 m-16.7098283768,1.37185260653 l-1.06630608439,-2.3305284977 -0.864764451981,-2.14134722948 l-0.868283882737,-2.30331733823 -0.736517086625,-0.773325115442 l-0.631464198232,0.556083582342 -0.316334329545,3.94942462444 l-0.0778748467565,3.56592565775 m19.9607813358,-3.35425943136 l0.941341295838,-2.48271733522 1.3438102603,-2.40686073899 l2.09556415677,-3.16110610962 0.546337105334,1.69030562043 l0.000398981792387,5.03104329109 -0.349438004196,3.76579642296 m-20.4008150101,1.75616756082 l-0.202072113752,0.146297598258 6.72997339279e-05,1.22916728258 l1.21076442301,3.79005104303 1.53091743588,0.969502776861 l1.45662665367,0.00147398226545 1.46691560745,-0.770731344819 l1.11182183027,-1.58159852028 0.546277835965,-1.96817830205 l0.000341820923495,-1.86058759689 -0.692143440247,-1.5033197403 l-0.926637426019,-0.650140866637 -1.62167474627,0.000301588261209 l-1.41979441047,0.695405304432 -0.729226246476,0.750838592649 l-0.592811889946,1.28885522485 m10.0252282619,-2.21005246043 l-0.706807225943,1.31089508533 0.000246103682002,2.88604825735 l0.383916683495,0.962397158146 1.05198092759,1.07934944332 l1.48260638118,0.562018863857 1.5184853971,0.000277065173577 l0.883307531476,-0.865037068725 0.627718642354,-1.23132064939 l0.000190787104657,-2.79010117054 -1.14105693996,-1.45953655243 l-1.63822382689,-0.632504373789 -1.57065615058,0.00063379011408 l-0.953555554152,0.765641257167 m-3.66884946823,8.30981254578 l0.629887282848,2.12305888534 0.841772183776,0.478696636856 l1.08982048929,-2.12379202247 0.41514094919,-1.10414817929 m-12.6117503643,-4.74079877138 l-0.567987151444,2.54020214081 -0.920180752873,4.07935976982 l2.86256590698e-05,4.90797132254 0.823785364628,3.31684738398 l1.57962828875,3.49995732307 2.0501768589,2.84547030926 l2.57197111845,2.38800942898 1.23078905046,0.703131631017 l4.29595291615,1.08860075474 2.5656875968,0.00189593120012 l1.15104719996,-0.330510400236 2.47530072927,-1.79720267653 l2.01774731278,-2.71212011576 1.64151653647,-3.74841183424 l1.03765241802,-4.60678875446 0.185709036887,-2.15366080403 l0.000335491786245,-5.08544683456 -0.749258249998,-3.89337599277 l-0.57715844363,-1.67743965983 m-17.5450408459,22.3125839233 l-0.834658518434,1.85215875506 -0.678812265396,3.03734511137 l-0.331744775176,3.98062765598 0.000105799044832,6.52407824993 l0.71057587862,3.59057873487 0.487818978727,1.06916762888 m17.6104199886,-22.6060628891 l1.21550448239,2.92987674475 1.84508576989,5.89000761509 l0.610366985202,4.700345397 8.01371152193e-05,5.91615617275 l-0.712217241526,3.50858926773 m-18.4656655788,-22.8810834885 l-0.705229118466,1.97373449802 -1.39748454094,4.3371245265 l-0.726316198707,4.25021409988 0.000228563749261,5.11164069176 l0.78448690474,3.15530925989 1.37402892113,2.68149793148 l1.72385707498,2.00629279017 m76.5742218796,-48.7697857394 l0.365808978677,-0.68329103291 0.670533850789,-0.505830571055 l1.7637360096,-0.89386343956 2.37906873226,-0.900367423892 l2.37890616059,-0.480132512748 2.88998067379,0.0017763399228 l1.70629933476,0.425686016679 1.35841935873,0.869172438979 l0.297412239015,-2.24747747183 0.95801204443,-2.95637488365 l1.63634851575,-1.45026624203 3.12706083059,-1.58998891711 l0.531120821834,0.995466783643 0.000380305282306,3.85709673166 l-1.20068490505,4.22864288092 m-17.8415846825,1.3103801012 l-2.23963439465,-3.73778790236 -1.61896124482,-2.48618423939 l-1.07326470315,-1.04405045509 -0.764893889427,0.496066808701 l-0.187357217073,1.08894921839 2.31754052038e-05,3.25990051031 l0.601165257394,2.69280672073 1.09374575317,2.27878823876 l0.648506656289,0.740744322538 1.28032594919,0.7418204844 l1.86554372311,0.481331422925 m6.12003326416,-3.48015278578 l-1.01274564862,0.00856228929479 -1.90786555409,2.07008868456 l-0.141316521913,1.83060675859 0.90261131525,0.609444789588 l1.57742530107,0.000319299542753 1.21446251869,-1.6010850668 l0.171288717538,-1.62041887641 -0.728035569191,-0.823600813746 l-1.0201445967,-0.0892606750131 m7.21668422222,-0.393067412078 l-1.340919137,0.755974054337 -0.430120714009,0.957741811872 l0.00017473981643,1.50407776237 0.914893746376,0.658990964293 l1.28754675388,0.000289283234451 0.734112784266,-0.938040167093 l0.14476579614,-0.979123264551 -0.3259376809,-1.11940838397 l-0.857600718737,-0.558478944004 -0.709885135293,3.49156789525e-05 m-4.8068934679,6.33588075638 l0.364495739341,1.84505030513 1.04955032468,0.479615181684 l1.15985535085,-2.08825275302 0.298274978995,-0.94207175076 m-9.92266774178,-5.57875037193 l-0.34500233829,0.959976986051 -0.000119082824312,1.96583613753 l0.794799029827,5.52202880383 1.17583476007,2.7861353755 l1.68833166361,2.18164369464 2.20914080739,1.51032358408 l2.95064091682,0.843422338367 2.80213564634,0.00104124708741 l1.20745740831,-0.315910018981 1.85952156782,-1.16229839623 l1.92600503564,-2.22008824348 1.50390654802,-3.17445009947 l0.718277022243,-2.89552330971 0.000300194769807,-4.55720365047 l-0.341198816895,-1.4667057991 m-15.0425779819,13.0835497379 l-1.12509094179,1.11406430602 -0.768896639347,1.37300029397 l-1.55436694622,4.70503956079 -0.703086331487,4.29866969585 l-6.96678171153e-05,7.21908986568 0.765171572566,4.29434418678 l1.22933506966,3.32067191601 0.666975826025,1.08689576387 l0.609171614051,0.429324731231 m15.5038607121,-28.9094138145 l1.47022008896,2.52573519945 1.334733814,3.90490919352 l0.701926797628,4.39227849245 0.173365883529,4.71166163683 l-0.459409207106,4.83028441668 -1.03492543101,4.02015537024 l-1.33750602603,3.20011883974 -1.47822082043,2.16356188059 m-12.9213988781,-1.12438701093 l0.502306073904,1.01250715554 1.99002802372,1.55829325318 l2.68418252468,0.936523005366 3.10035020113,0.329716354609 l3.85057032108,0.00067556531576 2.59898036718,-0.623071417212 l2.0935203135,-1.11225165427 m-14.751342535,0.843186229467 l-1.59002363682,2.56528586149 -1.41435980797,3.31390291452 l-0.316178463399,1.50403529406 m81.0148796492,-36.2718083454 l0.255143214017,-0.160263925791 0.486651808023,0.363270230591 l1.92715525627,-0.0562627194449 1.80265322328,-0.915572494268 l2.23476678133,-1.76137953997 1.7505286634,-2.04509794712 l0.830594003201,-1.6828763485 0.868425220251,-2.71631807089 l0.334026776254,-2.32290193439 -0.197577215731,-3.31005722284 l-1.4221996069,-3.77175986767 -0.935268253088,-0.985972136259 l-2.91150569916,-1.07955038548 -3.72467875481,0.00510648358613 l-1.7251548171,0.511640831828 -2.27387681603,1.3719022274 l-1.88508272171,1.98860257864 -1.2907537818,2.35132440925 l-0.831761136651,2.81399995089 -0.349406674504,4.32083964348 l0.464451052248,2.73723840714 1.12187661231,2.14685454965 l1.68372660875,1.64471924305 0.953826829791,0.478272400796 l1.57482326031,0.201958920807 m1.33507594466,-13.392803669 l0.122793894261,0.389127545059 0.33066496253,0.373010151088 l0.826517045498,0.115995369852 0.395799614489,-0.868428424001 l-0.771984085441,-0.55210005492 -0.76767295599,0.333177112043 l-0.264329332858,0.868151336908 0.830850154161,0.313078425825 l0.485131964087,-0.818384289742 -0.767491459846,-0.386996679008 l-0.564749650657,0.63341870904 m6.78031086922,-0.815134868026 l-0.347828492522,0.876214876771 0.891256481409,0.36249473691 l0.441693738103,-0.975653007627 -0.721409320831,-0.452776439488 l-0.713597983122,0.547587200999 -0.187494512647,0.776051133871 l0.850070565939,0.251927208155 0.485221743584,-0.871794223785 l-0.740377902985,-0.45177731663 -0.571795701981,0.533484742045 m-4.13641750813,5.61183989048 l0.902025178075,2.2348241508 0.861555412412,0.340890288353 l1.10830575228,-2.36069843173 0.463363490999,-1.11203297973 m-9.09177720547,-4.68006074429 l-0.452260002494,-1.11058831215 -0.000280914809991,-2.63474792242 l0.684647634625,-4.32220667601 1.06187552214,-0.0121736188885 l1.55234545469,2.76993781328 1.06071688235,1.67202144861 l0.756283774972,0.198633857071 1.69190376997,-1.66556939483 l2.9367557168,-2.44823113084 2.02618166804,-0.967530831695 l2.33423918486,-0.428324975073 0.729099214077,0.807840228081 l0.561944581568,3.93268048763 0.835301056504,2.02639311552 m-14.8945605755,15.8398914337 l-0.99113099277,1.40474155545 -0.634656324983,1.65419250727 l-0.474818013608,1.93219959736 -0.570796988904,5.49165844917 l1.84041141438e-05,7.7393335104 0.395247712731,2.81728416681 l1.05296932161,3.33057135344 1.43672376871,2.55536615849 l0.719798505306,0.752559453249 m13.9672362804,-30.4984784126 l1.34108766913,2.86050051451 0.721091479063,2.55770146847 l0.677094012499,4.2140224576 0.191766768694,4.70579117537 l0.000107749674498,6.84080123901 -0.622821301222,4.20461773872 l-1.04854613543,3.32081764936 -1.24692671001,2.20345288515 l-1.5630812943,1.65101513267 m-11.0795629025,-2.36064568162 l0.105440653861,0.963157638907 0.271608624607,2.46924459934 l0.206729844213,1.21271573007 0.847852379084,0.261583477259 l1.58367827535,-2.22354516387 1.13979950547,-0.834807828069 l0.946582704782,-0.0438532466069 1.5582343936,0.686879381537 l0.953217893839,0.206577535719 0.931834280491,-0.0485643418506 l1.33709251881,-0.925512686372 1.16564519703,-0.512552522123 l0.856421664357,-0.15209177509 m66.0527916244,-38.9094102759 l0.128449918702,0.348789133132 0.421820580959,1.19239084423 l1.77562832832,0.474928803742 1.60628825426,-1.70039013028 l0.640906840563,-1.23762585223 0.00034677250369,-1.16243623197 l-0.88096998632,-0.547312088311 -2.22845748067,0.00435356225353 l-0.952624976635,0.925927087665 m9.12382304668,-0.534780062735 l-0.412876009941,0.919905155897 -7.19102081348e-05,1.36705070734 l0.929899588227,0.594888366759 1.26876533031,0.00157546572154 l0.664773732424,-0.906232371926 0.00014986710994,-1.49523958564 l-0.796216577291,-0.763639584184 -1.27736225724,-0.000296838570648 m-4.7418898344,7.2471767664 l0.473432131112,2.28145703673 0.862591713667,0.650752782822 l1.39592319727,-2.36876219511 0.543804243207,-1.32111251354 m-7.59198367596,-10.5882298946 l-1.28554463387,-0.311819519848 -1.07387423515,0.18469016999 l-1.58500745893,0.836807861924 -1.66392743587,1.77471205592 l-1.28474354744,2.39517360926 -0.677593573928,2.57862269878 l-0.218796543777,2.90040403605 0.339844785631,2.87672013044 l1.02563686669,2.69963353872 1.64181441069,2.32380867004 l2.07294121385,1.65723577142 2.63728171587,1.06732957065 l3.22205454111,0.481537058949 3.90435129404,0.000498514855281 l3.11970323324,-0.777202546597 1.51106894016,-0.712083354592 l2.90938138962,-2.4188965559 1.06773816049,-1.43084019423 l1.22824274004,-2.64108777046 0.587591975927,-3.34052085876 l0.000134114998218,-3.46909344196 -0.54232802242,-2.55065888166 l-0.911551266909,-2.0180349052 -1.78651437163,-2.25062847137 l-1.9089487195,-1.43310919404 -1.97095602751,-0.858018621802 l-2.95586466789,-0.532901287079 -3.70586752892,0.00102685167803 l-2.92628765106,0.734440982342 -2.23184660077,1.19489811361 l-1.65606170893,1.53968781233 m-0.144994035363,7.97255277634 l-0.229733139277,-0.713122338057 -5.65711525269e-05,-1.42378464341 l-0.000180400638783,-1.90840855241 0.300122648478,-2.82263278961 l1.04008942842,-0.95634624362 0.977385491133,0.310889910907 l0.872984677553,0.816827863455 1.21208906174,2.0809841156 m10.2036261559,-1.30402982235 l0.918386057019,-2.22632810473 1.46373391151,-1.30819886923 l2.20877707005,-1.17353253067 0.646168664098,1.0515806824 l0.00019829503799,3.13083589077 -0.543281063437,3.29712957144 m-17.6754236221,15.0361335278 l-0.927474051714,0.369405932724 -1.10033005476,2.17806279659 l-1.06189884245,3.6080750823 -0.677304938436,4.37679290771 l-1.58606781042e-05,7.04042613506 0.723701268435,4.09570842981 l1.19514845312,3.19841921329 0.641271471977,1.02387115359 m18.6057269573,-28.2058930397 l1.43103018403,2.64119565487 1.18476562202,3.95830631256 l0.649638622999,4.83160853386 0.0612465012819,5.00225901604 l-0.613022223115,4.67847108841 -1.62994295359,5.61018943787 l-0.843169316649,1.80291458964 m-17.335755825,-18.8883829117 l-0.551653280854,2.62689471245 0.000139068260978,4.6315279603 l0.628684908152,4.07006204128 1.0981003195,3.16815525293 l1.4145244658,2.06917345524 1.76901072264,1.41048267484 l2.20980525017,0.822695344687 m10.1436543465,-20.7432603836 l0.513751357794,3.48776847124 0.641183927655,5.73627531528 l0.000155758443725,4.94627028704 -0.418497547507,2.24894121289 l-1.02319166064,2.432654351 -1.42280250788,1.99858158827 l-1.62174701691,1.25176861882 m65.8070527713,-45.2677013006 l-0.0387320108712,0.842187851667 0.330755971372,1.93510740995 l1.68930783868,0.637608990073 1.62707731128,-2.07247436047 l0.325529128313,-1.54596850276 -0.720019564033,-0.806828886271 l-1.53154373169,-0.00031232033507 -0.829039439559,0.893637910485 m9.15551483631,-0.69397315383 l-0.464184507728,0.939700007439 -2.61090849563e-05,1.63282215595 l0.928802788258,0.688790455461 0.982928574085,-0.111561492085 l0.639514625072,-0.967056527734 0.0532338116318,-0.956259220839 l-1.68458119035,-1.1319322139 -1.11965335906,0.247350111604 m-4.28792566061,6.69319272041 l0.469780117273,2.30161830783 0.835479050875,0.772121176124 l0.817239657044,-0.381794832647 1.17730312049,-2.1892811358 l0.447903238237,-0.945049077272 m-8.48783433437,-10.4153943062 l-0.913725420833,-0.234310086817 -1.41210198402,0.616349130869 l-1.10449939966,0.996300876141 -1.2696839869,1.97114750743 l-0.890455767512,2.59321987629 -0.346058495343,2.77154862881 l-9.10800190468e-05,4.65334534645 0.637828558683,2.9968380928 l1.28198549151,2.73047745228 1.79373428226,2.13170781732 l2.06555441022,1.53542220592 2.7763941884,1.01156622171 l3.4141048789,0.32471254468 3.7017044425,0.000407112966059 l1.51362970471,-0.295369941741 2.25960657001,-1.0172829777 l2.35663220286,-2.00939893723 0.996021106839,-1.36891454458 l1.26322627068,-2.78568208218 0.682869330049,-2.91294813156 l0.000137926217576,-4.30006802082 -1.06271073222,-3.2388523221 l-1.34164631367,-2.34184518456 -1.55856117606,-1.76098704338 l-1.79188683629,-1.32101610303 -1.99289441109,-0.926227048039 l-2.97258913517,-0.721770375967 -3.76978963614,0.00125470236526 l-3.11506330967,0.719406083226 -1.39381349087,0.64077347517 m-1.78357347846,9.04897868633 l-0.0958986673504,-0.34067992121 -1.0657073517e-05,-1.14458613098 l-0.34197293222,-1.44302591681 -0.471066720784,-0.891494452953 l-1.00086942315,-1.00259326398 -0.568423643708,-0.225383359939 l-0.582631677389,0.371909365058 -0.832953080535,1.96986526251 l-0.455002970994,2.4747005105 8.67736798682e-05,3.10782700777 l0.482295192778,2.15371116996 1.07529498637,2.03033000231 l1.54298767447,1.49776190519 1.85248523951,0.814863890409 m15.0773525238,-6.88832342625 l0.488417483866,-1.49174422026 1.31766811013,-2.16819792986 l1.27006098628,-1.78040206432 1.13520503044,-1.29017427564 l0.98349571228,-0.824641510844 0.868716090918,-0.325420536101 l0.723716393113,0.346511378884 0.525119751692,1.32262393832 l0.158646088094,2.46394768357 -0.431060418487,3.0101698637 l-1.03362545371,2.83411920071 -1.36725202203,2.38346979022 l-1.6055354476,1.88536718488 m-17.7729928493,5.11192858219 l-0.92586427927,0.407752543688 -0.995598509908,2.25402340293 l-1.29805997014,6.3085091114 -0.29554400593,4.86330956221 l3.90783043258e-05,7.02669382095 0.631466731429,3.74306797981 l0.413761846721,1.05484671891 m20.450232029,-27.3977351189 l1.07625812292,2.0488640666 0.699146091938,2.2526653111 l0.663453862071,4.04377520084 0.187368188053,4.88588571548 l-0.982499867678,12.5640368462 -0.471683740616,3.35438460112 m-17.6088750362,-22.4591994286 l-0.844858288765,3.10306608677 -1.21695153415,4.71195608377 l-0.644419789314,4.32683736086 -0.0863069854677,3.67924630642 l0.455862767994,2.59358435869 0.988987609744,2.06713810563 l1.41506701708,1.4243465662 m13.0474066734,-23.2254171371 l1.10435850918,2.57133245468 0.926896780729,4.02623951435 l0.364528782666,4.45781797171 0.000149165962284,5.3511017561 l-0.583061426878,3.52438777685 m65.1329095062,-40.3988146239 l-0.23240249604,1.35722890496 0.000387240179407,4.57308351994 l1.08603410423,1.21563114226 2.2227460146,-0.33593852073 l1.66654899716,-1.87666907907 0.925391465425,-2.03171879053 l0.306708347052,-1.87445700169 -0.669433251023,-1.11602827907 l-1.55646786094,-0.433924347162 -1.41280725598,0.385842062533 l-1.21394872665,1.10745817423 m8.91153693199,-1.56175136566 l-0.72776928544,1.74546957016 2.6712939416e-06,2.88468599319 l0.662155821919,1.69425114989 0.979962721467,0.544299520552 l1.0361173749,-0.221900232136 1.71647742391,-1.7046713829 l0.992072224617,-1.93247705698 0.355427525938,-1.78656235337 l-0.638289004564,-1.0643479228 -1.56867220998,-0.318618491292 l-1.86941146851,-0.00160531155416 m-5.4042506218,9.3306350708 l0.289632380009,2.54639148712 0.823352336884,0.423814244568 l1.68057605624,-2.42565438151 0.57804595679,-0.957984998822 m-8.25644612312,-11.5263175964 l-0.913319215178,-0.216445606202 -1.13094240427,0.360616706312 l-1.67251944542,1.28488987684 -1.64740905166,2.25791528821 l-1.0865521431,2.67931848764 -0.549693778157,3.02918642759 l-0.000158132770594,4.62266594172 0.624034553766,3.36276143789 l1.27699062228,3.32204222679 1.77191734314,2.70595252514 l2.19932347536,2.05609217286 1.78511098027,1.02857537568 l2.81803816557,0.813785344362 3.23254734278,0.000205018113775 l1.5739774704,-0.321445427835 2.4829864502,-1.13106638193 l2.27230668068,-1.53668567538 1.97702854872,-1.88594162464 l1.59733593464,-2.16673269868 1.2190669775,-2.40638136864 l0.761890932918,-2.51074492931 0.377034582198,-2.57613480091 l7.83273935667e-05,-3.60398560762 -0.515740960836,-2.9522895813 l-0.88726118207,-2.4142563343 -1.15109294653,-1.93153187633 l-1.45654782653,-1.55946567655 -1.71195477247,-1.16714052856 l-1.87727868557,-0.750919058919 -2.93921947479,-0.524648576975 l-3.72362673283,0.00117825744383 -1.762085706,0.339161939919 l-2.10970148444,0.953238978982 -1.69911324978,1.3919056952 m-2.77400553226,21.5300559998 l-1.0743637383,1.10988557339 -1.2985663116,2.54176199436 l-1.19021363556,3.61555576324 -0.950108021498,6.10525250435 l3.71103124053e-05,5.32173275948 0.357228592038,2.26882502437 l0.921393185854,2.34887585044 m24.3400597572,-24.9907851219 l1.1742991209,2.3805102706 0.693524107337,2.3347350955 l0.654000192881,4.12958800793 0.120220156386,4.74665671587 l-0.487029068172,4.49399679899 -0.970778912306,3.67238491774 m-19.7475469112,-14.8013651371 l-0.639924705029,3.13495755196 -0.92850022018,4.3190330267 l-0.908099412918,6.14962041378 0.000373172188119,3.31720203161 l0.580778047442,2.3132288456 m16.927485466,-21.3411855698 l0.655919313431,3.21853816509 1.3045732677,6.06433272362 l0.328846015036,4.35025930405 -0.22277424112,3.56600642204 l-0.710447132587,2.64488339424 m-14.3352353573,-20.0371718407 l0.235831663013,2.13166177273 -0.0659823045135,3.59896302223 l-0.997061356902,3.75242561102 -0.855812206864,2.49838113785 l-2.08055377007,4.39907640219 -1.71590387821,2.47176900506 m16.3312745094,-19.5413541794 l-0.407496318221,1.04063905776 -5.37276946488e-05,4.67178761959 l0.344082675874,2.66874134541 0.966719314456,3.33230733871 l1.4802005887,2.88348525763 1.78423717618,2.15225845575 l1.92858368158,1.4011618495 m61.9041353873,-40.238257362 l-0.43993383646,1.96159407496 0.000367270185961,6.06390714645 l1.00126631558,1.6160094738 1.72939032316,0.832197964191 l2.25773453712,0.000317660997098 2.07505390048,-0.656553730369 l1.79993391037,-1.12955644727 1.415669173,-1.42223015428 l1.00839309394,-1.64999589324 0.581773519516,-1.74575820565 l0.175640229136,-1.77672788501 -1.15298442543,-3.91434878111 l-1.50057226419,-1.27647548914 -2.14862376451,-0.628411397338 l-2.67528533936,0.00119444579468 -3.34719479084,1.27094849944 l-1.1646720022,0.85061699152 -1.06410190463,1.39448598027 m2.618945539,2.33465746045 l-0.360766984522,-0.542726665735 7.00377256635e-06,-1.28459319472 l0.15064236708,-1.08336351812 0.683266296983,-1.61897808313 l0.99574200809,-1.12008959055 1.24734610319,-0.620662346482 l1.31108239293,0.0277238781564 1.16500690579,0.829698219895 l0.717808306217,1.59780472517 0.10260171257,1.8129517138 l-0.594950392842,1.6461917758 -1.20492294431,1.2286863476 l-1.38203248382,0.578027926385 -1.41414299607,-0.035110602621 l-1.07234723866,-0.815206766129 -0.596315003932,-1.57058626413 l-0.0488018523902,-1.5567727387 m7.86698102951,0.99549151957 l-0.159285105765,-1.92120566964 0.947020053864,-1.83537319303 l1.21438965201,-1.21895216405 1.24434538186,-0.656602904201 l1.18808552623,-0.189044531435 1.1106581986,0.520046576858 l0.801651626825,1.37497082353 0.232924707234,1.85252085328 l-0.46061810106,1.88012570143 -0.689007043839,1.08636379242 l-1.26784384251,1.04117937386 -2.29747831821,0.788478329778 l-1.62483423948,-0.0998500455171 -1.16579867899,-0.828759819269 m-8.24317872524,3.33319634199 l-1.55507072806,1.30913391709 -1.00219398737,1.43137335777 l-1.80836781859,4.17593747377 -0.639928281307,2.36770689487 l-0.712640434504,5.33665060997 3.53960626853e-05,5.78116297722 l0.353915244341,2.65317410231 0.932344794273,3.09062987566 l1.38633623719,2.46097147465 0.798609256744,0.90357542038 l0.674446672201,0.352614633739 m16.197052002,-31.5294694901 l1.53438687325,2.42809101939 0.942284539342,2.32222169638 l0.960058644414,3.92266094685 0.445356816053,4.55334693193 l-1.54027679855e-05,6.2812680006 -0.717231631279,4.31406229734 l-1.15556292236,3.27282369137 -1.46291613579,2.60295689106 l-1.62188902497,1.73127800226 -1.83794692159,1.1421085149 l-2.30514511466,0.772083178163 m-10.3905022144,-2.00399622321 l0.273535307497,1.79283544421 1.11530892551,2.07995638251 l1.54806300998,1.53748884797 0.917168259621,0.442670099437 l1.43754169345,0.190931130201 2.03949227929,-0.355370566249 l2.17705443501,-1.10291816294 2.13393345475,-1.78677454591 l1.46791145205,-1.83900386095 1.08797498047,-2.16723456979 m-10.2356731892,4.2644482851 l-0.286373812705,1.15487113595 -3.32197691932e-05,3.42041939497 l-0.579470545053,2.14190676808 -0.780798941851,0.824412405491 m9.03659701347,-8.44960510731 l0.639406591654,3.88803809881 0.331341773272,1.99946418405 m-10.6440782547,0.873951688409 l-2.07435369492,1.08822509646 -1.10246896744,0.938409268856 m4.01637941599,-2.25758031011 l0.570740960538,1.83452799916 m9.90011632442,-2.75966137648 l-0.208433438092,1.53770089149 " fill="none" stroke="black" stroke-width="1" /></svg>