<?xml version="1.0" encoding="utf-8" ?>
<svg baseProfile="full" height="346.55" version="1.1" width="1246.0" xmlns="http://www.w3.org/2000/svg" xmlns:ev="http://www.w3.org/2001/xml-events" xmlns:xlink="http://www.w3.org/1999/xlink"><defs /><rect fill="white" height="346.55" width="1246.0" x="0" y="0" /><path d="M25,25 m0.0,0.0 m11.3,16.45 l2.8,0.0 15.9,-1.7 m-18.2,7.5 l0.7,1.4 2.1,11.2 m-1.7,-12.1 l13.8,-2.0 2.6,2.4 l-2.0,9.8 m-13.2,-4.9 l14.1,-1.6 m-13.1,7.1 l11.8,-1.3 m-16.8,8.2 l3.4,0.0 14.0,-2.0 l3.0,0.1 m-10.6,-30.1 l0.6,1.9 0.0,41.4 m18.3,-43.5 l0.6,1.6 -0.6,17.5 l-3.5,12.6 -7.8,9.2 m4.8,-23.3 l3.1,-0.4 10.3,-4.0 l1.9,1.8 -3.0,16.5 l-0.2,5.6 1.5,3.0 l3.8,0.9 4.8,-0.6 l1.0,-3.2 m23.15,-33.2 l0.0,2.0 -2.3,5.6 l-4.0,6.8 -5.3,6.6 m7.3,-8.2 l0.4,1.8 -0.1,25.1 m20.5,-41.9 l0.6,1.6 0.0,5.0 m-13.1,1.0 l26.9,-1.5 m-20.2,4.8 l-1.1,3.6 -4.9,7.2 m5.5,-6.3 l2.8,1.9 2.1,2.8 m8.8,-10.9 l-1.1,3.6 -4.9,7.3 m4.6,-5.4 l3.6,2.5 2.7,3.6 m-27.2,8.7 l3.0,0.2 18.6,-1.5 l11.1,-0.1 m-17.7,-4.0 l1.1,2.7 -0.1,17.1 m32.85,-39.4 l0.3,2.2 0.0,30.7 m0.2,-32.6 l8.4,-0.7 1.1,1.7 l-0.3,31.2 m-9.3,-21.9 l8.9,-0.6 m-8.8,10.5 l9.2,-0.8 m-9.5,11.6 l9.5,-0.4 m24.8,-36.3 l0.0,0.5 -3.1,1.5 l-14.3,3.8 m-0.4,2.0 l2.1,2.0 1.3,2.4 m4.7,-5.2 l3.2,4.2 m9.7,-6.3 l-1.3,3.6 -2.8,3.3 m-18.8,1.6 l-1.2,7.2 m1.5,-5.7 l25.6,-1.9 -0.7,3.9 m-22.1,3.5 l-1.6,5.6 m5.3,-6.5 l2.7,3.7 4.1,2.4 l6.3,0.6 1.1,-2.0 m-8.6,-5.9 l2.9,1.2 m4.1,-1.9 l3.8,2.4 2.9,3.1 m-17.4,2.8 l-1.3,4.0 -2.7,3.7 l-3.7,3.4 m7.1,-5.8 l8.6,-1.3 1.1,1.7 l-3.5,4.8 -6.3,5.5 l-8.0,4.2 m5.6,-12.2 l18.6,10.8 3.2,0.9 m19.45,-35.7 l1.8,0.1 12.1,-1.6 m-7.0,-9.1 l0.9,2.9 0.1,35.6 l-4.0,1.0 m-3.9,-14.5 l1.9,0.3 11.8,-6.6 m2.8,-17.4 l21.5,-1.3 m-17.1,2.3 l0.4,11.6 m0.2,-8.7 l11.0,-0.6 m-11.3,4.5 l11.6,-0.9 m-16.3,6.7 l1.2,0.6 20.2,-5.2 m-5.6,-9.2 l0.4,1.5 0.0,13.3 m-21.1,4.3 l13.7,-1.0 m-10.0,2.1 l0.2,12.9 m0.2,-9.3 l7.1,-0.7 m-7.2,4.9 l7.2,-0.7 m-11.0,7.3 l1.0,0.3 9.9,-4.1 m0.0,-11.5 l0.3,22.9 m4.9,-24.2 l14.2,-1.4 m-11.2,1.8 l0.3,15.4 m0.2,-10.8 l6.9,-0.8 m-7.0,5.7 l7.1,-0.8 m-10.9,7.6 l1.5,0.1 12.3,-4.0 m-3.1,-12.5 l0.3,23.8 m21.85,-29.4 l1.8,0.1 12.6,-1.9 m-6.7,-10.7 l0.9,2.9 0.1,35.6 l-4.0,1.0 m-4.9,-14.4 l3.1,0.5 10.3,-6.0 m3.7,-11.7 l2.1,0.6 18.2,-2.7 l1.6,2.5 -1.5,6.7 m-17.8,2.0 l19.9,-2.1 m-20.7,1.4 l0.0,2.3 -2.5,5.7 l1.1,1.1 22.7,-2.7 l1.6,1.7 -1.8,6.8 l-1.4,3.1 -3.0,-0.8 m-12.7,-34.0 l0.7,3.2 0.0,8.2 l-0.6,15.0 -2.7,9.0 l-5.9,7.3 m15.4,-44.2 l1.2,2.0 -0.1,42.7 m36.35,-42.6 l0.1,0.9 -3.0,5.8 m-3.8,0.2 l0.5,1.6 0.0,18.5 m-0.1,-19.0 l8.2,-1.1 1.2,2.0 l-0.1,30.7 -3.4,0.9 m-5.5,-26.6 l6.2,-0.4 m-6.0,6.4 l5.8,-0.4 m-9.4,8.2 l2.0,0.2 9.7,-4.5 m4.1,-5.5 l-0.2,2.3 -4.9,6.7 l-6.3,7.0 -6.8,5.6 m22.2,-34.8 l1.7,12.0 m-1.1,-11.4 l19.0,-1.2 1.3,1.5 l-2.2,10.5 m-17.4,-5.8 l14.0,-1.0 m-13.2,6.6 l16.6,-0.7 m-12.8,-15.2 l0.7,1.2 0.4,14.5 m6.4,-16.1 l0.5,1.2 -0.8,14.5 m-13.4,5.4 l20.8,-0.5 m-18.3,4.8 l1.6,8.2 m-0.7,-7.6 l13.6,-0.9 1.1,1.5 l-1.2,4.9 m-12.5,0.9 l13.6,-1.0 m-14.0,4.5 l2.9,5.2 m9.4,-7.6 l0.2,1.2 -1.0,2.9 l-2.0,3.2 m-16.6,1.8 l2.9,0.3 23.0,-2.1 l2.6,0.3 m25.25,-39.9 l2.4,1.5 1.6,1.7 m-8.8,4.3 l2.6,1.6 1.7,1.8 m-3.5,11.3 l2.2,0.0 4.2,-6.1 m13.5,-17.5 l0.6,0.8 -1.6,9.2 l-3.3,7.3 -4.8,5.5 m1.7,-14.4 l1.9,0.2 12.4,-3.9 l1.1,1.0 -1.9,8.9 l1.9,4.8 7.6,0.1 l1.8,-2.7 m-39.8,13.6 l3.1,0.3 21.8,-2.2 l11.4,-0.8 2.3,0.2 m-19.5,-4.0 l1.0,1.4 -0.1,18.3 l-3.2,0.9 m-0.8,-11.9 l-5.2,8.6 -3.2,3.1 m17.4,-10.9 l3.3,2.7 5.9,7.2 m43.2,-44.35 l3.1,2.0 1.9,2.9 m-16.5,3.1 l-2.6,8.1 m3.8,-7.6 l28.5,-2.0 2.3,1.9 l-2.5,1.9 m-25.0,6.2 l19.4,-1.3 m-20.7,7.8 l22.8,-1.3 m-27.4,8.8 l32.3,-1.8 m-17.0,-17.9 l0.6,3.3 -1.5,16.8 l-5.1,8.9 -8.9,5.8 m17.4,-12.7 l4.9,3.6 8.0,8.7 m32.8,-42.05 l5.1,0.2 21.8,-2.0 l2.6,1.9 -1.6,5.6 m-25.0,2.5 l26.2,-2.0 m-27.1,-5.5 l0.5,1.8 -1.0,13.5 l-2.9,11.3 -5.5,9.3 m12.0,-22.8 l2.9,0.1 18.9,-1.8 l4.2,0.1 m-19.7,3.8 l-1.9,4.7 -2.9,4.0 l-4.3,4.1 m8.9,-7.5 l4.9,-0.9 1.5,1.6 l-3.8,6.5 -5.5,6.2 l-7.0,4.8 m6.2,-13.2 l2.7,4.0 m22.2,-12.0 l-0.5,1.5 -2.8,2.8 l-4.7,3.0 m-2.4,-11.6 l0.6,2.2 0.0,18.7 l1.3,3.6 5.9,0.8 l4.9,-0.8 1.4,-4.2 m16.9,-36.65 l0.5,0.5 1.9,9.4 m-1.1,-8.8 l10.6,-1.7 1.2,1.0 l-1.6,6.8 m-8.7,1.6 l9.8,-1.4 m4.3,-8.5 l2.4,9.3 m-1.8,-8.6 l12.3,-1.8 1.1,1.0 l-1.9,7.2 m-9.8,0.9 l10.8,-0.9 m-26.9,6.7 l2.6,15.2 m-1.8,-14.1 l22.7,-2.5 2.7,1.4 l-2.6,13.2 m-21.2,-5.8 l22.5,-2.1 m-21.8,9.0 l20.5,-2.1 m-30.4,9.2 l3.0,0.2 35.7,-2.4 l2.7,0.2 m-22.4,-19.1 l0.5,1.4 0.1,30.8 m42.6,-38.8 l0.4,1.8 -0.1,24.2 m0.4,-25.3 l9.5,-1.2 1.2,1.3 l-0.2,23.9 m-10.8,-15.1 l10.8,-1.1 m-10.7,8.1 l10.6,-0.9 m-10.9,8.8 l10.9,-0.7 m-8.1,4.5 l0.0,1.4 -6.9,8.4 m11.9,-11.0 l2.6,3.9 1.6,3.7 m22.8,-40.0 l-0.6,1.1 -4.3,2.3 l-13.6,4.5 m9.6,0.8 l0.6,2.6 0.0,4.8 m-9.4,1.8 l1.6,0.3 16.8,-4.0 l0.9,2.4 -5.9,6.2 l-6.9,6.1 -7.7,5.7 m-0.9,0.1 l4.2,0.4 12.6,3.2 l8.7,1.6 m27.75,-40.2 l4.5,0.0 17.6,-1.8 l4.8,0.1 m-28.1,8.1 l4.5,5.9 1.2,3.3 m22.5,-12.3 l-0.1,1.6 -1.5,2.9 l-5.2,6.8 m-27.6,7.6 l5.6,0.2 21.9,-1.9 l15.4,-0.4 m-22.7,-20.0 l0.9,2.5 0.0,39.6 m35.4,-40.45 l1.5,0.2 15.5,-1.5 m-12.6,2.3 l0.5,1.9 0.0,16.1 m0.2,-12.6 l8.0,-0.9 m-7.9,6.4 l7.9,-1.0 m-12.2,9.4 l1.1,0.0 9.7,-3.9 m0.9,-16.3 l0.4,1.4 0.0,39.8 m-11.9,-17.7 l8.7,-0.5 m-4.3,1.3 l0.4,0.8 0.0,9.8 m-4.6,-5.3 l8.1,-0.8 m-9.2,8.1 l1.2,0.4 7.1,-3.1 m9.6,-32.3 l22.5,-1.8 m-12.9,-4.2 l0.6,1.5 0.0,9.3 m-9.6,1.3 l2.1,8.9 m-1.4,-8.4 l20.5,-2.7 1.0,1.4 l-1.9,7.9 m-13.1,-7.5 l0.6,7.3 m6.1,-8.0 l-0.6,7.2 m-10.9,1.6 l17.9,-2.0 m-19.1,8.2 l2.5,0.2 14.6,-2.0 l1.9,0.1 m-19.0,11.0 l-2.4,7.2 m5.6,-10.3 l3.0,5.3 4.4,4.0 l7.1,1.9 0.9,-4.3 m-8.5,-7.4 l3.1,1.6 m5.6,-3.9 l2.6,1.7 2.4,3.3 m21.85,-32.0 l3.0,0.4 29.9,-1.5 m-26.2,6.8 l23.6,-0.9 m-18.8,-2.0 l0.7,0.8 0.6,5.4 m10.2,-6.7 l0.2,1.0 -1.1,4.9 m-5.3,0.2 l0.1,1.0 -2.0,3.5 l-3.4,3.8 -5.0,3.3 m0.3,-8.2 l24.3,-1.2 m-17.4,5.1 l1.2,7.2 m-0.6,-6.6 l11.9,-1.3 1.0,0.9 l-1.5,5.1 m-10.7,0.7 l11.7,-0.7 m-24.7,-20.8 l-0.3,25.1 1.2,1.5 l22.1,-1.7 7.1,-0.2 l3.6,0.4 m-34.2,7.7 l-1.0,3.8 -2.3,4.4 m9.7,-10.5 l4.2,5.6 6.8,4.1 l10.7,1.6 1.7,-4.6 m-11.3,-7.3 l4.0,1.2 m7.9,-2.8 l3.0,1.5 2.7,3.0 m36.3,-36.2 l1.2,1.5 0.0,4.2 m-18.4,0.9 l-2.1,7.4 m2.2,-6.5 l35.3,-2.8 -0.2,4.3 m-23.1,-1.2 l0.0,0.8 -2.2,2.7 l-3.5,2.8 -4.8,2.7 m20.8,-10.7 l0.5,4.8 1.9,2.3 l9.5,-0.3 m-19.5,-0.2 l-0.5,1.8 -3.3,3.4 l-5.0,3.7 -6.7,3.2 m14.1,-7.3 l2.3,0.2 8.7,-1.4 l1.1,1.6 -5.5,4.7 l-8.9,5.2 -12.2,4.7 m11.2,-12.2 l4.8,3.5 m-10.1,-0.4 l3.7,3.8 m2.2,1.7 l-1.6,3.4 -3.4,3.1 m6.0,-4.3 l21.0,-1.6 m-34.1,8.5 l42.3,-2.0 m-22.1,-4.4 l0.6,1.3 -0.1,13.3 m-13.6,-5.0 l0.7,0.8 -1.0,5.1 l0.7,0.9 9.5,-1.5 l17.0,-1.3 m0.2,-6.4 l0.7,1.6 -1.0,6.9 m31.6,-44.3 l0.0,1.2 -1.4,3.3 l-2.9,4.2 -4.1,3.9 m7.6,-8.0 l8.3,-1.9 0.7,1.7 l-5.4,9.6 m-8.9,1.0 l1.8,15.0 m-1.3,-14.1 l14.9,-2.2 1.6,1.2 l-1.8,13.9 m-7.5,-13.3 l0.8,2.1 0.0,10.1 m-6.8,-5.4 l14.3,-2.2 m-14.1,8.8 l13.3,-1.8 m-15.6,7.6 l-1.6,7.9 m5.4,-8.2 l2.1,6.5 m2.4,-7.3 l1.8,2.7 1.2,3.1 m2.2,-7.7 l3.1,5.4 m10.6,-37.3 l-1.5,6.7 -2.5,6.0 l-3.5,6.1 m5.0,-7.3 l18.4,-2.1 m-14.8,2.0 l0.8,1.6 0.0,30.3 m0.2,-22.8 l11.5,-1.4 m-11.5,11.3 l13.3,-1.3 m22.05,-25.6 l2.1,0.2 21.9,-1.6 l12.5,-0.1 m-28.1,-4.3 l1.3,1.4 1.4,8.2 m14.4,-10.6 l0.6,1.8 -1.6,8.1 m-23.3,6.1 l33.2,-1.9 m-28.4,5.6 l3.0,4.1 m19.7,-6.2 l-1.5,3.4 -3.2,3.1 m-27.3,3.4 l3.0,0.3 26.3,-1.8 l13.4,-0.3 m-22.8,-17.0 l1.2,1.7 -0.1,37.5 m-0.6,-20.9 l-4.8,6.3 -6.9,6.2 l-7.7,4.6 m19.9,-16.3 l12.1,10.3 5.4,3.9 l2.8,1.1 m19.3,-28.8 l1.8,0.1 11.9,-1.6 m-6.2,-11.0 l0.9,2.9 0.1,35.6 l-4.0,1.0 m-5.7,-12.5 l3.1,-0.2 11.4,-7.4 m3.1,-17.2 l0.6,2.3 -0.1,39.6 m0.6,-40.5 l23.0,-1.8 1.8,2.0 l-0.1,39.3 m-23.0,-30.7 l20.0,-1.6 m-18.5,7.5 l1.3,10.3 m-0.6,-9.4 l6.9,-1.4 0.7,0.9 l-1.0,7.4 m-5.6,1.3 l6.1,-1.0 m-8.1,7.4 l1.4,0.0 7.4,-4.1 m1.6,-24.7 l1.6,13.9 2.1,10.7 l3.2,6.9 1.2,-2.6 m-1.0,-18.3 l0.0,1.9 -1.8,5.6 l-3.8,7.1 -5.3,6.5 m8.7,-32.6 l2.8,3.3 m-21.2,34.7 l25.0,-1.5 m25.9,-35.05 l0.6,1.7 0.1,34.1 m0.3,-34.9 l17.1,-1.6 2.6,2.6 l0.0,32.3 m-19.5,-21.9 l18.8,-1.3 m-18.7,12.7 l18.8,-1.2 m-29.5,14.1 l2.7,0.3 33.2,-1.7 l5.2,0.3 m31.35,-41.4 l-0.6,1.2 -8.1,4.6 m-1.8,0.2 l0.5,1.6 0.0,8.2 l2.0,1.0 8.9,-5.3 m-1.7,-3.6 l2.2,3.1 1.5,3.6 m6.1,-10.5 l2.6,0.0 11.3,-1.6 l1.4,1.4 -1.0,4.8 l-2.1,5.1 -3.1,0.0 m-3.7,-8.3 l-1.8,3.9 -5.5,6.0 m-11.2,3.6 l0.6,1.9 0.0,16.5 m0.5,-17.6 l17.9,-1.5 1.9,1.6 l0.0,16.8 m-19.8,-11.5 l19.1,-1.1 m-19.1,6.4 l19.1,-1.0 m-19.2,6.9 l19.1,-1.2 m-15.4,3.0 l-0.7,1.5 -2.5,1.9 l-7.6,4.2 m22.8,-7.4 l3.4,2.2 4.9,4.6 m-1171.15,16.35 l1.8,0.2 13.0,-1.5 l1.7,0.2 m-10.5,2.2 l0.1,1.3 -1.6,3.3 l-2.6,3.7 -3.8,3.7 m7.9,-8.0 l7.2,-1.3 1.4,1.2 l-3.1,5.2 -5.4,5.9 l-8.0,5.3 m5.1,-12.1 l3.1,4.3 m19.8,-16.8 l0.0,0.9 -2.0,2.6 l-3.4,3.1 -4.9,3.0 m11.1,-8.4 l11.4,7.6 2.2,0.6 m-11.9,-3.9 l-1.8,2.2 -7.5,3.9 m13.4,-2.4 l-2.2,2.1 -9.4,3.7 m15.2,-2.3 l0.0,0.6 -2.1,1.6 l-4.3,2.1 -6.0,1.9 m-5.0,-1.3 l-0.1,1.2 -4.4,3.9 l-6.9,4.3 -8.3,3.6 m19.8,-11.7 l18.5,8.3 3.5,0.7 m-28.0,-1.7 l13.4,-0.7 m-14.5,5.3 l16.2,-1.7 1.3,1.1 l-1.2,7.8 m-16.1,-3.8 l16.7,-1.3 m-16.8,5.6 l16.2,-1.2 m-17.2,-7.4 l0.6,1.2 0.1,14.6 l1.4,1.5 6.8,-3.2 m12.8,-8.2 l-0.5,1.5 -6.1,3.6 m-5.2,-1.0 l3.2,1.6 8.0,5.4 l3.4,1.4 m21.65,-40.1 l1.4,0.2 15.2,-1.6 m-12.9,2.6 l0.5,1.8 0.0,22.5 m0.4,-17.1 l4.8,-0.8 m-4.9,8.1 l5.0,-0.6 m-9.2,10.7 l1.5,0.3 10.7,-3.5 m-0.3,-22.7 l0.4,1.3 0.0,36.6 m9.3,-43.2 l0.0,1.3 -2.1,4.4 l-2.5,3.8 0.1,0.9 l4.8,1.6 m5.2,-8.3 l-0.1,1.4 -2.6,4.4 l-6.9,10.0 0.2,1.0 l8.8,-2.4 m-2.1,-2.9 l2.0,2.2 1.3,2.6 m8.3,-20.7 l0.0,1.3 -2.4,4.8 l-2.8,4.2 0.1,0.9 l4.8,1.6 m6.0,-9.1 l-0.1,1.4 -2.6,4.3 l-6.9,9.6 0.2,1.0 l9.6,-2.4 m-2.2,-3.1 l2.2,2.7 1.5,3.1 m-25.3,6.1 l0.5,1.6 -0.2,5.8 l0.9,0.6 6.0,-1.1 m0.0,-9.2 l0.5,1.8 -0.3,6.8 l-1.9,5.7 -5.0,5.1 m21.8,-18.8 l0.5,1.6 0.0,7.8 m-7.7,-1.3 l7.2,-0.5 m-8.0,-8.4 l0.5,1.6 0.0,18.6 m33.05,-39.85 l3.3,1.8 2.2,2.1 m-7.9,7.7 l3.2,1.6 2.4,2.3 m-6.4,19.5 l2.3,-0.7 4.7,-7.4 m5.6,-24.5 l3.3,0.1 21.9,-2.3 l3.9,0.1 m-26.8,11.1 l0.6,1.5 0.0,25.7 m0.5,-26.4 l22.5,-2.6 2.5,1.9 l-0.1,27.1 m-18.8,-35.7 l0.6,1.6 -0.1,7.9 l-1.5,6.3 -3.3,4.6 m12.2,-21.5 l0.7,2.1 0.0,11.6 l0.6,3.2 3.2,0.7 l4.6,-1.0 m-22.8,10.3 l23.8,-1.7 m-23.7,9.6 l23.7,-1.4 m19.2,-34.55 l0.5,1.5 0.0,13.7 l-1.2,13.0 -3.8,11.1 m5.4,-38.3 l6.7,-1.3 1.7,1.4 l0.0,33.9 -3.8,1.1 m-4.6,-24.8 l7.8,-1.0 m-7.9,11.0 l8.4,-0.9 m14.4,-23.5 l0.8,1.8 0.0,3.7 m-9.0,1.5 l19.6,-1.9 m-16.4,3.9 l2.6,4.2 m8.8,-5.9 l-2.1,5.7 m-15.2,3.0 l27.2,-3.1 m-23.2,7.5 l2.2,12.0 m-1.2,-11.4 l14.0,-2.3 2.1,2.1 l-1.5,9.6 m-13.7,-4.6 l14.5,-2.1 m-13.6,7.0 l12.5,-1.5 m-16.6,7.2 l-2.1,6.2 m6.3,-7.0 l3.7,4.3 4.7,2.3 l7.3,0.9 0.6,-3.8 m-8.6,-5.1 l3.0,0.9 m7.1,-3.4 l2.4,1.6 2.2,3.0 m14.9,-25.25 l1.7,0.1 12.9,-1.5 m-6.5,-10.0 l1.0,2.3 -0.1,40.2 m0.0,-30.5 l-5.0,12.7 -3.4,6.0 m10.1,-14.6 l3.9,5.3 m14.7,-22.9 l1.1,1.8 0.0,5.5 m-11.6,-0.1 l-1.5,7.7 m1.7,-6.1 l23.2,-2.4 -0.4,4.1 m-20.9,5.0 l20.1,-1.2 m-12.4,2.3 l-0.1,1.2 -6.5,5.1 l0.4,1.0 16.4,-2.6 m-3.9,-3.2 l4.2,3.2 2.7,3.7 m-21.0,8.5 l21.2,-1.6 m-11.5,-6.2 l0.8,1.8 0.0,14.0 m-14.0,0.7 l28.2,-0.8 m15.35,-25.6 l1.7,0.1 13.2,-2.3 m-6.7,-12.1 l1.3,2.8 -0.1,38.1 l-3.3,0.1 m3.2,-25.9 l-5.6,11.6 -3.9,5.7 m11.3,-13.2 l4.4,5.0 m2.1,-18.6 l1.8,0.2 13.3,-1.6 l7.9,-0.3 m-19.9,9.4 l0.7,1.7 1.5,17.2 m-1.1,-18.1 l15.0,-2.3 1.5,1.9 l-1.0,16.9 m-15.0,-8.3 l10.2,-1.0 m-9.1,9.3 l13.4,-1.0 m-20.7,9.0 l2.3,0.2 16.2,-1.4 l10.0,-0.2 m16.9,-29.65 l2.1,2.6 1.4,3.0 m11.9,-8.0 l-1.5,3.9 -2.2,3.4 m-13.1,4.7 l3.1,0.2 12.7,-2.2 m-6.8,-13.0 l0.5,1.8 0.0,40.4 m-0.1,-27.1 l-1.0,4.1 -2.1,4.4 l-6.2,9.9 m10.7,-14.1 l3.1,2.6 2.0,2.6 m4.6,-24.3 l0.8,1.8 1.4,9.1 m-1.2,-10.2 l15.6,-1.5 2.2,2.1 l-2.1,8.2 m-15.0,-4.3 l15.9,-1.2 m-15.1,5.8 l13.6,-1.2 m-19.6,6.4 l4.0,0.1 20.2,-1.8 l3.8,0.2 m-24.9,5.8 l0.8,1.7 1.3,8.3 m-1.1,-9.6 l16.8,-1.6 2.0,1.8 l-1.6,8.4 m-16.3,-4.5 l16.9,-1.3 m-16.0,5.8 l14.9,-0.9 m-8.5,-7.8 l0.5,1.8 0.0,17.5 m-8.6,-5.4 l2.8,0.3 14.9,-0.9 m-22.2,6.6 l4.7,0.2 18.7,-1.1 l4.3,0.3 m19.45,-34.6 l2.0,0.3 16.6,-2.3 l1.9,0.2 m-19.9,7.9 l2.2,10.5 m-1.2,-9.5 l17.6,-2.6 1.5,2.4 l-1.6,6.7 m-16.1,1.8 l17.1,-1.6 m-10.3,-22.7 l1.1,1.6 -0.1,44.2 m0.0,-22.2 l-3.1,5.9 -4.3,5.9 l-4.6,4.3 m13.7,-13.3 l3.2,2.0 4.8,5.8 m6.5,-26.9 l0.9,2.6 0.0,21.6 m9.5,-31.6 l0.9,2.6 -0.1,38.6 l-4.5,0.1 m35.7,-38.85 l0.0,0.5 -7.8,3.7 l-6.2,1.6 m1.5,1.7 l2.9,4.3 m3.0,-6.6 l2.5,3.5 m6.8,-3.8 l0.0,1.0 -3.9,3.5 l-5.0,3.5 -6.2,3.2 m10.2,-4.2 l3.3,3.9 1.5,5.6 l-1.3,6.2 -4.0,0.2 m0.2,-13.5 l-1.6,2.7 -3.3,2.5 l-4.6,2.3 m11.8,-3.4 l0.0,0.8 -2.3,2.5 l-3.8,3.0 -5.2,3.0 m20.5,-27.3 l10.1,-1.7 1.3,1.5 l-1.4,11.2 m-9.9,-5.0 l7.1,-1.3 m-6.9,6.7 l9.8,-1.2 m-11.3,-11.1 l0.9,1.4 0.1,24.5 l1.3,1.2 5.0,-4.1 m9.1,-12.7 l-0.3,1.8 -6.5,4.5 m-5.4,-3.1 l3.5,2.2 9.3,7.9 l3.5,1.5 m-38.2,9.1 l-0.8,3.8 -1.9,4.4 m9.0,-9.3 l4.5,5.1 7.3,3.6 l11.4,1.4 1.8,-4.8 m-14.9,-7.8 l3.3,1.2 m10.1,-3.4 l3.2,2.0 2.8,3.9 m23.15,-31.8 l0.7,2.3 -0.1,39.7 m0.0,-41.1 l34.6,-1.9 1.8,2.8 l-0.2,39.9 m-19.3,-38.8 l0.0,1.6 -2.4,4.7 l-4.0,5.8 -5.0,5.2 m11.2,-15.5 l13.0,12.6 2.2,1.0 m-16.6,-3.5 l2.9,1.9 1.9,2.2 m-11.5,3.6 l1.9,0.4 16.1,-2.0 l0.5,1.4 -9.1,8.6 m-4.8,-3.2 l5.8,5.1 2.0,3.2 m-20.6,3.6 l35.7,-0.7 m21.3,-31.7 l2.3,0.1 11.7,-1.5 l7.0,-0.2 m-11.3,-7.9 l0.8,1.6 0.0,16.1 m-8.4,1.0 l17.5,-1.3 m-16.4,9.1 l1.4,4.6 1.2,10.2 m-2.0,-14.2 l12.5,-1.6 1.5,2.0 l-1.9,11.2 m-9.9,0.9 l11.1,-0.8 m6.1,-26.6 l2.5,0.1 14.8,-2.1 l2.2,2.7 -1.1,8.4 l-1.9,8.7 -3.1,9.1 l-3.8,-0.3 m0.0,-38.9 l0.1,2.8 -1.6,13.0 l-4.0,14.2 -7.0,10.9 m41.8,-27.85 l2.6,0.0 11.6,-1.7 m-5.9,-10.9 l0.9,2.6 0.1,34.0 l-4.0,1.1 m-5.4,-10.7 l2.1,-0.1 11.4,-9.2 m3.7,-7.5 l3.4,0.0 14.6,-2.5 l3.3,0.0 m-12.4,-8.9 l0.9,2.2 0.0,17.0 m-8.3,1.8 l3.5,0.0 11.7,-2.8 l1.4,2.0 -5.1,8.7 l-7.0,7.9 -9.4,5.9 m3.8,-18.4 l4.6,2.7 14.9,12.2 l4.3,2.2 m37.25,-42.45 l3.1,3.3 m-20.0,4.1 l3.1,0.2 31.5,-2.0 l2.7,0.3 m-30.0,5.5 l2.4,7.6 m-1.4,-6.9 l20.2,-1.9 1.3,1.0 l-2.2,5.0 m-17.6,1.7 l18.5,-1.5 m-24.4,6.5 l3.0,0.2 21.1,-2.5 l0.8,1.8 -10.4,6.2 m-1.5,-1.6 l2.4,3.3 0.8,4.4 l-0.9,4.8 -3.9,-0.8 m-12.1,1.9 l-1.4,4.5 -1.9,3.0 m11.5,-6.6 l2.1,2.7 1.2,3.2 m8.8,-6.3 l2.4,2.6 1.6,3.0 m6.2,-6.2 l3.0,3.1 2.0,3.6 m23.5,-43.65 l2.5,2.5 1.7,2.9 m-10.8,5.4 l17.9,-1.5 m-15.0,7.3 l11.7,-1.0 m-11.2,7.8 l11.4,-0.9 m-12.0,8.1 l2.0,11.4 m-1.4,-10.7 l10.1,-1.5 1.2,1.2 l-1.8,8.3 m-8.1,1.4 l9.5,-1.2 m8.8,-38.6 l0.6,1.6 0.1,37.4 m-0.1,-37.9 l13.0,-1.3 2.0,2.3 l-0.1,35.9 m-14.5,-25.2 l9.2,-0.8 m-8.7,12.6 l8.6,-0.6 m-16.1,15.6 l29.0,-1.0 m26.1,-39.2 l3.0,2.5 2.0,2.9 m13.1,-7.2 l-1.4,4.2 -2.8,3.9 m-21.6,1.9 l37.4,-1.7 m-31.3,7.0 l0.4,1.7 0.0,13.4 m0.5,-14.4 l22.0,-2.2 2.0,1.4 l-0.1,13.8 m-16.6,-19.4 l0.4,1.3 -0.2,4.6 l-1.3,3.8 -3.2,2.7 m10.9,-12.1 l0.5,1.2 -0.1,5.8 l3.9,1.9 4.0,-0.4 m-18.0,5.6 l15.0,-0.7 m-19.0,5.5 l23.3,-1.0 m-33.4,7.8 l3.1,0.4 37.9,-2.4 l2.9,0.4 m-15.0,-4.0 l0.5,2.3 0.1,13.3 l-4.0,0.1 m-12.5,-7.8 l3.1,2.4 2.1,2.8 m40.5,-31.45 l1.7,0.1 13.7,-1.2 m-8.0,-10.8 l1.3,2.3 -0.1,39.7 m-0.3,-29.0 l-5.2,12.4 -3.6,6.1 m10.6,-14.6 l4.0,6.2 m23.4,-23.7 l-0.3,0.9 -3.6,2.2 l-12.0,4.0 m-2.2,-1.1 l0.4,2.1 0.0,12.6 l-1.6,12.4 -4.0,8.6 m12.4,-35.1 l0.8,2.1 0.0,28.6 m-6.5,1.2 l1.8,0.4 11.6,-3.9 m-2.6,-6.5 l3.1,7.0 0.8,3.6 m-2.0,-33.4 l5.0,21.7 3.9,10.4 l1.9,2.6 m19.2,-34.45 l0.5,1.7 -0.1,15.9 l-1.6,11.5 -3.1,8.7 m5.4,-37.3 l7.7,-1.4 1.8,1.4 l0.0,33.7 -4.3,0.6 m-5.1,-24.3 l8.9,-0.9 m-9.0,10.4 l9.3,-0.9 m4.3,-11.7 l3.7,0.1 17.2,-2.0 l3.0,0.1 m-14.1,-10.4 l0.8,2.0 0.0,18.7 m-8.5,1.6 l2.8,0.0 12.6,-2.4 l1.5,2.1 -5.4,9.1 l-7.1,7.1 -7.9,4.3 m3.7,-17.0 l16.8,15.1 4.5,2.9 m18.55,-38.25 l2.2,0.1 12.3,-1.3 m-14.1,15.2 l13.7,-0.6 m-14.5,18.2 l2.6,0.0 10.5,-7.2 m-6.3,-23.1 l0.8,1.8 0.0,24.9 m22.1,-30.8 l9.1,-1.3 1.8,0.2 m-12.8,-3.9 l0.9,2.7 0.0,7.2 m-10.0,0.2 l0.6,2.8 -0.4,13.0 l-2.4,10.7 -5.4,8.8 m8.3,-34.2 l22.4,-2.1 -0.2,4.6 m-19.1,5.1 l15.3,-1.5 m-9.4,-5.0 l0.7,1.4 0.0,6.6 l1.3,3.1 4.7,0.5 l6.8,-0.4 m-15.4,3.5 l-0.4,7.4 -2.3,5.8 l-4.7,4.6 m14.4,-17.9 l0.5,1.9 -0.1,9.7 l1.0,5.3 4.5,0.9 l4.5,-0.8 0.9,-4.2 m27.25,-36.7 l3.9,0.1 18.3,-1.9 l2.8,2.2 -3.6,13.8 l-2.8,5.8 -4.9,0.0 m-1.2,-18.9 l-0.3,1.7 -3.3,6.1 l-5.2,6.4 -7.5,5.8 m7.0,-14.2 l7.2,4.1 3.0,2.9 m-17.9,16.4 l-2.2,8.9 m8.0,-11.0 l5.0,7.1 7.5,4.6 l11.7,1.3 1.2,-3.6 m-16.7,-11.1 l3.5,2.2 m10.3,-3.4 l3.7,1.0 3.3,2.0 m19.35,-25.4 l0.5,2.2 -0.5,20.1 m0.7,-21.5 l14.0,-1.9 m-14.1,8.6 l11.7,-1.5 m-11.7,7.9 l12.5,-1.3 m-13.2,9.2 l12.8,-1.6 2.0,3.3 l-1.5,10.5 -1.4,4.1 l-3.2,-0.4 m-1.6,-37.7 l0.4,0.7 -0.1,19.7 m-8.6,8.0 l-0.8,7.1 m3.8,-8.3 l1.7,5.4 m1.9,-6.4 l1.9,4.5 m1.7,-5.4 l2.1,3.2 m7.4,-16.2 l-0.5,3.7 -1.2,3.3 m4.2,-19.1 l0.8,2.8 0.0,12.8 l-1.6,13.2 -5.6,9.9 m10.4,-26.0 l2.4,6.1 m2.1,-18.7 l0.7,1.9 0.0,35.1 m3.2,-24.6 l2.8,5.8 m1.9,-21.5 l1.1,2.0 -0.1,41.8 m-1171.3,14.0 l1.6,0.1 13.6,-1.5 l7.0,-0.1 m-28.2,7.5 l1.8,7.5 m-0.8,-6.9 l33.5,-3.3 2.2,1.8 l-1.6,5.8 m-23.6,-9.9 l0.6,1.2 0.8,8.4 m9.7,-10.8 l0.2,2.2 -1.0,7.7 m-19.6,2.2 l32.6,-2.4 m-29.6,5.5 l-0.2,1.2 -3.0,3.8 l-4.1,3.6 m9.5,-1.7 l-0.3,1.4 -2.1,2.9 l-7.4,7.1 m5.7,-3.4 l0.6,1.8 0.0,13.1 m13.6,-32.9 l-1.9,4.8 -3.4,4.5 m5.9,-5.1 l15.6,-1.5 m-17.0,5.7 l1.5,9.2 m-0.5,-8.5 l12.8,-1.7 1.8,1.6 l-1.4,7.7 m-12.6,-4.1 l12.9,-1.2 m-12.5,5.2 l11.9,-0.9 m-11.1,3.1 l-2.1,4.1 -5.0,5.5 m7.9,-6.9 l7.7,-1.6 1.1,1.3 l-3.4,4.3 -5.5,4.6 l-7.1,3.5 m5.0,-9.4 l15.6,7.4 4.5,1.5 m39.85,-44.4 l2.1,1.7 1.5,2.0 m-20.3,4.2 l3.5,0.2 32.2,-2.6 l3.2,0.2 m-36.9,2.6 l-0.8,12.1 -1.9,11.2 l-4.1,9.3 m9.6,-20.4 l13.8,-1.2 m-7.4,-7.8 l0.9,1.5 -0.1,29.3 l-3.5,0.5 m3.6,-22.1 l-2.9,6.3 -4.1,6.3 l-4.4,4.6 m12.9,-13.3 l2.5,2.5 2.1,3.5 m4.0,-17.1 l0.5,2.0 0.0,28.8 m0.3,-29.5 l12.0,-1.6 1.6,1.4 l-0.4,28.9 m-13.2,-20.0 l8.6,-0.8 m-8.7,9.4 l8.7,-0.9 m-8.8,11.6 l13.1,-0.9 m18.15,-30.8 l1.8,0.1 14.0,-2.2 m-7.2,-8.9 l0.9,3.0 -0.1,36.1 l-4.2,0.6 m-4.1,-13.0 l2.6,-0.2 9.9,-7.6 m3.7,-19.0 l0.8,1.1 1.4,7.3 m-1.5,-7.5 l22.8,-2.0 1.0,1.3 l-1.8,6.8 m-14.5,-6.4 l0.7,6.3 m6.7,-6.9 l-0.3,6.1 m-13.0,1.2 l20.6,-1.4 m-20.3,8.0 l19.4,-1.2 m-10.8,-4.4 l0.5,1.4 0.0,9.6 m-13.1,0.3 l2.6,0.3 23.4,-1.8 l2.4,0.3 m-22.1,2.3 l2.9,5.2 m10.4,-6.4 l-0.7,3.3 -1.4,3.0 m-15.7,2.0 l22.8,-1.8 2.2,0.2 m-24.0,7.8 l3.0,0.2 10.6,-1.1 l8.7,-0.1 m-12.5,-5.5 l0.5,1.5 0.0,14.9 m40.9,-40.1 l0.0,2.0 -2.1,5.7 l-3.7,7.0 -4.8,6.8 m7.5,-8.6 l0.4,1.8 -0.1,26.4 m19.4,-43.2 l0.9,1.4 0.0,6.3 m-12.9,0.2 l-1.3,7.1 m1.6,-6.1 l24.8,-2.5 0.3,4.8 m-26.0,9.3 l2.9,0.2 15.2,-1.9 l10.5,-0.3 m-14.7,1.9 l0.5,2.2 -0.1,18.4 l-4.0,-0.3 m41.75,-38.75 l3.7,2.2 2.4,2.6 m-7.7,9.0 l3.3,2.1 2.2,2.4 m-5.1,20.0 l2.2,-0.1 4.2,-8.6 m4.4,-28.8 l0.6,1.7 -0.1,38.5 m0.1,-39.4 l9.5,-1.4 1.2,0.8 l-0.6,12.9 m-9.9,-6.5 l6.3,-0.9 m-6.5,7.4 l9.5,-1.3 m7.5,-12.8 l0.3,13.6 m0.0,-12.9 l10.2,-1.8 1.2,0.7 l-0.2,39.2 -3.4,0.1 m-7.6,-32.7 l6.9,-0.9 m-6.8,7.2 l10.6,-1.3 m-20.0,7.8 l0.3,16.9 m0.2,-16.3 l9.3,-1.1 1.1,1.1 l-0.2,16.1 m-10.1,-8.6 l6.4,-0.8 m-6.6,9.1 l9.7,-1.0 m23.5,-26.2 l0.4,0.7 2.1,13.6 m-1.4,-13.3 l9.4,-1.6 1.1,1.3 l-1.9,10.4 m-7.3,1.3 l8.6,-1.0 m6.9,-17.9 l2.8,0.2 17.4,-1.4 l1.9,1.9 -1.2,8.9 m-24.5,-4.0 l2.6,0.2 26.9,-2.2 l2.5,0.3 m-28.8,6.9 l21.9,-1.1 m-11.2,-16.4 l1.0,1.7 -0.1,45.4 m-12.8,-25.6 l0.4,2.1 -0.2,8.9 l-1.6,8.6 -4.1,5.8 m31.3,-28.1 l0.9,1.6 0.0,26.2 m-20.2,-26.3 l0.5,1.6 0.0,4.0 m-6.4,0.4 l7.3,-0.5 m10.6,-6.4 l0.7,1.1 -0.2,3.4 l0.7,0.8 6.7,-0.6 m-20.3,6.6 l15.7,-1.0 m-21.9,6.4 l5.0,-0.7 1.8,1.0 l-0.2,8.8 m11.0,-10.3 l9.0,-0.2 m-7.0,0.6 l0.0,9.3 m45.4,-43.15 l-0.2,1.5 -3.5,5.8 m-4.5,1.2 l0.5,1.7 -0.1,20.9 m0.4,-21.7 l18.2,-2.3 2.1,2.3 l-2.6,8.5 m-17.6,0.4 l17.5,-1.6 m-17.4,8.1 l24.4,-2.1 m-25.0,8.6 l25.7,-2.8 3.1,3.0 l-2.5,9.0 -1.6,3.5 l-4.7,0.3 m-29.4,-8.1 l-0.7,8.0 m8.9,-8.1 l1.9,2.7 1.1,3.2 m5.0,-7.3 l1.9,2.5 1.3,2.9 m3.9,-6.3 l2.0,2.3 1.3,2.7 m36.0,-32.4 l2.8,0.1 15.2,-1.1 m-18.1,8.1 l0.7,1.4 1.4,9.2 m-0.9,-9.7 l14.3,-1.9 2.1,1.6 l-1.5,7.2 m-13.5,1.6 l14.5,-1.1 m-9.1,-22.8 l0.9,2.2 0.0,42.8 m-0.3,-20.3 l-4.5,8.1 -3.2,3.9 l-3.3,3.0 m13.5,-12.7 l3.3,2.8 3.0,3.7 m9.5,-32.6 l-0.1,2.5 -1.5,4.9 l-2.3,5.7 -3.0,5.5 m5.4,-6.8 l14.3,-1.4 m-5.4,2.9 l0.1,2.7 -4.0,11.6 l-6.1,9.2 -8.8,6.5 m7.0,-22.3 l15.0,19.6 3.4,2.6 m15.3,-38.85 l0.1,0.8 2.0,15.2 m-1.9,-15.6 l17.4,-2.2 1.9,1.4 l-2.5,15.2 m-15.1,-6.9 l12.4,-1.7 m-11.9,9.0 l14.5,-1.7 m-15.8,9.4 l17.7,-2.2 m-19.9,11.8 l1.4,0.9 3.8,-0.6 l14.1,-4.7 m-8.6,-28.7 l0.0,31.3 m13.0,-32.5 l2.0,1.0 13.4,-2.7 l1.0,2.0 -7.5,8.6 m-4.7,-2.1 l3.2,1.8 2.6,2.5 m-11.3,2.6 l3.0,0.5 16.0,-3.2 l1.5,2.3 -3.2,3.7 m-7.8,-0.5 l1.4,2.3 -0.4,20.5 l-2.3,1.9 -3.1,-2.4 m36.0,-39.8 l0.5,0.6 2.0,10.3 m-1.2,-9.8 l11.6,-1.7 1.2,1.1 l-1.8,7.8 m-9.6,1.5 l10.5,-1.2 m6.2,-9.4 l1.4,5.0 0.7,5.6 m-1.1,-10.1 l12.3,-1.4 1.3,1.1 l-2.0,8.3 m-10.4,0.8 l11.4,-0.7 m-23.9,8.0 l0.6,2.1 -0.7,10.6 l-3.3,8.2 -7.7,6.1 m12.0,-26.1 l12.0,-1.8 2.8,2.3 l-0.2,19.8 1.2,3.1 l5.7,1.1 6.3,-1.0 l0.9,-4.0 m26.85,-36.4 l0.0,1.2 -1.4,3.5 l-2.8,4.4 -4.0,4.1 m7.3,-6.5 l12.6,-1.5 m-9.8,2.4 l2.4,2.8 1.6,3.3 m13.6,-15.2 l-2.0,5.0 -3.4,4.5 m4.4,-2.9 l14.5,-1.7 m-6.9,2.5 l-1.8,3.8 -3.7,3.5 m-9.0,-2.7 l-0.1,1.8 -3.7,5.2 l-6.9,6.5 -10.0,6.1 m20.8,-17.2 l18.5,11.7 3.5,0.9 m-30.3,0.0 l19.3,-0.7 m-10.4,1.4 l0.6,1.2 0.1,14.9 m-10.2,-8.1 l22.6,-1.1 m-30.0,11.1 l34.5,-2.4 3.1,0.8 m25.15,-38.6 l3.2,0.1 27.0,-1.4 l5.3,0.4 m-25.6,-4.0 l0.5,1.2 0.9,8.2 m13.6,-10.9 l0.1,2.1 -1.6,7.4 m-21.6,1.7 l2.9,1.9 1.9,2.2 m-9.9,4.0 l3.2,0.1 12.0,-1.3 m-11.9,6.3 l10.4,-0.8 m-10.3,6.3 l10.7,-0.9 m-10.3,6.6 l1.9,9.7 m-0.9,-9.0 l7.5,-1.1 2.0,1.5 l-1.4,6.6 m-6.8,1.1 l7.7,-0.6 m5.7,-26.6 l12.7,-0.7 m-6.4,-4.6 l0.5,1.3 0.0,9.9 m-9.4,1.0 l19.5,-1.3 4.9,0.4 m-4.8,-10.6 l-0.6,1.8 -5.4,7.0 l-6.3,6.3 -7.6,5.7 m15.1,-7.6 l1.8,1.6 m-9.7,2.9 l0.5,1.3 0.0,13.1 m0.2,-14.0 l10.1,-1.0 1.6,1.6 l0.0,13.3 m-11.5,-7.6 l11.2,-0.6 m-11.2,7.4 l11.2,-0.5 m29.35,-32.45 l4.5,0.2 17.0,-1.8 l8.2,-0.5 4.2,0.3 m-17.6,-8.2 l0.9,2.4 0.0,17.0 m-13.6,1.3 l4.0,0.0 19.3,-1.8 l3.7,0.2 m-31.7,12.9 l-1.0,4.0 -2.3,4.6 m10.2,-10.5 l6.1,8.3 7.9,4.4 l10.9,1.0 1.7,-3.9 m-17.0,-13.6 l2.6,3.7 1.8,-0.8 m11.5,-3.1 l3.5,2.6 3.0,4.3 m13.5,-28.25 l0.4,1.1 1.7,11.4 m-1.3,-11.8 l17.8,-1.8 1.9,1.4 l-2.2,10.9 m-14.6,-7.7 l2.8,4.6 m9.3,-5.9 l-0.9,2.7 -1.9,2.4 m-10.7,4.2 l16.1,-1.4 m-16.8,8.5 l1.8,0.3 14.6,-1.4 m-17.8,10.1 l1.9,0.4 16.0,-5.3 m-8.5,-22.4 l0.4,0.9 0.0,24.1 m-8.7,7.4 l-1.4,7.0 m6.3,-8.8 l1.5,5.8 m4.1,-7.2 l1.2,2.4 0.6,2.9 m3.0,-7.4 l2.7,4.3 m12.4,-35.3 l0.9,2.1 0.0,37.3 m-8.6,-29.5 l0.4,1.6 -1.1,9.0 l0.7,0.7 12.1,-2.4 l5.6,-0.3 m0.1,-10.8 l0.6,2.4 -0.5,10.3 m-19.1,6.9 l0.4,1.6 -1.1,11.3 l0.4,1.0 6.8,-1.5 l12.7,-1.3 m0.0,-12.4 l0.7,2.4 -0.5,12.8 m22.2,-38.95 l0.6,1.0 1.8,14.8 m-2.1,-15.2 l25.8,-1.7 2.1,1.7 l-2.7,13.9 m-23.8,-7.0 l17.6,-1.3 m-16.9,7.9 l22.4,-1.1 m-24.0,14.1 l11.8,-1.4 m-13.1,-6.9 l0.7,1.8 -0.1,17.4 l2.2,0.9 8.7,-4.4 m6.9,-7.3 l11.4,-2.2 2.7,0.0 m-15.6,-7.8 l1.1,2.3 -0.1,14.6 l1.3,4.4 3.4,1.2 l4.2,0.0 5.0,-0.3 l3.4,-1.1 m22.65,-26.45 l3.0,0.0 11.7,-1.7 m-7.8,-12.0 l0.6,1.9 -0.1,26.0 m-7.6,3.3 l2.8,-0.1 9.4,-4.9 m4.0,-24.4 l26.6,-1.7 m-18.9,6.2 l2.0,10.5 m-1.1,-9.8 l13.1,-1.3 2.2,1.6 l-1.2,8.9 m-13.3,-4.9 l13.8,-0.9 m-13.0,6.0 l12.1,-1.1 m-7.7,2.5 l-0.2,1.8 -4.5,8.7 l0.3,1.5 7.0,1.9 l3.4,1.9 2.9,2.9 m-3.3,-14.8 l0.0,1.8 -1.9,4.5 l-3.9,4.5 -6.7,3.8 m-2.2,-12.7 l23.0,-1.2 m-26.6,-20.1 l0.6,2.1 0.0,33.2 l2.8,2.7 12.3,-0.8 l10.6,0.1 m17.5,-37.65 l1.1,0.1 13.9,-1.3 m-8.3,0.8 l1.2,1.5 0.0,5.9 m-11.5,1.4 l1.5,0.2 12.5,-1.7 l7.1,-0.3 m-15.4,3.0 l0.3,20.6 m0.6,-15.2 l5.8,-0.8 m-6.0,7.4 l5.8,-0.7 m-12.2,10.6 l1.3,0.7 15.0,-6.3 m-0.3,-18.0 l0.4,31.3 m11.2,-41.8 l-1.5,6.7 -2.3,6.1 l-3.1,5.9 m5.0,-6.6 l1.0,0.2 13.8,-2.4 m-6.6,4.3 l0.1,2.2 -3.5,9.5 l-4.8,7.8 -6.2,6.1 m3.7,-18.6 l12.1,11.8 6.4,5.3 l2.6,0.8 m21.75,-34.45 l2.1,4.5 m-8.8,2.4 l15.9,-1.1 m-12.8,3.9 l1.6,3.5 0.6,2.9 m7.1,-8.6 l0.2,1.1 -2.7,7.4 m-10.3,2.1 l15.5,-0.9 m-14.8,11.9 l1.3,0.4 13.2,-5.4 m-7.3,-4.5 l0.7,1.7 -0.1,5.9 l-1.7,7.6 -4.9,8.0 m27.3,-42.1 l-0.1,0.8 -2.1,2.2 l-7.0,3.9 m-1.6,0.4 l0.5,2.0 -0.1,11.3 l-2.1,10.5 -5.0,7.5 m11.4,-31.7 l0.6,2.1 0.0,26.5 m-5.8,1.8 l1.9,0.2 8.1,-4.6 m-1.2,-4.2 l2.4,9.3 m-2.5,-32.1 l4.2,21.0 3.3,10.1 l1.6,2.5 m1.4,-41.8 l2.4,4.5 m-8.0,2.4 l15.6,-0.8 m-12.5,3.6 l2.1,6.5 m7.2,-8.2 l0.2,1.1 -2.6,6.9 m-10.1,2.2 l17.0,-0.9 m-15.6,9.3 l14.7,-0.7 m-8.5,-7.2 l0.8,2.6 -0.1,23.2 m24.0,-42.55 l0.6,1.4 -0.2,18.5 l-0.7,6.0 -1.5,6.6 l-2.6,6.0 m5.3,-37.9 l6.4,-0.8 1.5,1.3 l-0.2,33.2 -2.7,2.2 m-4.8,-25.5 l7.4,-0.8 m-8.0,11.3 l7.7,-0.7 m16.4,-26.0 l0.0,1.6 -2.4,4.5 l-4.3,5.4 -6.1,5.6 m13.4,-15.6 l14.4,12.1 2.8,1.0 m-23.7,-1.3 l1.6,0.3 10.1,-1.1 l2.4,0.3 m-18.7,5.2 l0.9,1.2 1.5,8.7 m-1.5,-9.2 l21.9,-2.1 1.6,0.8 l-1.7,9.4 m-11.5,-8.4 l0.5,1.1 0.0,6.1 m-6.9,-5.5 l3.2,4.2 m10.8,-5.4 l-1.0,2.7 -2.1,2.5 m-12.8,2.3 l19.5,-1.3 m-18.8,5.0 l0.7,0.9 1.3,13.8 m-0.9,-14.1 l14.4,-1.4 1.4,1.4 l-1.1,13.5 m-13.8,-7.3 l13.9,-1.0 m-13.5,7.9 l12.8,-0.8 m26.35,-29.55 l3.2,0.2 13.4,-1.8 m-7.0,-11.2 l0.6,2.0 0.0,39.5 m-0.3,-28.9 l-3.0,8.1 -2.9,5.3 l-3.9,5.4 m11.9,-13.9 l4.7,5.3 m12.7,-24.6 l0.7,2.5 0.0,4.9 m-11.3,1.6 l19.7,-2.0 3.9,0.0 m-19.7,3.9 l2.6,4.0 1.1,3.4 m10.5,-9.1 l-1.3,5.0 -1.6,3.5 m-16.0,2.5 l4.4,0.1 18.1,-1.6 l4.1,0.3 m-25.7,10.9 l20.5,-1.5 3.8,0.1 m-13.5,-7.4 l0.6,2.2 0.0,21.4 m-1160.75,20.35 l3.1,0.2 19.7,-1.9 l1.9,1.8 -2.0,8.7 m-32.6,-2.7 l5.0,0.0 35.6,-2.4 l4.6,0.3 m-35.9,6.7 l24.6,-1.2 m-24.5,6.8 l2.6,0.2 22.2,-1.7 m-31.8,7.5 l4.0,0.2 21.9,-1.8 l13.8,-0.3 m-21.0,-26.4 l1.0,2.4 0.1,24.0 m-12.4,6.1 l0.7,1.4 1.9,12.7 m-1.3,-13.1 l23.3,-2.2 2.4,2.2 l-2.6,12.1 m-22.2,-6.9 l23.5,-1.4 m-22.5,7.4 l21.2,-1.0 m35.6,-40.1 l3.3,3.2 m-12.6,3.9 l22.1,-1.9 m-8.2,3.7 l-0.1,1.3 -2.0,2.8 l-5.2,4.9 m1.4,-6.5 l3.9,1.9 3.1,2.6 m-11.8,-4.7 l0.5,0.8 -1.3,8.3 l0.7,0.3 15.7,-2.4 m-0.3,-9.5 l0.5,0.8 -0.2,10.0 m-17.0,7.5 l0.3,16.9 m0.0,-16.0 l16.3,-2.8 1.1,1.0 l-0.8,13.5 -2.6,0.9 m-4.9,-19.6 l0.1,1.7 -2.5,10.7 m-3.0,2.2 l7.6,-3.6 m-0.6,-2.4 l3.0,4.6 m12.6,-32.6 l-0.2,2.9 -1.5,4.8 l-4.8,10.5 m3.5,-7.1 l0.6,2.1 -0.1,29.1 m11.8,-42.1 l-1.2,5.4 -1.7,4.2 m-8.7,1.5 l17.1,-2.1 m-7.8,2.0 l0.2,25.6 m-9.0,-16.7 l15.7,-1.6 m-16.1,9.4 l16.1,-1.4 m-16.1,11.8 l18.4,-1.7 m14.4,-21.4 l-1.1,5.4 -1.5,3.7 m9.1,-13.4 l2.8,2.4 1.9,2.8 m-7.4,-13.2 l1.0,1.7 -0.1,40.7 m10.9,-37.9 l21.2,-1.6 m-20.4,7.4 l19.5,-1.7 m-23.4,7.9 l2.7,0.1 21.5,-2.1 l3.7,0.2 m-15.9,-16.1 l1.2,1.6 0.2,15.1 m-7.9,6.2 l0.6,0.8 0.1,3.9 l-0.2,15.9 m0.8,-20.4 l12.6,-1.3 2.1,1.3 l-0.3,18.5 -2.8,0.9 m-11.5,-13.6 l14.5,-1.2 m-14.2,7.2 l14.2,-1.0 m25.85,-34.15 l0.4,2.1 0.0,35.9 m0.0,-37.4 l8.7,-1.2 1.4,1.3 l-0.3,36.6 m-9.6,-25.1 l9.7,-0.9 m-9.6,11.1 l9.4,-0.8 m-9.8,14.0 l9.8,-0.7 m5.9,-34.9 l2.6,0.1 14.5,-1.3 l7.9,0.0 m-15.4,0.9 l1.0,1.5 -0.1,19.6 m-9.9,-13.4 l0.7,2.1 -1.1,11.8 l1.4,1.0 6.9,-1.3 l14.0,-1.2 m-12.0,-8.9 l11.2,-1.9 2.3,1.9 l-0.9,8.6 -2.0,10.3 l-3.1,9.1 -5.1,-0.5 m36.85,-40.05 l3.1,0.2 19.3,-1.7 l12.4,-0.1 m-19.3,-4.2 l1.3,2.2 -0.1,7.7 m-11.2,0.4 l1.5,6.7 m-0.9,-5.8 l20.6,-2.2 1.5,1.3 l-1.5,4.0 m-19.4,1.9 l20.8,-1.6 m-12.3,1.4 l1.1,1.7 0.0,3.3 m-15.4,1.1 l2.4,0.2 26.8,-2.1 l2.7,0.2 m-25.6,3.7 l2.7,4.1 m14.1,-5.6 l0.0,0.9 -2.8,4.5 m-24.6,2.3 l3.4,0.2 33.6,-2.2 l3.8,0.2 m-36.7,8.8 l32.4,-1.5 m-17.7,-5.8 l0.7,1.5 0.0,17.3 m37.65,-27.4 l-1.1,5.4 -1.5,3.7 m9.1,-13.6 l2.8,2.4 1.9,2.8 m-7.1,-12.8 l0.7,2.1 -0.1,39.9 m11.1,-38.1 l21.6,-1.4 m-12.1,-4.0 l0.8,2.0 0.0,14.2 m-9.7,-4.9 l18.8,-1.4 m-22.7,7.6 l4.6,0.0 19.8,-1.9 l3.8,0.0 m-22.2,6.8 l0.7,1.9 0.0,19.3 m0.2,-20.8 l12.6,-1.5 1.9,1.5 l0.0,18.5 -2.8,0.9 m-11.4,-13.8 l13.7,-1.0 m-13.7,7.0 l13.6,-0.8 m29.65,-30.45 l2.2,0.0 15.1,-1.4 m-8.1,-7.4 l1.0,1.2 -0.1,23.0 l-3.0,0.8 m3.1,-16.9 l-2.9,5.4 -4.1,5.4 l-4.4,4.0 m13.0,-11.1 l2.8,1.8 2.4,2.8 m4.2,-14.2 l0.5,1.6 0.0,21.1 m0.4,-22.2 l12.8,-1.3 1.7,1.1 l-0.4,22.8 m-14.1,-15.7 l9.1,-0.7 m-9.0,7.8 l8.9,-0.7 m-8.5,8.4 l13.2,-0.7 m-32.4,10.3 l-0.8,3.6 -1.9,4.1 m9.1,-9.6 l4.9,6.6 8.0,4.4 l10.9,1.0 1.6,-3.4 m-15.8,-10.2 l4.4,2.4 m11.4,-2.0 l2.6,1.9 2.2,3.1 m20.2,-30.2 l0.5,2.3 -0.1,17.1 l-0.5,5.9 -1.3,6.1 l-2.8,6.5 m5.2,-37.3 l6.9,-0.9 1.7,1.3 l-0.2,32.5 -3.3,2.1 m-5.1,-25.0 l8.1,-0.6 m-8.2,10.8 l8.4,-0.8 m5.6,-21.0 l2.7,0.3 21.6,-1.1 m-21.0,5.5 l0.7,1.2 0.9,6.3 m-0.5,-6.9 l14.1,-1.5 1.6,1.4 l-1.6,5.0 m-13.2,1.0 l14.5,-0.7 m-19.5,5.0 l0.9,2.7 0.0,21.9 m0.0,-23.3 l21.1,-1.6 1.5,1.8 l-0.2,19.0 -3.7,0.7 m-11.2,-19.2 l-1.5,4.2 -3.8,3.2 m10.6,-7.9 l0.3,4.0 3.1,1.5 l3.5,-0.2 m-16.2,4.8 l1.8,0.4 11.0,-1.0 l1.6,0.2 m-7.8,1.6 l0.6,1.2 0.0,10.1 m35.95,-39.9 l0.8,1.6 0.0,9.9 m-8.6,0.1 l17.7,-0.5 m-15.7,6.8 l2.4,5.5 2.1,9.4 m7.9,-18.1 l0.1,2.7 -4.9,17.8 m-9.2,5.0 l1.9,0.3 13.9,-6.6 m14.5,-35.9 l1.3,3.0 0.0,8.7 m-10.3,1.0 l22.3,-0.8 m-19.9,6.6 l2.2,6.0 2.2,10.6 m11.4,-19.4 l0.1,2.2 -6.5,20.8 m-16.5,2.3 l2.9,0.2 22.7,-1.3 l3.1,0.5 m35.3,-39.7 l3.4,2.1 2.2,2.5 m-12.8,7.8 l3.1,0.2 6.8,-1.7 l2.7,2.1 -0.1,26.2 l-4.4,0.8 m-17.3,-16.5 l2.6,0.0 8.0,-2.3 l1.9,1.4 -3.0,5.8 l-3.9,5.3 -4.7,4.2 m34.2,-26.2 l-0.7,1.4 -3.1,2.3 l-8.0,3.8 m-0.1,0.8 l10.3,9.3 8.2,5.5 m30.7,-34.3 l0.0,1.9 -2.0,5.4 l-4.1,6.8 -5.9,6.3 m11.9,-13.0 l2.7,0.0 7.0,-1.4 l2.2,2.1 -5.4,10.5 l-9.2,11.2 -12.3,8.6 m20.4,-17.6 l15.6,15.0 4.3,3.0 m20.6,-35.55 l0.6,2.0 -0.1,19.5 m0.4,-21.0 l13.8,-1.2 m-7.4,1.4 l0.4,1.5 0.0,17.8 m-6.5,-12.4 l12.1,-1.2 m-11.8,7.4 l11.7,-1.2 m-12.5,9.2 l11.9,-2.0 2.0,2.3 l-1.6,10.7 -1.5,4.2 l-3.2,-0.4 m-10.2,-8.3 l-0.5,7.0 m3.5,-8.2 l1.5,5.9 m2.1,-6.9 l2.1,5.1 m1.3,-6.7 l2.3,4.4 m8.1,-25.7 l18.1,-1.4 m-9.8,-5.2 l-1.1,7.3 -2.3,4.9 l-3.2,3.6 m7.2,-7.3 l3.5,2.2 2.8,2.6 m-17.6,5.1 l3.8,0.0 19.1,-2.1 l3.1,0.1 m-23.3,7.8 l1.7,8.6 m-0.7,-8.1 l7.2,-0.9 1.5,1.5 l-1.0,5.1 m-6.5,1.3 l7.2,-0.9 m6.4,-12.6 l0.6,2.2 0.0,20.6 l-3.7,0.2 m33.6,-39.5 l2.9,1.7 1.9,2.0 m-7.0,8.0 l3.3,1.5 2.2,1.8 m-7.7,21.1 l2.2,-0.1 4.2,-8.6 m18.7,-29.5 l2.5,1.8 1.6,2.5 m-16.7,4.2 l2.6,0.2 25.0,-2.7 l2.3,0.3 m-22.9,5.1 l-0.3,2.5 -2.2,4.6 l-6.8,10.1 m5.9,-6.9 l0.6,1.2 -0.2,18.5 m12.7,-31.7 l0.1,1.4 -1.2,3.5 l-2.5,4.4 -3.7,4.7 m7.6,-9.9 l1.9,0.3 4.6,-1.3 l1.6,1.5 -3.9,8.2 l-5.3,7.8 -7.6,7.0 m7.0,-18.5 l2.7,1.7 1.8,1.9 m-9.1,2.6 l17.1,13.7 2.6,1.1 m13.85,-26.15 l0.6,1.3 1.4,11.6 m-1.2,-12.4 l11.7,-1.8 1.3,2.1 l-1.4,10.0 m-10.1,1.3 l10.7,-1.1 m-6.7,-22.7 l0.7,1.3 0.0,31.8 m-6.3,3.6 l1.5,0.1 11.6,-6.6 m-2.4,-3.5 l2.6,3.5 1.7,4.0 m2.7,-34.2 l3.9,5.0 m3.3,-6.9 l4.4,5.9 m9.2,-7.2 l-0.1,1.8 -3.8,6.8 m-15.4,5.3 l0.6,1.1 0.1,8.0 l-0.6,10.2 -1.7,5.9 l-2.5,4.0 m5.1,-27.9 l15.4,-2.6 1.8,1.8 l-0.2,9.1 0.7,8.2 l3.2,8.0 2.4,-1.4 m-23.6,-15.8 l16.7,-1.3 m-16.9,9.5 l16.9,-1.8 m-8.9,-14.1 l0.7,1.6 0.0,26.3 m58.45,-39.95 l4.0,-0.6 5.8,-0.3 m-11.6,-4.2 l0.9,2.6 0.0,6.9 m-14.1,0.0 l0.6,2.5 -0.9,12.2 l-2.8,11.2 -4.7,8.6 m8.6,-32.8 l28.6,-2.3 -0.2,4.6 m-24.4,5.5 l2.4,0.2 10.5,-2.0 l5.6,-0.7 1.9,0.2 m-12.2,-4.3 l0.6,1.4 0.0,5.9 l1.3,2.9 11.4,-0.1 m-14.3,4.3 l0.7,2.1 -0.1,13.5 m6.7,-16.3 l0.7,2.1 -0.1,13.5 m-16.6,-10.2 l2.3,3.2 1.5,3.7 m22.8,-10.0 l-1.6,4.9 -3.3,4.5 m-24.8,5.4 l3.1,0.2 19.2,-1.5 l11.8,0.0 m12.6,-33.3 l0.7,1.6 1.0,26.2 m-0.9,-26.8 l13.5,-1.3 2.1,2.4 l-1.2,24.7 m-7.5,-25.3 l0.5,1.6 0.0,22.3 m-6.7,-12.4 l13.7,-0.9 m-13.3,13.8 l13.2,-0.7 m14.9,-32.2 l0.0,1.9 -2.1,5.6 l-3.6,6.6 -5.4,5.9 m11.3,-17.2 l12.8,15.2 2.4,1.3 m-12.6,-5.2 l0.0,1.2 -2.2,3.5 l-4.1,4.3 -5.8,3.7 m16.9,-5.3 l0.0,1.3 -3.1,3.7 l-5.7,4.6 -7.9,4.4 m21.2,-6.8 l-0.1,1.5 -4.1,4.4 l-8.5,5.5 -11.9,5.1 m55.2,-40.75 l-0.4,2.6 -6.6,13.3 l-5.2,7.4 m8.1,-10.5 l0.6,1.8 0.0,27.0 m17.8,-44.9 l-0.3,1.6 -6.8,8.3 l0.7,1.3 18.1,-4.1 m-3.8,-3.4 l3.9,3.5 2.5,3.7 m-17.3,2.0 l-1.5,3.3 -5.6,5.9 m14.5,-11.8 l0.5,1.6 0.0,4.4 l0.9,2.0 4.1,0.5 l4.8,-1.2 m-16.2,4.1 l-2.1,5.0 -2.9,4.2 l-4.4,4.3 m10.7,-10.4 l3.0,0.1 5.9,-1.5 l1.3,1.8 -4.5,6.8 l-7.1,6.8 -8.2,4.9 m6.2,-14.3 l15.6,11.2 4.4,2.4 m25.55,-44.25 l3.0,0.1 11.2,-1.5 l1.1,0.8 -1.2,4.0 m-12.6,1.4 l13.5,-1.1 m-13.5,-3.5 l-0.3,6.3 -1.2,5.4 l-2.5,5.1 -2.2,2.9 m7.3,-10.1 l12.7,-0.4 m-10.4,-2.7 l0.7,1.2 0.1,5.2 m4.6,-7.0 l0.7,1.0 -0.4,5.7 m-10.1,1.1 l2.4,0.5 13.3,-1.3 m-10.9,3.3 l-2.2,2.7 -4.1,2.7 m11.2,-6.5 l2.3,2.0 1.5,2.3 m6.2,-20.4 l0.8,0.9 -0.7,4.6 l-2.4,3.2 m3.0,-8.4 l6.7,-0.9 1.2,0.7 l-0.4,4.0 1.2,2.2 l3.5,0.4 3.5,-3.3 m-17.3,7.3 l2.4,0.3 7.7,-1.5 l1.0,1.4 -3.4,3.9 l-4.1,2.8 -5.2,2.2 m1.8,-7.2 l15.6,7.3 2.4,0.6 m-29.9,1.5 l0.7,1.5 0.0,21.1 m0.0,-21.8 l16.7,-1.4 2.4,1.8 l-0.3,17.4 -3.5,2.0 m-14.7,-14.6 l18.4,-1.1 m-18.4,6.9 l17.9,-1.1 m25.1,-26.2 l1.2,0.1 16.5,-1.3 m-13.5,-3.4 l0.7,1.3 0.6,9.6 m6.9,-12.4 l0.4,1.1 -1.3,9.7 m-5.7,0.6 l6.9,-0.7 m-10.9,6.6 l1.4,9.1 m-0.9,-8.5 l12.5,-1.9 1.0,1.4 l-1.2,5.9 m-11.4,1.8 l12.3,-1.5 m-15.0,7.7 l1.7,0.2 15.4,-2.2 m-8.9,-17.7 l0.2,31.6 m16.8,-41.3 l-0.2,2.7 -1.7,4.8 l-5.5,10.6 m4.6,-5.6 l0.4,1.5 -0.1,26.0 m6.2,-38.9 l14.3,-1.2 m-15.7,8.6 l0.6,1.4 1.5,11.7 m-1.5,-12.3 l14.6,-1.8 0.9,2.3 l-1.8,10.9 m-12.9,-5.7 l10.1,-1.2 m-9.0,7.2 l11.8,-1.5 m-6.7,-16.7 l0.4,2.3 -0.2,14.4 l-2.4,11.2 -7.4,8.8 m1.9,-14.7 l14.7,12.1 2.3,1.0 m22.4,-35.65 l2.6,2.4 1.7,2.8 m-10.9,4.9 l16.8,-1.2 m-12.9,8.3 l10.7,-0.9 m-9.9,7.6 l9.8,-0.9 m-10.7,7.5 l2.1,10.1 m-1.2,-9.6 l9.6,-1.8 1.1,1.0 l-1.7,7.7 m-7.4,1.4 l8.2,-1.2 m12.4,-39.2 l3.6,2.6 2.4,3.1 m-12.5,7.3 l19.9,-2.0 2.1,0.2 m-20.6,14.3 l19.7,-1.1 m-22.8,15.3 l24.6,-1.2 3.5,0.4 m-16.5,-26.4 l1.0,2.2 0.1,23.4 m-1162.95,21.35 l0.0,1.9 -1.6,3.2 l-4.5,5.9 0.0,1.6 l5.2,2.5 m5.4,-7.9 l0.0,1.4 -3.3,4.8 l-8.1,9.3 0.7,1.2 l10.9,-2.7 m-2.3,-3.8 l2.0,2.9 1.3,3.3 m-6.4,0.3 l0.2,19.2 m-5.0,-14.0 l0.0,1.6 -4.4,8.0 m13.2,-11.1 l2.2,4.4 1.2,4.3 m13.7,-38.4 l0.7,1.6 0.0,4.2 m-10.6,-0.2 l-1.5,6.5 m1.7,-5.4 l21.4,-1.5 -0.1,4.1 m-18.6,1.7 l15.3,-0.6 m-8.2,1.0 l0.2,6.4 -2.2,0.0 m-4.4,-2.7 l-2.1,3.3 -3.3,2.6 m20.7,-7.0 l-0.3,1.4 -4.9,3.6 l-7.7,3.9 -9.8,3.6 m7.9,-2.4 l0.1,14.4 m0.7,-14.9 l13.5,-0.9 1.6,1.3 l-0.3,14.1 m-15.2,-10.2 l14.7,-0.6 m-14.0,5.3 l14.3,-0.8 m-14.5,5.6 l14.4,-0.9 m-11.4,3.3 l-0.5,1.2 -8.8,5.0 m17.8,-6.0 l4.7,3.0 2.9,2.9 m17.3,-32.1 l1.8,0.1 13.3,-1.2 m-6.7,-11.3 l1.0,2.3 -0.1,38.1 l-3.2,1.1 m3.1,-28.3 l-5.2,12.5 -3.6,6.2 m10.3,-13.5 l4.3,5.6 m5.3,-24.3 l2.4,2.1 1.6,2.5 m11.9,-6.2 l-1.4,3.8 -3.0,3.4 m-15.0,1.9 l24.2,-1.0 m-13.2,1.4 l0.8,1.1 0.1,10.0 m-9.3,-5.5 l19.2,-1.1 m-22.5,7.3 l27.5,-1.1 m-20.3,2.9 l0.0,1.6 -1.6,4.5 l-2.8,5.3 -4.1,5.2 m8.1,-9.7 l2.1,0.2 13.5,-1.8 l1.7,0.2 m-9.6,2.4 l0.4,1.3 -0.1,9.8 m-12.5,0.8 l2.2,0.2 20.6,-1.7 l2.9,0.4 m25.0,-39.3 l2.2,2.5 2.0,3.2 m-9.9,6.1 l2.2,0.3 12.0,-2.8 l1.2,1.4 -10.4,12.5 l-6.1,5.3 m9.4,-7.5 l0.9,1.7 0.0,19.5 m7.0,-26.2 l0.0,0.9 -2.8,4.8 m-2.6,0.9 l5.1,4.3 m5.0,-25.1 l0.4,2.5 0.0,36.3 m-0.1,-37.5 l16.8,-2.1 1.6,1.9 l-0.3,37.3 m-17.8,-20.1 l17.8,-1.7 m-17.9,20.8 l17.8,-0.8 m26.1,-38.35 l0.0,1.3 -2.7,4.2 l-3.5,4.0 -5.2,4.4 m1.5,-12.7 l8.5,16.8 -0.8,16.9 l-5.4,4.0 m4.5,-22.9 l0.0,1.2 -1.9,3.9 l-6.2,7.9 m15.8,-28.0 l2.8,0.3 23.2,-1.7 l2.5,0.3 m-27.3,1.5 l-0.1,14.4 -1.3,13.6 l-3.7,11.0 m8.9,-33.9 l2.7,5.7 m6.4,-8.1 l-1.0,4.2 -2.1,3.8 m-7.4,2.9 l12.7,-1.4 m-11.5,6.0 l0.5,1.3 -0.9,7.5 l0.5,1.1 9.4,-2.2 m0.4,-8.4 l0.5,1.7 -0.5,8.5 m-5.1,-13.2 l0.0,10.9 -1.8,7.6 l-4.8,6.5 m18.6,-36.4 l-0.6,5.2 -3.0,9.3 m3.9,-6.4 l1.2,0.2 6.2,-1.3 l0.3,1.7 -2.2,3.3 m-6.1,1.4 l0.3,1.8 -1.2,6.6 l-3.1,7.6 -5.4,7.0 m9.3,-15.8 l5.1,10.2 4.0,5.8 m15.7,-31.75 l0.4,1.0 1.3,13.3 m-1.0,-13.6 l11.8,-1.9 1.1,1.4 l-1.7,12.1 m-10.1,1.1 l10.9,-1.2 m-7.0,-21.9 l1.1,2.3 -0.1,31.6 m-7.3,2.5 l1.6,0.4 11.7,-5.7 m-1.9,-4.7 l1.9,4.2 1.3,4.9 m6.9,-37.7 l3.7,5.0 m-6.0,3.9 l8.9,-1.6 1.2,1.7 l-0.9,13.3 m-9.0,-6.6 l5.3,-0.8 m-5.4,8.0 l9.0,-1.3 m-9.8,-13.9 l0.6,1.9 0.0,31.4 l0.8,0.8 5.9,-6.6 m4.3,-10.4 l-1.3,2.6 -2.7,2.4 m-2.0,-0.8 l5.1,5.7 1.9,3.5 m2.4,-33.2 l1.4,0.2 6.8,-1.1 l1.6,2.4 -4.4,10.3 m0.0,0.0 l5.4,8.5 -0.3,8.0 l-4.1,0.4 m-5.3,-28.5 l0.2,40.0 m46.55,-46.15 l1.2,1.5 0.0,4.2 m-18.3,0.1 l-1.8,7.4 m1.9,-5.7 l35.6,-2.8 -0.2,4.8 m-22.8,-1.6 l0.0,0.8 -2.1,2.5 l-3.3,2.6 -4.4,2.5 m18.9,-9.6 l0.4,0.8 -0.1,3.4 l2.0,1.9 9.9,-0.3 m-28.1,5.4 l3.2,0.3 19.4,-1.2 l2.6,1.6 -2.8,9.5 m-30.0,-4.0 l41.7,-1.4 m-36.1,7.4 l2.6,0.2 22.6,-1.5 m-12.2,-10.8 l0.0,1.6 -3.7,8.1 l-5.9,8.1 -9.9,7.6 m11.6,-7.8 l0.8,1.3 1.5,9.7 m-1.6,-10.7 l20.9,-1.6 1.9,1.5 l-2.2,8.2 m-19.0,1.6 l20.1,-1.1 m33.15,-41.8 l2.5,1.9 2.4,2.5 m-12.2,7.2 l2.5,0.3 10.8,-3.0 l1.5,1.9 -8.7,11.5 l-5.4,5.9 m8.0,-8.0 l0.9,2.0 0.0,19.4 m1.4,-23.2 l5.7,5.9 m5.3,-19.3 l0.7,1.9 0.0,31.1 m0.5,-32.3 l12.4,-1.5 2.2,1.9 l0.0,30.2 m-14.5,-20.1 l14.0,-1.4 m-13.9,11.5 l13.8,-1.1 m-21.4,13.6 l29.7,-1.1 m12.4,-28.35 l0.4,0.7 2.3,13.6 m-1.6,-13.3 l10.1,-1.9 1.1,1.3 l-1.9,10.4 m-7.8,1.6 l9.1,-1.2 m6.9,-15.3 l15.7,-1.4 m-7.6,-6.3 l0.7,1.1 0.1,12.0 m-12.1,1.9 l2.5,0.2 24.9,-3.4 l2.3,0.2 m-6.4,-10.1 l-0.1,2.0 -6.7,7.8 l-7.9,7.5 -9.4,6.5 m23.8,-9.4 l-0.1,0.9 -2.9,1.7 l-7.1,3.0 m-1.0,-3.8 l0.4,0.5 0.1,4.1 l2.6,2.6 10.5,-0.3 l2.1,-2.4 m-21.8,7.1 l2.6,16.3 m-1.8,-15.4 l16.9,-1.8 1.1,1.2 l-2.0,15.5 m-15.1,-8.4 l16.1,-1.2 m-14.5,8.6 l13.1,-0.8 m24.5,-27.25 l2.0,4.4 1.3,4.4 m11.9,-11.5 l-0.3,1.9 -5.5,7.1 m-2.0,-17.9 l0.5,1.9 -0.4,21.6 l-2.3,11.7 -5.2,7.7 m8.9,-13.7 l2.1,2.6 3.0,6.6 m6.9,-37.8 l1.9,14.3 m-1.3,-13.7 l13.6,-1.3 1.4,1.2 l-1.3,13.1 m-12.9,-6.6 l13.7,-1.1 m-13.0,7.5 l12.0,-1.2 m-19.4,6.3 l3.4,0.2 22.4,-1.8 l3.1,0.2 m-22.0,1.3 l-1.4,4.5 -2.6,3.9 l-3.0,2.9 m6.7,-5.0 l17.0,-1.4 2.0,2.2 l-0.9,4.7 -2.2,6.7 l-3.9,6.3 -2.8,-1.2 m-5.3,-15.9 l-1.5,3.9 -2.5,3.2 l-3.4,2.7 m14.7,-10.6 l0.0,1.7 -2.3,4.4 l-4.2,5.1 -5.7,4.6 m42.45,-33.2 l0.7,1.6 2.5,13.5 m-2.3,-14.5 l24.8,-2.9 2.6,2.5 l-2.1,12.2 m-24.0,-5.2 l25.1,-2.6 m-23.8,9.3 l22.4,-2.3 m-15.0,-22.7 l4.2,19.6 6.6,13.9 l10.3,9.3 2.8,-3.2 m-8.1,-12.2 l-0.8,2.0 -4.9,4.2 l-9.0,5.1 -12.2,4.6 m56.6,-32.7 l0.4,0.8 1.8,15.3 m-1.1,-15.1 l10.2,-1.8 1.1,1.5 l-1.7,12.3 m-8.4,1.6 l9.2,-1.2 m6.6,-23.4 l1.8,13.9 m-0.9,-13.3 l14.8,-1.9 1.6,1.1 l-1.9,13.4 m-13.9,-6.6 l9.7,-1.2 m-8.7,7.4 l12.5,-1.0 m-10.5,2.3 l0.0,1.3 -1.8,3.8 l-3.0,4.3 -4.3,4.4 m9.1,-8.8 l1.7,0.1 14.7,-2.1 l1.8,2.0 -0.5,6.2 l-1.7,8.5 -3.3,8.0 l-2.8,-0.4 m-1.2,-17.6 l0.0,0.6 -2.2,1.4 l-8.5,3.6 m-1.5,-4.9 l0.5,1.2 0.0,6.2 l2.2,2.8 4.5,0.1 l4.9,-0.8 0.8,-2.7 m30.65,-27.1 l2.9,3.2 1.9,3.8 m8.4,-8.8 l-1.3,4.5 -2.8,4.6 m-10.4,2.9 l5.6,-0.1 11.0,-1.5 m-15.6,8.9 l5.5,-0.1 10.1,-1.5 m-17.1,11.5 l1.3,0.5 15.5,-7.0 m-7.2,-10.4 l0.3,1.5 -0.5,13.9 l-2.1,9.2 -4.0,6.7 m34.1,-46.7 l0.0,0.7 -2.2,2.1 l-4.5,2.7 -6.7,2.8 m-2.8,-0.1 l0.9,3.0 0.0,24.5 l1.9,0.6 7.5,-5.7 m-9.1,-11.8 l21.1,-2.2 m-12.7,-9.3 l0.7,1.9 1.6,11.7 l3.8,12.0 5.9,9.0 l1.7,-3.1 m-26.2,3.8 l2.2,0.3 17.0,-1.1 m34.05,-41.45 l0.0,0.6 -2.0,1.7 l-4.2,2.1 -5.8,2.0 m-1.2,8.2 l1.5,0.3 14.6,-1.2 m-7.2,-9.1 l0.4,1.4 0.0,35.2 m0.0,-26.1 l-2.6,6.1 -3.5,6.1 l-4.4,5.4 m11.9,-13.6 l4.4,5.9 m5.7,-7.8 l8.2,-1.0 m-9.2,-15.6 l0.6,2.3 -0.6,33.8 l1.3,1.9 7.6,-5.8 m14.4,-24.2 l-0.4,1.8 -9.4,6.8 m-1.5,-17.6 l0.7,2.5 -0.2,34.2 l1.4,2.6 3.8,0.5 l5.1,-1.7 0.6,-5.1 m23.4,-28.25 l0.7,1.9 0.0,27.5 m0.5,-15.3 l4.6,-0.8 m-10.9,-1.3 l0.6,1.9 0.0,18.2 m-3.0,0.9 l1.8,0.1 10.9,-5.8 m8.8,-18.6 l-2.0,3.2 -2.6,2.5 m-1.9,-16.7 l0.7,1.8 0.0,30.7 l3.2,3.7 3.2,-3.6 m7.0,-33.8 l-0.2,2.5 -1.7,5.1 l-5.3,11.0 m4.3,-7.1 l0.4,1.4 0.0,28.8 m11.6,-41.4 l-0.1,1.4 -3.2,8.0 m-8.1,1.4 l16.9,-1.8 m-9.2,1.7 l0.5,1.4 0.0,25.4 m-7.5,-18.7 l15.0,-1.1 m-15.0,10.1 l14.9,-1.2 m-15.1,11.9 l17.9,-1.2 m36.3,-42.35 l1.2,1.5 0.0,5.6 m-18.0,-0.5 l-1.7,7.9 m1.7,-5.9 l34.9,-2.5 0.5,4.2 m-26.8,2.2 l0.9,2.1 0.0,34.3 m-8.5,-32.3 l0.9,1.3 -1.0,6.8 l1.1,0.9 7.5,-1.0 m-11.9,7.0 l11.8,-1.1 m-7.1,1.7 l-0.2,5.7 -1.5,4.4 l-2.6,4.0 m18.4,-33.6 l1.9,0.4 12.2,-1.7 l1.1,1.0 -1.2,9.9 m-17.7,-4.1 l2.7,0.3 20.5,-2.1 l3.3,0.0 m-22.7,6.7 l15.3,-1.0 m-17.5,6.0 l-1.3,5.3 m2.3,-4.9 l20.3,-2.3 0.4,3.6 m-18.0,2.7 l1.9,0.1 9.9,-1.7 l1.1,1.1 -4.5,6.4 l-5.8,5.2 -6.7,3.5 m3.2,-12.0 l19.2,11.0 2.9,0.9 m17.9,-37.15 l1.2,0.0 17.2,-2.0 m-17.9,7.8 l0.6,0.7 2.1,12.1 m-1.7,-12.2 l15.3,-2.1 1.3,1.3 l-2.0,10.9 m-13.6,-5.0 l9.6,-1.2 m-9.0,6.9 l13.3,-1.8 m-17.2,9.1 l13.7,-1.7 6.5,-0.1 m-10.9,-30.4 l1.0,1.7 0.0,41.4 m17.6,-42.5 l2.4,1.7 1.9,2.8 m-11.8,3.9 l1.6,0.2 19.4,-2.3 l1.4,0.3 m-17.2,5.5 l0.0,2.0 -2.0,3.6 l-2.8,3.4 m13.5,-10.1 l3.9,3.1 2.8,3.4 m-5.7,0.3 l0.1,1.8 -4.0,8.7 l-6.0,7.7 -7.5,5.1 m5.8,-19.7 l4.3,3.6 13.6,14.1 l2.6,0.9 m17.75,-28.9 l1.8,0.1 11.6,-1.4 m-6.1,-10.7 l1.0,2.9 0.1,36.6 l-4.7,1.0 m-3.8,-13.1 l2.2,0.3 11.6,-7.2 m4.2,-18.7 l21.6,-1.1 m-22.7,6.4 l-1.9,8.9 m2.3,-7.6 l24.4,-1.5 0.0,4.3 m-13.8,-9.0 l0.7,1.6 -0.1,17.6 m-7.4,-9.4 l3.8,2.5 m-5.9,3.4 l4.8,2.7 m9.6,-9.3 l4.1,2.7 m-4.2,3.5 l4.9,2.7 m-21.0,5.7 l0.9,5.4 0.9,12.6 m-1.3,-17.0 l21.4,-1.9 2.5,1.4 l-2.3,16.7 m-11.0,-16.8 l0.7,1.8 0.0,13.3 m-10.5,-7.1 l22.1,-1.5 m-21.6,9.8 l20.0,-1.1 m41.05,-40.9 l3.1,3.6 m-18.7,3.5 l2.9,0.2 32.2,-2.2 l2.6,0.3 m-24.1,2.7 l0.4,1.3 -1.3,5.6 l-2.5,4.8 -4.2,4.2 m16.0,-17.0 l0.7,2.0 -0.1,10.0 l-3.3,0.1 m-13.5,-6.9 l0.0,0.8 -1.8,2.4 l-6.3,5.6 m30.3,-9.7 l4.3,3.1 2.9,3.5 m-29.6,8.5 l0.7,1.1 1.7,9.7 m-1.4,-9.7 l22.9,-2.2 1.5,1.7 l-2.7,7.4 m-20.0,1.7 l21.5,-1.8 m-12.6,-12.4 l0.7,1.1 0.0,20.3 m-14.2,2.0 l1.3,0.6 26.9,-4.9 m-3.4,-2.8 l5.9,5.2 1.6,2.7 m28.7,-39.6 l2.8,0.4 23.0,-1.8 m-13.3,-6.5 l1.0,2.3 0.0,12.3 m-11.7,0.8 l3.1,0.3 20.3,-1.9 m-30.5,8.7 l-2.5,8.8 m3.1,-7.6 l35.1,-3.2 2.8,2.5 l-3.4,3.5 m-23.2,1.3 l0.0,1.9 -1.3,5.9 l-2.7,5.8 -4.2,4.7 m17.7,-20.3 l0.7,2.3 -0.1,10.2 l0.5,5.2 2.0,2.1 l4.5,0.3 6.1,-0.9 l1.0,-4.1 m24.2,-35.2 l3.8,2.2 2.5,2.6 m-8.2,8.6 l3.7,2.1 2.5,2.5 m-4.3,19.0 l2.2,-0.1 4.7,-9.6 m4.7,-26.7 l2.5,0.2 14.9,-1.3 l9.5,0.0 m-20.4,4.3 l-1.4,2.7 -2.8,2.5 l-3.9,2.4 m20.8,-8.4 l5.1,2.7 3.4,3.1 m-26.1,2.3 l0.5,2.2 0.0,25.5 m0.0,-26.8 l20.9,-2.0 1.9,1.6 l0.0,23.6 -2.7,0.8 m-9.8,-34.7 l0.5,2.3 -0.1,34.3 m-4.0,-23.4 l-1.2,3.9 -2.6,3.5 m0.2,-5.1 l3.1,1.7 2.2,2.5 m-0.5,3.0 l-1.5,4.4 -3.2,4.0 m-0.1,-6.5 l3.1,2.3 2.2,3.4 m10.4,-19.5 l-1.5,4.5 -3.2,4.1 m0.4,-6.7 l3.2,2.1 2.2,3.1 m-0.3,3.3 l-1.6,4.9 -3.4,4.5 m1.2,-7.0 l4.7,5.0 " fill="none" stroke="black" stroke-width="1" /></svg>