<?xml version="1.0" encoding="UTF-8"?>
<svg width="530px" height="146px" viewBox="0 0 530 146" version="1.1" xmlns="http://www.w3.org/2000/svg" xmlns:xlink="http://www.w3.org/1999/xlink">
    <!-- Generator: Sketch 44 (41411) - http://www.bohemiancoding.com/sketch -->
    <title>Group 2</title>
    <desc>Created with Sketch.</desc>
    <defs></defs>
    <g id="Page-1" stroke="none" stroke-width="1" fill="none" fill-rule="evenodd">
        <g id="Group-2" transform="translate(1.000000, 0.000000)">
            <path d="M89.917968,15.6992187 L93.746093,15.6992187 L93.746093,27.9492187 L105.941406,27.9492187 L105.941406,31.7773437 L93.746093,31.7773437 L93.746093,44 L89.917968,44 L89.917968,31.7773437 L77.667968,31.7773437 L77.667968,27.9492187 L89.917968,27.9492187 L89.917968,15.6992187 Z M129.835937,13.2382812 C132.16927,10.3033854 134.921875,7.9427083 138.09375,6.15625 L138.613281,7.0585937 C135.678385,9.391927 133.582031,11.6614583 132.324218,13.8671875 C130.118489,17.7135416 129.015625,22.8359375 129.015625,29.234375 C129.015625,33.9739583 129.434895,37.8841145 130.273437,40.9648437 C131.75,46.360677 134.529947,50.398437 138.613281,53.078125 L137.902343,53.980468 C135.660156,52.904947 133.235677,50.799479 130.628906,47.6640625 C126.308593,42.46875 124.148437,36.5625 124.148437,29.9453125 C124.148437,23.6015625 126.04427,18.032552 129.835937,13.2382812 Z M240.40625,29.6171875 L254.160156,29.6171875 L254.160156,33.1171875 L240.40625,33.1171875 L240.40625,29.6171875 Z M369.734375,37.9296875 C369.023437,40.3541666 367.984375,42.641927 366.617187,44.7929687 C365.177083,47.0898437 363.253906,49.23177 360.847656,51.21875 C359.261718,52.53125 357.930989,53.451822 356.855468,53.980468 L356.335937,53.078125 C359.143229,50.945312 361.19401,48.766927 362.488281,46.5429687 C364.785156,42.6054687 365.933593,37.4010416 365.933593,30.9296875 C365.933593,25.6979166 365.404947,21.423177 364.347656,18.1054687 C362.871093,13.4205729 360.20052,9.7382812 356.335937,7.0585937 L357.046875,6.15625 C359.927083,7.7604166 362.60677,10.1848958 365.085937,13.4296875 C368.895833,18.4244791 370.800781,24.0208333 370.800781,30.21875 C370.800781,32.9348958 370.445312,35.5052083 369.734375,37.9296875 Z M431.4414,33.5820312 L431.4414,37.4101562 L403.16796,37.4101562 L403.16796,33.5820312 L431.4414,33.5820312 Z M431.4414,22.2890625 L431.4414,26.1171875 L403.16796,26.1171875 L403.16796,22.2890625 L431.4414,22.2890625 Z" id="Fill-3170" fill="#000000"></path>
            <g id="Group-3780">
                <path d="M25.6575028,21.6513968 L25.1938426,21.6513968" id="Stroke-3172" stroke="#000000"></path>
                <path d="M25.1938426,21.6513968 L21.4845635,22.5787171" id="Stroke-3174" stroke="#000000"></path>
                <path d="M21.4845635,22.5787171 L18.2389427,24.7424649" id="Stroke-3175" stroke="#000000"></path>
                <path d="M18.2389427,24.7424649 L14.3751081,29.379066" id="Stroke-3176" stroke="#000000"></path>
                <path d="M14.3751081,29.379066 L10.8203809,38.1886064" id="Stroke-3177" stroke="#000000"></path>
                <path d="M10.8203809,38.1886064 L11.5931474,45.9162737" id="Stroke-3178" stroke="#000000"></path>
                <path d="M11.5931474,45.9162737 L14.6842145,49.7801092" id="Stroke-3179" stroke="#000000"></path>
                <path d="M14.6842145,49.7801092 L19.9390286,52.7166244" id="Stroke-3180" stroke="#000000"></path>
                <path d="M19.9390286,52.7166244 L27.3575904,54.4167103" id="Stroke-3181" stroke="#000000"></path>
                <path d="M27.3575904,54.4167103 L33.848832,54.4167103" id="Stroke-3182" stroke="#000000"></path>
                <path d="M33.848832,54.4167103 L38.9490932,53.0257299" id="Stroke-3183" stroke="#000000"></path>
                <path d="M38.9490932,53.0257299 L42.5038195,50.7074294" id="Stroke-3184" stroke="#000000"></path>
                <path d="M42.5038195,50.7074294 L44.6675655,47.6163632" id="Stroke-3185" stroke="#000000"></path>
                <path d="M44.6675655,47.6163632 L45.9039949,43.5979731" id="Stroke-3186" stroke="#000000"></path>
                <path d="M45.9039949,43.5979731 L46.0585459,38.806821" id="Stroke-3187" stroke="#000000"></path>
                <path d="M46.0585459,38.806821 L44.9766747,33.7065598" id="Stroke-3188" stroke="#000000"></path>
                <path d="M44.9766747,33.7065598 L42.8129251,29.0699587" id="Stroke-3189" stroke="#000000"></path>
                <path d="M42.8129251,29.0699587 L39.7218589,25.3606778" id="Stroke-3190" stroke="#000000"></path>
                <path d="M39.7218589,25.3606778 L35.858027,22.7332698" id="Stroke-3191" stroke="#000000"></path>
                <path d="M35.858027,22.7332698 L31.5305314,21.3422895" id="Stroke-3192" stroke="#000000"></path>
                <path d="M31.5305314,21.3422895 L27.3575904,21.033184" id="Stroke-3193" stroke="#000000"></path>
                <path d="M27.3575904,21.033184 L23.8028623,21.8059496" id="Stroke-3194" stroke="#000000"></path>
                <path d="M14.0660008,29.2245114 L11.9022539,18.7148834" id="Stroke-3195" stroke="#000000"></path>
                <path d="M11.9022539,18.7148834 L9.27484692,6.19606083" id="Stroke-3196" stroke="#000000"></path>
                <path d="M9.27484692,6.19606083 L12.9841278,11.1417679" id="Stroke-3197" stroke="#000000"></path>
                <path d="M12.9841278,11.1417679 L20.0935832,20.5695239" id="Stroke-3198" stroke="#000000"></path>
                <path d="M20.0935832,20.5695239 L21.793669,22.2696097" id="Stroke-3199" stroke="#000000"></path>
                <path d="M34.9307068,22.5787171 L38.021773,15.4692626" id="Stroke-3200" stroke="#000000"></path>
                <path d="M38.021773,15.4692626 L43.7402453,4.03231348" id="Stroke-3201" stroke="#000000"></path>
                <path d="M43.7402453,4.03231348 L44.2039055,6.04150761" id="Stroke-3202" stroke="#000000"></path>
                <path d="M44.2039055,6.04150761 L43.7402453,17.9421159" id="Stroke-3203" stroke="#000000"></path>
                <path d="M43.7402453,17.9421159 L43.8947999,24.1242502" id="Stroke-3204" stroke="#000000"></path>
                <path d="M26.4302702,42.0524418 L27.3575904,43.9070823" id="Stroke-3205" stroke="#000000"></path>
                <path d="M27.3575904,43.9070823 L28.9031235,45.143508" id="Stroke-3206" stroke="#000000"></path>
                <path d="M28.9031235,45.143508 L30.2941038,45.143508" id="Stroke-3207" stroke="#000000"></path>
                <path d="M30.2941038,45.143508 L31.9941915,43.7525277" id="Stroke-3208" stroke="#000000"></path>
                <path d="M31.9941915,43.7525277 L32.9215118,41.5887817" id="Stroke-3209" stroke="#000000"></path>
                <path d="M32.9215118,41.5887817 L33.0760663,39.7341413" id="Stroke-3210" stroke="#000000"></path>
                <path d="M26.7393775,39.8886922 L17.1570679,38.4977119" id="Stroke-3211" stroke="#000000"></path>
                <path d="M17.1570679,38.4977119 L3.71092602,37.1067315" id="Stroke-3212" stroke="#000000"></path>
                <path d="M23.8028623,42.516102 L7.88386659,44.0616333" id="Stroke-3213" stroke="#000000"></path>
                <path d="M7.88386659,44.0616333 L0.310751923,45.6071682" id="Stroke-3214" stroke="#000000"></path>
                <path d="M24.7301825,45.143508 L15.6115348,48.852789" id="Stroke-3215" stroke="#000000"></path>
                <path d="M15.6115348,48.852789 L2.31994568,55.3440306" id="Stroke-3216" stroke="#000000"></path>
                <path d="M34.9307068,39.5795867 L41.8856048,38.1886064" id="Stroke-3217" stroke="#000000"></path>
                <path d="M41.8856048,38.1886064 L57.6500487,35.7157548" id="Stroke-3218" stroke="#000000"></path>
                <path d="M57.6500487,35.7157548 L63.9867357,34.3247745" id="Stroke-3219" stroke="#000000"></path>
                <path d="M35.5489178,42.8252075 L51.9315764,44.2161878" id="Stroke-3220" stroke="#000000"></path>
                <path d="M15.0141159,103.189383 L14.7825667,102.957834" id="Stroke-3221" stroke="#000000"></path>
                <path d="M14.7825667,102.957834 L12.6986252,102.726285" id="Stroke-3222" stroke="#000000"></path>
                <path d="M12.6986252,102.726285 L8.87806619,103.999801" id="Stroke-3223" stroke="#000000"></path>
                <path d="M8.87806619,103.999801 L3.8997618,107.936131" id="Stroke-3224" stroke="#000000"></path>
                <path d="M3.8997618,107.936131 L1.70004616,110.946272" id="Stroke-3225" stroke="#000000"></path>
                <path d="M1.70004616,110.946272 L0.542300921,113.840633" id="Stroke-3226" stroke="#000000"></path>
                <path d="M0.542300921,113.840633 L0.310751923,116.966545" id="Stroke-3227" stroke="#000000"></path>
                <path d="M0.310751923,116.966545 L0.77385006,118.703168" id="Stroke-3228" stroke="#000000"></path>
                <path d="M0.77385006,118.703168 L2.04736959,120.439784" id="Stroke-3229" stroke="#000000"></path>
                <path d="M2.04736959,120.439784 L4.82595836,122.060629" id="Stroke-3230" stroke="#000000"></path>
                <path d="M4.82595836,122.060629 L10.3831354,122.986825" id="Stroke-3231" stroke="#000000"></path>
                <path d="M10.3831354,122.986825 L16.1718603,122.986825" id="Stroke-3232" stroke="#000000"></path>
                <path d="M16.1718603,122.986825 L21.9605863,121.250203" id="Stroke-3233" stroke="#000000"></path>
                <path d="M21.9605863,121.250203 L24.7391755,119.16626" id="Stroke-3234" stroke="#000000"></path>
                <path d="M24.7391755,119.16626 L27.4019901,115.461479" id="Stroke-3235" stroke="#000000"></path>
                <path d="M27.4019901,115.461479 L28.5597345,111.409371" id="Stroke-3236" stroke="#000000"></path>
                <path d="M28.5597345,111.409371 L28.5597345,108.515008" id="Stroke-3237" stroke="#000000"></path>
                <path d="M28.5597345,108.515008 L27.9808614,106.662615" id="Stroke-3238" stroke="#000000"></path>
                <path d="M27.9808614,106.662615 L26.3600184,104.578671" id="Stroke-3239" stroke="#000000"></path>
                <path d="M26.3600184,104.578671 L23.9287531,102.957834" id="Stroke-3240" stroke="#000000"></path>
                <path d="M23.9287531,102.957834 L20.8028418,101.915859" id="Stroke-3241" stroke="#000000"></path>
                <path d="M20.8028418,101.915859 L16.0560857,101.452759" id="Stroke-3242" stroke="#000000"></path>
                <path d="M16.0560857,101.452759 L12.9301744,101.452759" id="Stroke-3243" stroke="#000000"></path>
                <path d="M10.1515862,109.441205 L9.10961545,110.714723" id="Stroke-3244" stroke="#000000"></path>
                <path d="M9.10961545,110.714723 L8.76229157,111.98824" id="Stroke-3245" stroke="#000000"></path>
                <path d="M8.76229157,111.98824 L8.76229157,113.145986" id="Stroke-3246" stroke="#000000"></path>
                <path d="M8.76229157,113.145986 L9.22539008,114.072183" id="Stroke-3247" stroke="#000000"></path>
                <path d="M9.22539008,114.072183 L10.1515862,114.766831" id="Stroke-3248" stroke="#000000"></path>
                <path d="M10.1515862,114.766831 L11.8882037,115.345701" id="Stroke-3249" stroke="#000000"></path>
                <path d="M11.8882037,115.345701 L14.0879198,115.345701" id="Stroke-3250" stroke="#000000"></path>
                <path d="M14.0879198,115.345701 L15.3614398,114.882609" id="Stroke-3251" stroke="#000000"></path>
                <path d="M15.3614398,114.882609 L16.7507335,113.840633" id="Stroke-3252" stroke="#000000"></path>
                <path d="M16.7507335,113.840633 L17.4453813,111.98824" id="Stroke-3253" stroke="#000000"></path>
                <path d="M17.4453813,111.98824 L17.4453813,110.8305" id="Stroke-3254" stroke="#000000"></path>
                <path d="M17.4453813,110.8305 L16.8665082,109.904304" id="Stroke-3255" stroke="#000000"></path>
                <path d="M16.8665082,109.904304 L15.4772144,108.978107" id="Stroke-3256" stroke="#000000"></path>
                <path d="M15.4772144,108.978107 L13.5090467,108.515008" id="Stroke-3257" stroke="#000000"></path>
                <path d="M13.5090467,108.515008 L11.3093315,108.515008" id="Stroke-3258" stroke="#000000"></path>
                <path d="M11.3093315,108.515008 L10.2673608,108.978107" id="Stroke-3259" stroke="#000000"></path>
                <path d="M11.1935569,111.177821 L11.4251062,112.798666" id="Stroke-3260" stroke="#000000"></path>
                <path d="M13.6248213,111.177821 L13.9721452,112.798666" id="Stroke-3261" stroke="#000000"></path>
                <path d="M8.29919397,105.620646 L7.83609546,106.083744" id="Stroke-3262" stroke="#000000"></path>
                <path d="M7.83609546,106.083744 L7.83609546,106.546843" id="Stroke-3263" stroke="#000000"></path>
                <path d="M7.83609546,106.546843 L8.29919397,107.125713" id="Stroke-3264" stroke="#000000"></path>
                <path d="M8.29919397,107.125713 L9.22539008,107.125713" id="Stroke-3265" stroke="#000000"></path>
                <path d="M9.22539008,107.125713 L9.57271304,106.662615" id="Stroke-3266" stroke="#000000"></path>
                <path d="M9.57271304,106.662615 L9.57271304,105.967967" id="Stroke-3267" stroke="#000000"></path>
                <path d="M9.57271304,105.967967 L9.10961545,105.736417" id="Stroke-3268" stroke="#000000"></path>
                <path d="M9.10961545,105.736417 L8.4149686,105.736417" id="Stroke-3269" stroke="#000000"></path>
                <path d="M18.2558018,105.852195 L17.7927051,106.546843" id="Stroke-3270" stroke="#000000"></path>
                <path d="M17.7927051,106.546843 L17.9084779,107.009942" id="Stroke-3271" stroke="#000000"></path>
                <path d="M17.9084779,107.009942 L18.3715764,107.241491" id="Stroke-3272" stroke="#000000"></path>
                <path d="M18.3715764,107.241491 L19.0662242,107.241491" id="Stroke-3273" stroke="#000000"></path>
                <path d="M19.0662242,107.241491 L19.4135481,106.778392" id="Stroke-3274" stroke="#000000"></path>
                <path d="M19.4135481,106.778392 L19.4135481,106.199516" id="Stroke-3275" stroke="#000000"></path>
                <path d="M19.4135481,106.199516 L18.6031257,105.852195" id="Stroke-3276" stroke="#000000"></path>
                <path d="M18.6031257,105.852195 L17.7927051,105.852195" id="Stroke-3277" stroke="#000000"></path>
                <path d="M4.47863447,103.884023 L3.78398762,102.378957" id="Stroke-3278" stroke="#000000"></path>
                <path d="M3.78398762,102.378957 L3.08934032,100.179242" id="Stroke-3279" stroke="#000000"></path>
                <path d="M3.08934032,100.179242 L3.08934032,98.6741763" id="Stroke-3280" stroke="#000000"></path>
                <path d="M3.08934032,98.6741763 L3.66821299,98.4426271" id="Stroke-3281" stroke="#000000"></path>
                <path d="M3.66821299,98.4426271 L4.71018372,98.4426271" id="Stroke-3282" stroke="#000000"></path>
                <path d="M4.71018372,98.4426271 L6.09947788,99.0214963" id="Stroke-3283" stroke="#000000"></path>
                <path d="M6.09947788,99.0214963 L7.83609546,100.526562" id="Stroke-3284" stroke="#000000"></path>
                <path d="M7.83609546,100.526562 L8.87806619,102.263185" id="Stroke-3285" stroke="#000000"></path>
                <path d="M21.2659403,101.915859 L23.3498818,99.4845947" id="Stroke-3286" stroke="#000000"></path>
                <path d="M23.3498818,99.4845947 L24.8549501,98.3268487" id="Stroke-3287" stroke="#000000"></path>
                <path d="M24.8549501,98.3268487 L26.2442438,97.8637502" id="Stroke-3288" stroke="#000000"></path>
                <path d="M26.2442438,97.8637502 L27.2862155,97.8637502" id="Stroke-3289" stroke="#000000"></path>
                <path d="M27.2862155,97.8637502 L27.7493122,98.3268487" id="Stroke-3290" stroke="#000000"></path>
                <path d="M27.7493122,98.3268487 L27.8650868,99.9476931" id="Stroke-3291" stroke="#000000"></path>
                <path d="M27.8650868,99.9476931 L27.4019901,102.031636" id="Stroke-3292" stroke="#000000"></path>
                <path d="M27.4019901,102.031636 L26.3600184,103.999801" id="Stroke-3293" stroke="#000000"></path>
                <path d="M27.5177647,109.325427 L31.2225491,108.167681" id="Stroke-3294" stroke="#000000"></path>
                <path d="M31.2225491,108.167681 L36.5481747,107.241491" id="Stroke-3295" stroke="#000000"></path>
                <path d="M36.5481747,107.241491 L42.6842262,106.778392" id="Stroke-3296" stroke="#000000"></path>
                <path d="M42.6842262,106.778392 L49.8622458,106.778392" id="Stroke-3297" stroke="#000000"></path>
                <path d="M49.8622458,106.778392 L53.335481,107.241491" id="Stroke-3298" stroke="#000000"></path>
                <path d="M53.335481,107.241491 L57.1560401,108.39923" id="Stroke-3299" stroke="#000000"></path>
                <path d="M57.1560401,108.39923 L60.1661767,110.020074" id="Stroke-3300" stroke="#000000"></path>
                <path d="M60.1661767,110.020074 L62.25012,111.98824" id="Stroke-3301" stroke="#000000"></path>
                <path d="M62.25012,111.98824 L63.5236372,114.187961" id="Stroke-3302" stroke="#000000"></path>
                <path d="M63.5236372,114.187961 L63.9867357,116.619225" id="Stroke-3303" stroke="#000000"></path>
                <path d="M63.9867357,116.619225 L63.9867357,119.050489" id="Stroke-3304" stroke="#000000"></path>
                <path d="M63.9867357,119.050489 L63.4078662,120.671333" id="Stroke-3305" stroke="#000000"></path>
                <path d="M63.4078662,120.671333 L61.7870214,122.75527" id="Stroke-3306" stroke="#000000"></path>
                <path d="M61.7870214,122.75527 L59.1242086,124.607663" id="Stroke-3307" stroke="#000000"></path>
                <path d="M59.1242086,124.607663 L55.3036496,126.112729" id="Stroke-3308" stroke="#000000"></path>
                <path d="M55.3036496,126.112729 L50.5568936,127.154712" id="Stroke-3309" stroke="#000000"></path>
                <path d="M50.5568936,127.154712 L43.0315501,127.733581" id="Stroke-3310" stroke="#000000"></path>
                <path d="M43.0315501,127.733581 L34.1169111,127.733581" id="Stroke-3311" stroke="#000000"></path>
                <path d="M34.1169111,127.733581 L27.1704408,126.575829" id="Stroke-3312" stroke="#000000"></path>
                <path d="M27.1704408,126.575829 L22.8867833,125.302318" id="Stroke-3313" stroke="#000000"></path>
                <path d="M22.8867833,125.302318 L19.9924194,123.797237" id="Stroke-3314" stroke="#000000"></path>
                <path d="M19.9924194,123.797237 L18.1400272,122.176399" id="Stroke-3315" stroke="#000000"></path>
                <path d="M23.581431,125.186532 L22.655234,130.049074" id="Stroke-3316" stroke="#000000"></path>
                <path d="M22.655234,130.049074 L22.655234,132.248782" id="Stroke-3317" stroke="#000000"></path>
                <path d="M22.655234,132.248782 L23.2341071,132.480337" id="Stroke-3318" stroke="#000000"></path>
                <path d="M23.2341071,132.480337 L24.3918515,132.480337" id="Stroke-3319" stroke="#000000"></path>
                <path d="M24.3918515,132.480337 L24.8549501,132.017239" id="Stroke-3320" stroke="#000000"></path>
                <path d="M24.8549501,132.017239 L25.7811453,129.47019" id="Stroke-3321" stroke="#000000"></path>
                <path d="M38.7478926,127.038927 L38.7478926,131.785683" id="Stroke-3322" stroke="#000000"></path>
                <path d="M38.7478926,131.785683 L39.3267657,132.017239" id="Stroke-3323" stroke="#000000"></path>
                <path d="M39.3267657,132.017239 L39.7898642,131.554141" id="Stroke-3324" stroke="#000000"></path>
                <path d="M299.401287,9.44704996 L298.372189,9.70432631" id="Stroke-3325" stroke="#000000"></path>
                <path d="M298.372189,9.70432631 L291.683007,12.2770933" id="Stroke-3326" stroke="#000000"></path>
                <path d="M291.683007,12.2770933 L287.052022,15.4930521" id="Stroke-3327" stroke="#000000"></path>
                <path d="M287.052022,15.4930521 L282.935602,20.7672244" id="Stroke-3328" stroke="#000000"></path>
                <path d="M282.935602,20.7672244 L279.719637,27.7136966" id="Stroke-3329" stroke="#000000"></path>
                <path d="M279.719637,27.7136966 L278.047335,34.6601669" id="Stroke-3330" stroke="#000000"></path>
                <path d="M278.047335,34.6601669 L277.918694,40.7061692" id="Stroke-3331" stroke="#000000"></path>
                <path d="M277.918694,40.7061692 L278.947791,46.1089814" id="Stroke-3332" stroke="#000000"></path>
                <path d="M278.947791,46.1089814 L281.520551,50.9972374" id="Stroke-3333" stroke="#000000"></path>
                <path d="M281.520551,50.9972374 L285.894284,55.4995815" id="Stroke-3334" stroke="#000000"></path>
                <path d="M285.894284,55.4995815 L292.454824,59.6160067" id="Stroke-3335" stroke="#000000"></path>
                <path d="M292.454824,59.6160067 L300.944949,62.8319637" id="Stroke-3336" stroke="#000000"></path>
                <path d="M300.944949,62.8319637 L310.464201,64.3756253" id="Stroke-3337" stroke="#000000"></path>
                <path d="M310.464201,64.3756253 L319.854783,64.2469917" id="Stroke-3338" stroke="#000000"></path>
                <path d="M319.854783,64.2469917 L327.959014,62.1887737" id="Stroke-3339" stroke="#000000"></path>
                <path d="M327.959014,62.1887737 L334.13366,58.458264" id="Stroke-3340" stroke="#000000"></path>
                <path d="M334.13366,58.458264 L338.378723,53.184089" id="Stroke-3341" stroke="#000000"></path>
                <path d="M338.378723,53.184089 L340.56556,46.4948968" id="Stroke-3342" stroke="#000000"></path>
                <path d="M340.56556,46.4948968 L340.694201,38.9052329" id="Stroke-3343" stroke="#000000"></path>
                <path d="M340.694201,38.9052329 L338.893258,31.1869318" id="Stroke-3344" stroke="#000000"></path>
                <path d="M338.893258,31.1869318 L335.420041,24.1118224" id="Stroke-3345" stroke="#000000"></path>
                <path d="M335.420041,24.1118224 L330.917696,18.3230964" id="Stroke-3346" stroke="#000000"></path>
                <path d="M330.917696,18.3230964 L325.386254,13.8207532" id="Stroke-3347" stroke="#000000"></path>
                <path d="M325.386254,13.8207532 L319.082966,10.6047944" id="Stroke-3348" stroke="#000000"></path>
                <path d="M319.082966,10.6047944 L312.522397,8.93249637" id="Stroke-3349" stroke="#000000"></path>
                <path d="M312.522397,8.93249637 L306.219138,8.67521912" id="Stroke-3350" stroke="#000000"></path>
                <path d="M306.219138,8.67521912 L300.816308,9.57568814" id="Stroke-3351" stroke="#000000"></path>
                <path d="M300.816308,9.57568814 L296.828528,11.247987" id="Stroke-3352" stroke="#000000"></path>
                <path d="M294.51305,27.5850575 L294.898943,28.6141647" id="Stroke-3353" stroke="#000000"></path>
                <path d="M294.898943,28.6141647 L295.413507,27.9709729" id="Stroke-3354" stroke="#000000"></path>
                <path d="M295.413507,27.9709729 L294.770302,27.5850575" id="Stroke-3355" stroke="#000000"></path>
                <path d="M320.240706,27.1991421 L319.983424,28.0996102" id="Stroke-3356" stroke="#000000"></path>
                <path d="M319.983424,28.0996102 L320.369347,27.3277811" id="Stroke-3357" stroke="#000000"></path>
                <path d="M320.369347,27.3277811 L319.468889,27.0705048" id="Stroke-3358" stroke="#000000"></path>
                <path d="M304.289554,37.2329339 L302.102717,37.2329339" id="Stroke-3359" stroke="#000000"></path>
                <path d="M302.102717,37.2329339 L299.78721,38.0047648" id="Stroke-3360" stroke="#000000"></path>
                <path d="M299.78721,38.0047648 L297.600373,39.5484228" id="Stroke-3361" stroke="#000000"></path>
                <path d="M297.600373,39.5484228 L295.799429,41.8639154" id="Stroke-3362" stroke="#000000"></path>
                <path d="M295.799429,41.8639154 L294.770302,44.5653197" id="Stroke-3363" stroke="#000000"></path>
                <path d="M294.770302,44.5653197 L294.770302,47.5240022" id="Stroke-3364" stroke="#000000"></path>
                <path d="M294.770302,47.5240022 L295.92807,50.3540474" id="Stroke-3365" stroke="#000000"></path>
                <path d="M295.92807,50.3540474 L298.50083,52.7981736" id="Stroke-3366" stroke="#000000"></path>
                <path d="M298.50083,52.7981736 L302.48861,54.7277507" id="Stroke-3367" stroke="#000000"></path>
                <path d="M302.48861,54.7277507 L307.376877,55.6282188" id="Stroke-3368" stroke="#000000"></path>
                <path d="M307.376877,55.6282188 L312.265144,55.2423034" id="Stroke-3369" stroke="#000000"></path>
                <path d="M312.265144,55.2423034 L316.638848,53.6986453" id="Stroke-3370" stroke="#000000"></path>
                <path d="M316.638848,53.6986453 L319.983424,51.3831528" id="Stroke-3371" stroke="#000000"></path>
                <path d="M319.983424,51.3831528 L322.29893,48.6817485" id="Stroke-3372" stroke="#000000"></path>
                <path d="M322.29893,48.6817485 L323.328029,45.723066" id="Stroke-3373" stroke="#000000"></path>
                <path d="M323.328029,45.723066 L323.070747,42.7643835" id="Stroke-3374" stroke="#000000"></path>
                <path d="M323.070747,42.7643835 L321.398444,40.0629792" id="Stroke-3375" stroke="#000000"></path>
                <path d="M321.398444,40.0629792 L318.568403,37.7474866" id="Stroke-3376" stroke="#000000"></path>
                <path d="M318.568403,37.7474866 L314.709263,36.0751877" id="Stroke-3377" stroke="#000000"></path>
                <path d="M314.709263,36.0751877 L310.464201,35.560635" id="Stroke-3378" stroke="#000000"></path>
                <path d="M310.464201,35.560635 L306.605032,36.0751877" id="Stroke-3379" stroke="#000000"></path>
                <path d="M306.605032,36.0751877 L303.64635,37.1042967" id="Stroke-3380" stroke="#000000"></path>
                <path d="M303.64635,37.1042967 L301.588154,38.5193175" id="Stroke-3381" stroke="#000000"></path>
                <path d="M302.745892,43.4075735 L302.48861,44.6939606" id="Stroke-3382" stroke="#000000"></path>
                <path d="M302.48861,44.6939606 L303.003174,45.8517032" id="Stroke-3383" stroke="#000000"></path>
                <path d="M303.003174,45.8517032 L304.032272,46.2376186" id="Stroke-3384" stroke="#000000"></path>
                <path d="M304.032272,46.2376186 L304.546836,45.2085133" id="Stroke-3385" stroke="#000000"></path>
                <path d="M304.546836,45.2085133 L304.160913,44.1794043" id="Stroke-3386" stroke="#000000"></path>
                <path d="M312.522397,43.1502989 L312.393756,44.5653197" id="Stroke-3387" stroke="#000000"></path>
                <path d="M312.393756,44.5653197 L313.422884,45.0798724" id="Stroke-3388" stroke="#000000"></path>
                <path d="M313.422884,45.0798724 L314.066059,43.9221298" id="Stroke-3389" stroke="#000000"></path>
                <path d="M314.066059,43.9221298 L313.808806,42.7643835" id="Stroke-3390" stroke="#000000"></path>
                <path d="M286.923381,15.6216903 L286.794741,12.019817" id="Stroke-3391" stroke="#000000"></path>
                <path d="M286.794741,12.019817 L287.309304,1.47147166" id="Stroke-3392" stroke="#000000"></path>
                <path d="M287.309304,1.47147166 L290.010706,4.68743036" id="Stroke-3393" stroke="#000000"></path>
                <path d="M290.010706,4.68743036 L292.840747,8.2893046" id="Stroke-3394" stroke="#000000"></path>
                <path d="M323.842593,10.6047944 L324.87169,8.2893046" id="Stroke-3395" stroke="#000000"></path>
                <path d="M324.87169,8.2893046 L327.573092,4.30151539" id="Stroke-3396" stroke="#000000"></path>
                <path d="M327.573092,4.30151539 L330.660415,0.699641523" id="Stroke-3397" stroke="#000000"></path>
                <path d="M330.660415,0.699641523 L331.303619,2.2433017" id="Stroke-3398" stroke="#000000"></path>
                <path d="M331.303619,2.2433017 L331.43226,11.1193479" id="Stroke-3399" stroke="#000000"></path>
                <path d="M331.43226,11.1193479 L331.946794,15.6216903" id="Stroke-3400" stroke="#000000"></path>
                <path d="M331.946794,15.6216903 L332.332718,17.0367129" id="Stroke-3401" stroke="#000000"></path>
                <path d="M292.892198,112.502919 L292.609204,112.502919" id="Stroke-3402" stroke="#000000"></path>
                <path d="M292.609204,112.502919 L289.779134,113.210429" id="Stroke-3403" stroke="#000000"></path>
                <path d="M289.779134,113.210429 L286.949093,115.191457" id="Stroke-3404" stroke="#000000"></path>
                <path d="M286.949093,115.191457 L285.39259,117.455499" id="Stroke-3405" stroke="#000000"></path>
                <path d="M285.39259,117.455499 L285.251079,120.002534" id="Stroke-3406" stroke="#000000"></path>
                <path d="M285.251079,120.002534 L286.949093,122.691079" id="Stroke-3407" stroke="#000000"></path>
                <path d="M286.949093,122.691079 L289.920645,124.672114" id="Stroke-3408" stroke="#000000"></path>
                <path d="M289.920645,124.672114 L292.326183,125.521121" id="Stroke-3409" stroke="#000000"></path>
                <path d="M292.326183,125.521121 L295.297736,125.521121" id="Stroke-3410" stroke="#000000"></path>
                <path d="M295.297736,125.521121 L297.420253,124.389107" id="Stroke-3411" stroke="#000000"></path>
                <path d="M297.420253,124.389107 L298.693791,122.549569" id="Stroke-3412" stroke="#000000"></path>
                <path d="M298.693791,122.549569 L299.542798,119.578031" id="Stroke-3413" stroke="#000000"></path>
                <path d="M299.542798,119.578031 L299.542798,116.606485" id="Stroke-3414" stroke="#000000"></path>
                <path d="M299.542798,116.606485 L298.976784,114.908457" id="Stroke-3415" stroke="#000000"></path>
                <path d="M298.976784,114.908457 L297.561763,113.068926" id="Stroke-3416" stroke="#000000"></path>
                <path d="M297.561763,113.068926 L295.580728,111.795409" id="Stroke-3417" stroke="#000000"></path>
                <path d="M295.580728,111.795409 L292.184672,111.087899" id="Stroke-3418" stroke="#000000"></path>
                <path d="M286.52459,113.493437 L284.119051,107.26734" id="Stroke-3419" stroke="#000000"></path>
                <path d="M284.119051,107.26734 L282.704031,102.173263" id="Stroke-3420" stroke="#000000"></path>
                <path d="M282.704031,102.173263 L285.109569,104.861801" id="Stroke-3421" stroke="#000000"></path>
                <path d="M285.109569,104.861801 L290.911162,110.804891" id="Stroke-3422" stroke="#000000"></path>
                <path d="M290.911162,110.804891 L293.033708,112.361416" id="Stroke-3423" stroke="#000000"></path>
                <path d="M295.439247,111.653906 L298.55228,106.842829" id="Stroke-3424" stroke="#000000"></path>
                <path d="M298.55228,106.842829 L301.523833,103.446781" id="Stroke-3425" stroke="#000000"></path>
                <path d="M301.523833,103.446781 L301.523833,110.097381" id="Stroke-3426" stroke="#000000"></path>
                <path d="M301.523833,110.097381 L300.533315,115.332961" id="Stroke-3427" stroke="#000000"></path>
                <path d="M289.637652,117.455499 L286.52459,118.021506" id="Stroke-3428" stroke="#000000"></path>
                <path d="M286.52459,118.021506 L277.46845,119.295023" id="Stroke-3429" stroke="#000000"></path>
                <path d="M289.637652,119.15352 L283.977569,121.276059" id="Stroke-3430" stroke="#000000"></path>
                <path d="M283.977569,121.276059 L277.46845,122.974086" id="Stroke-3431" stroke="#000000"></path>
                <path d="M290.486659,120.427044 L285.958575,123.540086" id="Stroke-3432" stroke="#000000"></path>
                <path d="M285.958575,123.540086 L282.845541,125.238113" id="Stroke-3433" stroke="#000000"></path>
                <path d="M296.571246,118.16301 L301.523833,118.021506" id="Stroke-3434" stroke="#000000"></path>
                <path d="M301.523833,118.021506 L306.617902,117.313996" id="Stroke-3435" stroke="#000000"></path>
                <path d="M296.429763,119.719534 L303.363357,120.285541" id="Stroke-3436" stroke="#000000"></path>
                <path d="M303.363357,120.285541 L308.032922,120.285541" id="Stroke-3437" stroke="#000000"></path>
                <path d="M295.86375,121.134555 L298.127777,121.842065" id="Stroke-3438" stroke="#000000"></path>
                <path d="M298.127777,121.842065 L302.37284,122.549569" id="Stroke-3439" stroke="#000000"></path>
                <path d="M302.37284,122.549569 L306.900923,122.974086" id="Stroke-3440" stroke="#000000"></path>
                <path d="M296.288253,119.719534 L298.835302,119.436527" id="Stroke-3441" stroke="#000000"></path>
                <path d="M298.835302,119.436527 L302.797343,118.44601" id="Stroke-3442" stroke="#000000"></path>
                <path d="M302.797343,118.44601 L316.664558,115.757472" id="Stroke-3443" stroke="#000000"></path>
                <path d="M316.664558,115.757472 L329.258264,114.34245" id="Stroke-3444" stroke="#000000"></path>
                <path d="M329.258264,114.34245 L333.786319,114.34245" id="Stroke-3445" stroke="#000000"></path>
                <path d="M333.786319,114.34245 L336.61636,114.766954" id="Stroke-3446" stroke="#000000"></path>
                <path d="M336.61636,114.766954 L338.597395,115.615968" id="Stroke-3447" stroke="#000000"></path>
                <path d="M338.597395,115.615968 L340.012416,116.747982" id="Stroke-3448" stroke="#000000"></path>
                <path d="M340.012416,116.747982 L341.002933,118.587513" id="Stroke-3449" stroke="#000000"></path>
                <path d="M341.002933,118.587513 L341.144444,120.851548" id="Stroke-3450" stroke="#000000"></path>
                <path d="M341.144444,120.851548 L340.436919,122.408072" id="Stroke-3451" stroke="#000000"></path>
                <path d="M340.436919,122.408072 L338.455913,124.247597" id="Stroke-3452" stroke="#000000"></path>
                <path d="M338.455913,124.247597 L335.059857,125.945625" id="Stroke-3453" stroke="#000000"></path>
                <path d="M335.059857,125.945625 L330.248781,127.077652" id="Stroke-3454" stroke="#000000"></path>
                <path d="M330.248781,127.077652 L322.18316,127.502156" id="Stroke-3455" stroke="#000000"></path>
                <path d="M322.18316,127.502156 L311.287468,127.502156" id="Stroke-3456" stroke="#000000"></path>
                <path d="M311.287468,127.502156 L300.816308,126.228631" id="Stroke-3457" stroke="#000000"></path>
                <path d="M300.816308,126.228631 L295.722239,125.238113" id="Stroke-3458" stroke="#000000"></path>
                <path d="M170.351983,13.5223263 L170.004017,13.217864" id="Stroke-3459" stroke="#000000"></path>
                <path d="M170.004017,13.217864 L167.481345,12.9568974" id="Stroke-3460" stroke="#000000"></path>
                <path d="M167.481345,12.9568974 L162.609949,14.4792053" id="Stroke-3461" stroke="#000000"></path>
                <path d="M162.609949,14.4792053 L156.738194,19.1766141" id="Stroke-3462" stroke="#000000"></path>
                <path d="M156.738194,19.1766141 L153.998038,22.917144" id="Stroke-3463" stroke="#000000"></path>
                <path d="M153.998038,22.917144 L152.693208,26.3097159" id="Stroke-3464" stroke="#000000"></path>
                <path d="M152.693208,26.3097159 L152.475725,29.0933668" id="Stroke-3465" stroke="#000000"></path>
                <path d="M152.475725,29.0933668 L153.084653,31.6160475" id="Stroke-3466" stroke="#000000"></path>
                <path d="M153.084653,31.6160475 L154.780942,33.8777633" id="Stroke-3467" stroke="#000000"></path>
                <path d="M154.780942,33.8777633 L157.825554,35.9220063" id="Stroke-3468" stroke="#000000"></path>
                <path d="M157.825554,35.9220063 L162.522961,37.3138309" id="Stroke-3469" stroke="#000000"></path>
                <path d="M162.522961,37.3138309 L168.351236,37.6182914" id="Stroke-3470" stroke="#000000"></path>
                <path d="M168.351236,37.6182914 L174.353473,36.6179186" id="Stroke-3471" stroke="#000000"></path>
                <path d="M174.353473,36.6179186 L179.485833,34.312709" id="Stroke-3472" stroke="#000000"></path>
                <path d="M179.485833,34.312709 L183.182867,31.0071265" id="Stroke-3473" stroke="#000000"></path>
                <path d="M183.182867,31.0071265 L185.227107,27.0926177" id="Stroke-3474" stroke="#000000"></path>
                <path d="M185.227107,27.0926177 L185.575058,23.0476273" id="Stroke-3475" stroke="#000000"></path>
                <path d="M185.575058,23.0476273 L184.40071,19.3070975" id="Stroke-3476" stroke="#000000"></path>
                <path d="M184.40071,19.3070975 L182.052013,16.3059755" id="Stroke-3477" stroke="#000000"></path>
                <path d="M182.052013,16.3059755 L178.833411,14.2182387" id="Stroke-3478" stroke="#000000"></path>
                <path d="M178.833411,14.2182387 L175.049389,13.1743694" id="Stroke-3479" stroke="#000000"></path>
                <path d="M175.049389,13.1743694 L171.265367,13.217864" id="Stroke-3480" stroke="#000000"></path>
                <path d="M171.265367,13.217864 L168.046766,14.0442605" id="Stroke-3481" stroke="#000000"></path>
                <path d="M168.046766,14.0442605 L165.654575,15.3925904" id="Stroke-3482" stroke="#000000"></path>
                <path d="M165.219622,23.7000458 L164.393225,24.787408" id="Stroke-3483" stroke="#000000"></path>
                <path d="M164.393225,24.787408 L164.045274,26.3097159" id="Stroke-3484" stroke="#000000"></path>
                <path d="M164.045274,26.3097159 L164.132262,27.8755194" id="Stroke-3485" stroke="#000000"></path>
                <path d="M164.132262,27.8755194 L164.74119,29.3108379" id="Stroke-3486" stroke="#000000"></path>
                <path d="M164.74119,29.3108379 L165.82855,30.3112124" id="Stroke-3487" stroke="#000000"></path>
                <path d="M165.82855,30.3112124 L167.394357,30.7896538" id="Stroke-3488" stroke="#000000"></path>
                <path d="M167.394357,30.7896538 L169.221128,30.6156747" id="Stroke-3489" stroke="#000000"></path>
                <path d="M169.221128,30.6156747 L170.917417,29.7022896" id="Stroke-3490" stroke="#000000"></path>
                <path d="M170.917417,29.7022896 L172.178752,28.3104651" id="Stroke-3491" stroke="#000000"></path>
                <path d="M172.178752,28.3104651 L172.787666,26.657672" id="Stroke-3492" stroke="#000000"></path>
                <path d="M172.787666,26.657672 L172.700678,25.0483747" id="Stroke-3493" stroke="#000000"></path>
                <path d="M172.700678,25.0483747 L172.004777,23.7000458" id="Stroke-3494" stroke="#000000"></path>
                <path d="M172.004777,23.7000458 L170.830414,22.7866607" id="Stroke-3495" stroke="#000000"></path>
                <path d="M170.830414,22.7866607 L169.395103,22.3517151" id="Stroke-3496" stroke="#000000"></path>
                <path d="M169.395103,22.3517151 L168.003271,22.4387045" id="Stroke-3497" stroke="#000000"></path>
                <path d="M168.003271,22.4387045 L166.915911,22.917144" id="Stroke-3498" stroke="#000000"></path>
                <path d="M166.828923,26.5706844 L166.828923,26.657672" id="Stroke-3499" stroke="#000000"></path>
                <path d="M169.873535,26.2662221 L169.830042,26.2662221" id="Stroke-3500" stroke="#000000"></path>
                <path d="M161.740057,18.1762395 L161.522588,19.3070975" id="Stroke-3501" stroke="#000000"></path>
                <path d="M161.522588,19.3070975 L161.95754,20.2204826" id="Stroke-3502" stroke="#000000"></path>
                <path d="M161.95754,20.2204826 L162.914419,20.4814492" id="Stroke-3503" stroke="#000000"></path>
                <path d="M162.914419,20.4814492 L163.523333,19.5245703" id="Stroke-3504" stroke="#000000"></path>
                <path d="M163.523333,19.5245703 L162.740444,18.8286579" id="Stroke-3505" stroke="#000000"></path>
                <path d="M162.740444,18.8286579 L162.261998,19.220108" id="Stroke-3506" stroke="#000000"></path>
                <path d="M174.44046,18.2197351 L174.222991,19.0896246" id="Stroke-3507" stroke="#000000"></path>
                <path d="M174.222991,19.0896246 L175.17987,19.4810764" id="Stroke-3508" stroke="#000000"></path>
                <path d="M175.17987,19.4810764 L175.701811,18.5676913" id="Stroke-3509" stroke="#000000"></path>
                <path d="M175.701811,18.5676913 L174.744932,17.9587667" id="Stroke-3510" stroke="#000000"></path>
                <path d="M157.738566,17.2193606 L157.260133,16.1754922" id="Stroke-3511" stroke="#000000"></path>
                <path d="M157.260133,16.1754922 L157.086144,13.3918421" id="Stroke-3512" stroke="#000000"></path>
                <path d="M157.086144,13.3918421 L157.434109,10.3037307" id="Stroke-3513" stroke="#000000"></path>
                <path d="M157.434109,10.3037307 L158.434482,9.91228073" id="Stroke-3514" stroke="#000000"></path>
                <path d="M158.434482,9.91228073 L160.87018,11.9130281" id="Stroke-3515" stroke="#000000"></path>
                <path d="M160.87018,11.9130281 L162.261998,12.6524351" id="Stroke-3516" stroke="#000000"></path>
                <path d="M178.094001,13.0003913 L178.137495,11.9565228" id="Stroke-3517" stroke="#000000"></path>
                <path d="M178.137495,11.9565228 L179.137868,9.82529128" id="Stroke-3518" stroke="#000000"></path>
                <path d="M179.137868,9.82529128 L180.399218,8.12900441" id="Stroke-3519" stroke="#000000"></path>
                <path d="M180.399218,8.12900441 L181.356097,7.95502634" id="Stroke-3520" stroke="#000000"></path>
                <path d="M181.356097,7.95502634 L181.965025,9.21636758" id="Stroke-3521" stroke="#000000"></path>
                <path d="M181.965025,9.21636758 L182.443458,13.043886" id="Stroke-3522" stroke="#000000"></path>
                <path d="M175.092883,32.3554573 L177.093628,31.5725537" id="Stroke-3523" stroke="#000000"></path>
                <path d="M177.093628,31.5725537 L181.225615,30.7896538" id="Stroke-3524" stroke="#000000"></path>
                <path d="M181.225615,30.7896538 L186.444949,30.3112124" id="Stroke-3525" stroke="#000000"></path>
                <path d="M186.444949,30.3112124 L191.446827,30.2677186" id="Stroke-3526" stroke="#000000"></path>
                <path d="M191.446827,30.2677186 L195.970258,30.7026642" id="Stroke-3527" stroke="#000000"></path>
                <path d="M195.970258,30.7026642 L199.928255,31.485566" id="Stroke-3528" stroke="#000000"></path>
                <path d="M199.928255,31.485566 L203.103364,32.5729264" id="Stroke-3529" stroke="#000000"></path>
                <path d="M203.103364,32.5729264 L205.365072,33.8777633" id="Stroke-3530" stroke="#000000"></path>
                <path d="M205.365072,33.8777633 L206.71341,35.4870608" id="Stroke-3531" stroke="#000000"></path>
                <path d="M206.713396,35.4870608 L207.148349,37.4443161" id="Stroke-3532" stroke="#000000"></path>
                <path d="M207.148349,37.4443161 L206.53942,39.7060319" id="Stroke-3533" stroke="#000000"></path>
                <path d="M206.53942,39.7060319 L204.799638,42.0547354" id="Stroke-3534" stroke="#000000"></path>
                <path d="M204.799638,42.0547354 L201.79852,44.2729538" id="Stroke-3535" stroke="#000000"></path>
                <path d="M201.79852,44.2729538 L197.623054,46.099724" id="Stroke-3536" stroke="#000000"></path>
                <path d="M197.623054,46.099724 L192.534187,47.2740793" id="Stroke-3537" stroke="#000000"></path>
                <path d="M192.534187,47.2740793 L186.923396,47.6220336" id="Stroke-3538" stroke="#000000"></path>
                <path d="M186.923396,47.6220336 L181.26911,47.1435942" id="Stroke-3539" stroke="#000000"></path>
                <path d="M181.26911,47.1435942 L176.049762,45.9257486" id="Stroke-3540" stroke="#000000"></path>
                <path d="M176.049762,45.9257486 L171.874295,44.2729538" id="Stroke-3541" stroke="#000000"></path>
                <path d="M171.874295,44.2729538 L169.090646,42.4461872" id="Stroke-3542" stroke="#000000"></path>
                <path d="M169.090646,42.4461872 L167.742308,40.7064046" id="Stroke-3543" stroke="#000000"></path>
                <path d="M167.742308,40.7064046 L167.524839,39.0971072" id="Stroke-3544" stroke="#000000"></path>
                <path d="M167.524839,39.0971072 L168.351236,37.6182914" id="Stroke-3545" stroke="#000000"></path>
                <path d="M205.887013,35.6175459 L206.756905,34.4866879" id="Stroke-3546" stroke="#000000"></path>
                <path d="M206.756905,34.4866879 L208.409685,33.3558301" id="Stroke-3547" stroke="#000000"></path>
                <path d="M208.409685,33.3558301 L210.453939,32.4859388" id="Stroke-3548" stroke="#000000"></path>
                <path d="M210.453939,32.4859388 L212.367696,32.0509932" id="Stroke-3549" stroke="#000000"></path>
                <path d="M212.367696,32.0509932 L213.976998,32.0509932" id="Stroke-3550" stroke="#000000"></path>
                <path d="M213.976998,32.0509932 L215.19484,32.4859388" id="Stroke-3551" stroke="#000000"></path>
                <path d="M215.19484,32.4859388 L215.934249,33.3558301" id="Stroke-3552" stroke="#000000"></path>
                <path d="M215.934249,33.3558301 L216.151719,34.5301818" id="Stroke-3553" stroke="#000000"></path>
                <path d="M216.151719,34.5301818 L215.847261,35.7480273" id="Stroke-3554" stroke="#000000"></path>
                <path d="M215.847247,35.7480273 L215.107851,36.8788853" id="Stroke-3555" stroke="#000000"></path>
                <path d="M215.107851,36.8788853 L214.020477,37.7487766" id="Stroke-3556" stroke="#000000"></path>
                <path d="M214.020477,37.7487766 L212.846129,38.227216" id="Stroke-3557" stroke="#000000"></path>
                <path d="M212.846129,38.227216 L211.715274,38.1837221" id="Stroke-3558" stroke="#000000"></path>
                <path d="M211.715274,38.1837221 L210.845383,37.5747975" id="Stroke-3559" stroke="#000000"></path>
                <path d="M210.845383,37.5747975 L210.323443,36.4004458" id="Stroke-3560" stroke="#000000"></path>
                <path d="M210.323443,36.4004458 L210.323443,34.8346422" id="Stroke-3561" stroke="#000000"></path>
                <path d="M173.434552,100.165996 L172.749245,99.9375624" id="Stroke-3562" stroke="#000000"></path>
                <path d="M172.749245,99.9375624 L168.237683,101.079736" id="Stroke-3563" stroke="#000000"></path>
                <path d="M168.237683,101.079736 L165.382249,103.249855" id="Stroke-3564" stroke="#000000"></path>
                <path d="M165.382249,103.249855 L161.44176,108.275408" id="Stroke-3565" stroke="#000000"></path>
                <path d="M161.44176,108.275408 L156.815978,117.584097" id="Stroke-3566" stroke="#000000"></path>
                <path d="M156.815978,117.584097 L155.331158,123.409155" id="Stroke-3567" stroke="#000000"></path>
                <path d="M155.331158,123.409155 L154.988497,128.377598" id="Stroke-3568" stroke="#000000"></path>
                <path d="M154.988497,128.377598 L155.730922,132.717851" id="Stroke-3569" stroke="#000000"></path>
                <path d="M155.730922,132.717851 L157.387065,136.487003" id="Stroke-3570" stroke="#000000"></path>
                <path d="M157.387065,136.487003 L160.128264,139.7422" id="Stroke-3571" stroke="#000000"></path>
                <path d="M160.128264,139.7422 L163.954547,142.483399" id="Stroke-3572" stroke="#000000"></path>
                <path d="M163.954547,142.483399 L168.694549,144.367982" id="Stroke-3573" stroke="#000000"></path>
                <path d="M168.694549,144.367982 L173.834315,145.110392" id="Stroke-3574" stroke="#000000"></path>
                <path d="M173.834315,145.110392 L179.088287,144.653526" id="Stroke-3575" stroke="#000000"></path>
                <path d="M179.088287,144.653526 L184.228067,143.054485" id="Stroke-3576" stroke="#000000"></path>
                <path d="M184.228067,143.054485 L189.139393,140.370389" id="Stroke-3577" stroke="#000000"></path>
                <path d="M189.139393,140.370389 L193.708072,136.658341" id="Stroke-3578" stroke="#000000"></path>
                <path d="M193.708072,136.658341 L197.762782,131.918324" id="Stroke-3579" stroke="#000000"></path>
                <path d="M197.762782,131.918324 L201.017964,126.321692" id="Stroke-3580" stroke="#000000"></path>
                <path d="M201.017964,126.321692 L203.073871,120.325303" id="Stroke-3581" stroke="#000000"></path>
                <path d="M203.073871,120.325303 L203.644957,114.500237" id="Stroke-3582" stroke="#000000"></path>
                <path d="M203.644957,114.500237 L202.788327,109.303361" id="Stroke-3583" stroke="#000000"></path>
                <path d="M202.788327,109.303361 L200.6182,104.906006" id="Stroke-3584" stroke="#000000"></path>
                <path d="M200.6182,104.906006 L197.191694,101.365279" id="Stroke-3585" stroke="#000000"></path>
                <path d="M197.191694,101.365279 L192.394575,98.7953962" id="Stroke-3586" stroke="#000000"></path>
                <path d="M192.394575,98.7953962 L186.74084,97.5961126" id="Stroke-3587" stroke="#000000"></path>
                <path d="M186.74084,97.5961126 L181.029987,97.7674432" id="Stroke-3588" stroke="#000000"></path>
                <path d="M181.029987,97.7674432 L175.890221,99.0809399" id="Stroke-3589" stroke="#000000"></path>
                <path d="M175.890221,99.0809399 L171.778409,101.136846" id="Stroke-3590" stroke="#000000"></path>
                <path d="M160.528027,113.81493 L157.558388,103.364075" id="Stroke-3591" stroke="#000000"></path>
                <path d="M157.558388,103.364075 L154.017662,88.1161015" id="Stroke-3592" stroke="#000000"></path>
                <path d="M154.017662,88.1161015 L155.959348,89.9435745" id="Stroke-3593" stroke="#000000"></path>
                <path d="M155.959348,89.9435745 L163.212123,99.6520187" id="Stroke-3594" stroke="#000000"></path>
                <path d="M163.212123,99.6520187 L165.325146,102.050579" id="Stroke-3595" stroke="#000000"></path>
                <path d="M188.796746,99.366476 L197.305915,86.1744153" id="Stroke-3596" stroke="#000000"></path>
                <path d="M197.305915,86.1744153 L200.047114,81.4344058" id="Stroke-3597" stroke="#000000"></path>
                <path d="M200.047114,81.4344058 L200.6182,83.8900757" id="Stroke-3598" stroke="#000000"></path>
                <path d="M200.6182,83.8900757 L199.590247,96.3968366" id="Stroke-3599" stroke="#000000"></path>
                <path d="M199.590247,96.3968366 L199.418924,103.135642" id="Stroke-3600" stroke="#000000"></path>
                <path d="M172.235276,116.613247 L172.178158,116.556144" id="Stroke-3601" stroke="#000000"></path>
                <path d="M188.796746,112.844087 L188.682526,112.786977" id="Stroke-3602" stroke="#000000"></path>
                <path d="M178.402994,127.064101 L178.745641,130.205078" id="Stroke-3603" stroke="#000000"></path>
                <path d="M178.745641,130.205078 L178.688538,132.832071" id="Stroke-3604" stroke="#000000"></path>
                <path d="M178.688538,132.832071 L178.231671,134.83086" id="Stroke-3605" stroke="#000000"></path>
                <path d="M178.231671,134.83086 L177.089498,136.4299" id="Stroke-3606" stroke="#000000"></path>
                <path d="M180.630224,128.092054 L181.886618,130.890371" id="Stroke-3607" stroke="#000000"></path>
                <path d="M181.886618,130.890371 L183.200114,132.660734" id="Stroke-3608" stroke="#000000"></path>
                <path d="M183.200114,132.660734 L185.541549,133.917128" id="Stroke-3609" stroke="#000000"></path>
                <path d="M177.089498,127.520968 L168.865873,125.750604" id="Stroke-3610" stroke="#000000"></path>
                <path d="M168.865873,125.750604 L155.730922,123.694698" id="Stroke-3611" stroke="#000000"></path>
                <path d="M174.919371,130.947488 L160.128264,132.203867" id="Stroke-3612" stroke="#000000"></path>
                <path d="M160.128264,132.203867 L154.931395,133.174717" id="Stroke-3613" stroke="#000000"></path>
                <path d="M176.175765,134.031347 L172.178158,135.173507" id="Stroke-3614" stroke="#000000"></path>
                <path d="M172.178158,135.173507 L165.839116,138.02894" id="Stroke-3615" stroke="#000000"></path>
                <path d="M165.839116,138.02894 L157.387065,143.054485" id="Stroke-3616" stroke="#000000"></path>
                <path d="M186.797943,125.693502 L192.451678,123.580493" id="Stroke-3617" stroke="#000000"></path>
                <path d="M192.451678,123.580493 L207.128566,118.098073" id="Stroke-3618" stroke="#000000"></path>
                <path d="M207.128566,118.098073 L212.668095,115.585294" id="Stroke-3619" stroke="#000000"></path>
                <path d="M187.711676,129.519772 L202.788327,129.348448" id="Stroke-3620" stroke="#000000"></path>
                <path d="M202.788327,129.348448 L214.609782,129.120007" id="Stroke-3621" stroke="#000000"></path>
                <path d="M489.267819,16.0031545 L489.375706,15.2476765" id="Stroke-3622" stroke="#3399FF"></path>
                <path d="M489.375706,15.2476765 L487.325162,14.4921984" id="Stroke-3623" stroke="#3399FF"></path>
                <path d="M487.325162,14.4921984 L482.68435,15.3016388" id="Stroke-3624" stroke="#3399FF"></path>
                <path d="M482.68435,15.3016388 L475.129582,20.9677222" id="Stroke-3625" stroke="#3399FF"></path>
                <path d="M475.129582,20.9677222 L470.704631,27.6590973" id="Stroke-3626" stroke="#3399FF"></path>
                <path d="M470.704631,27.6590973 L470.542744,33.2172541" id="Stroke-3627" stroke="#3399FF"></path>
                <path d="M470.542744,33.2172541 L474.535974,35.0519883" id="Stroke-3628" stroke="#3399FF"></path>
                <path d="M474.535974,35.0519883 L485.436449,35.1599112" id="Stroke-3629" stroke="#3399FF"></path>
                <path d="M485.436449,35.1599112 L489.537623,34.5123588" id="Stroke-3630" stroke="#3399FF"></path>
                <path d="M489.537623,34.5123588 L492.397637,33.2712192" id="Stroke-3631" stroke="#3399FF"></path>
                <path d="M492.397637,33.2712192 L494.232348,31.5444117" id="Stroke-3632" stroke="#3399FF"></path>
                <path d="M494.232348,31.5444117 L495.203677,29.4398665" id="Stroke-3633" stroke="#3399FF"></path>
                <path d="M495.203677,29.4398665 L495.527454,27.0115451" id="Stroke-3634" stroke="#3399FF"></path>
                <path d="M495.527454,27.0115451 L495.25765,24.3673722" id="Stroke-3635" stroke="#3399FF"></path>
                <path d="M495.25765,24.3673722 L494.286321,21.7771627" id="Stroke-3636" stroke="#3399FF"></path>
                <path d="M494.286321,21.7771627 L492.66744,19.5107294" id="Stroke-3637" stroke="#3399FF"></path>
                <path d="M492.66744,19.5107294 L490.616896,17.7839235" id="Stroke-3638" stroke="#3399FF"></path>
                <path d="M490.616896,17.7839235 L488.296491,16.7586317" id="Stroke-3639" stroke="#3399FF"></path>
                <path d="M474.374085,21.3994232 L472.971065,14.0065341" id="Stroke-3640" stroke="#3399FF"></path>
                <path d="M472.971065,14.0065341 L471.783876,4.02343464" id="Stroke-3641" stroke="#3399FF"></path>
                <path d="M471.783876,4.02343464 L474.85975,8.07063701" id="Stroke-3642" stroke="#3399FF"></path>
                <path d="M474.85975,8.07063701 L478.151484,11.6861384" id="Stroke-3643" stroke="#3399FF"></path>
                <path d="M488.782126,16.0031545 L490.778755,11.6861384" id="Stroke-3644" stroke="#3399FF"></path>
                <path d="M490.778755,11.6861384 L496.228978,1.81096393" id="Stroke-3645" stroke="#3399FF"></path>
                <path d="M496.228978,1.81096393 L496.876531,3.7536213" id="Stroke-3646" stroke="#3399FF"></path>
                <path d="M496.876531,3.7536213 L496.498782,13.7906836" id="Stroke-3647" stroke="#3399FF"></path>
                <path d="M496.498782,13.7906836 L496.714672,18.2156246" id="Stroke-3648" stroke="#3399FF"></path>
                <path d="M480.579806,31.5983732 L475.669191,31.5983732" id="Stroke-3649" stroke="#3399FF"></path>
                <path d="M475.669191,31.5983732 L471.67596,32.1380025" id="Stroke-3650" stroke="#3399FF"></path>
                <path d="M471.67596,32.1380025 L467.574786,33.2712192" id="Stroke-3651" stroke="#3399FF"></path>
                <path d="M467.574786,33.2712192 L464.013247,34.8361351" id="Stroke-3652" stroke="#3399FF"></path>
                <path d="M480.310002,33.7029184 L474.050309,37.8040859" id="Stroke-3653" stroke="#3399FF"></path>
                <path d="M474.050309,37.8040859 L467.736674,43.2003545" id="Stroke-3654" stroke="#3399FF"></path>
                <path d="M482.09077,35.6995407 L477.342043,42.1210993" id="Stroke-3655" stroke="#3399FF"></path>
                <path d="M477.342043,42.1210993 L471.783876,51.3487208" id="Stroke-3656" stroke="#3399FF"></path>
                <path d="M488.674239,30.0334556 L499.520712,28.4145745" id="Stroke-3657" stroke="#3399FF"></path>
                <path d="M499.520712,28.4145745 L504.863049,27.2813579" id="Stroke-3658" stroke="#3399FF"></path>
                <path d="M488.350463,33.2712192 L495.419567,33.9187716" id="Stroke-3659" stroke="#3399FF"></path>
                <path d="M495.419567,33.9187716 L499.68263,34.7821736" id="Stroke-3660" stroke="#3399FF"></path>
                <path d="M488.45835,36.455016 L493.746714,38.7754145" id="Stroke-3661" stroke="#3399FF"></path>
                <path d="M493.746714,38.7754145 L498.27958,40.1784422" id="Stroke-3662" stroke="#3399FF"></path>
                <path d="M488.188546,33.9187716 L489.753454,34.2425478" id="Stroke-3663" stroke="#3399FF"></path>
                <path d="M489.753454,34.2425478 L493.530882,34.0806597" id="Stroke-3664" stroke="#3399FF"></path>
                <path d="M493.530882,34.0806597 L498.927132,33.2172541" id="Stroke-3665" stroke="#3399FF"></path>
                <path d="M498.927132,33.2172541 L510.960824,30.6810079" id="Stroke-3666" stroke="#3399FF"></path>
                <path d="M510.960824,30.6810079 L515.601577,30.1953436" id="Stroke-3667" stroke="#3399FF"></path>
                <path d="M515.601577,30.1953436 L520.835969,30.4651583" id="Stroke-3668" stroke="#3399FF"></path>
                <path d="M520.835969,30.4651583 L523.857899,31.3285621" id="Stroke-3669" stroke="#3399FF"></path>
                <path d="M523.857899,31.3285621 L526.016388,32.7315898" id="Stroke-3670" stroke="#3399FF"></path>
                <path d="M526.016388,32.7315898 L527.311493,34.674247" id="Stroke-3671" stroke="#3399FF"></path>
                <path d="M527.311493,34.674247 L527.689241,37.0486069" id="Stroke-3672" stroke="#3399FF"></path>
                <path d="M527.689241,37.0486069 L527.041689,39.6388164" id="Stroke-3673" stroke="#3399FF"></path>
                <path d="M527.041689,39.6388164 L525.260949,42.2829875" id="Stroke-3674" stroke="#3399FF"></path>
                <path d="M525.260949,42.2829875 L522.185046,44.7113089" id="Stroke-3675" stroke="#3399FF"></path>
                <path d="M522.185046,44.7113089 L517.760124,46.7079311" id="Stroke-3676" stroke="#3399FF"></path>
                <path d="M517.760124,46.7079311 L512.363816,47.9490708" id="Stroke-3677" stroke="#3399FF"></path>
                <path d="M512.363816,47.9490708 L506.373985,48.272847" id="Stroke-3678" stroke="#3399FF"></path>
                <path d="M506.373985,48.272847 L500.438069,47.6252946" id="Stroke-3679" stroke="#3399FF"></path>
                <path d="M500.438069,47.6252946 L495.149763,46.3301898" id="Stroke-3680" stroke="#3399FF"></path>
                <path d="M495.149763,46.3301898 L490.994587,44.7113089" id="Stroke-3681" stroke="#3399FF"></path>
                <path d="M493.422937,46.7618927 L491.534252,54.6944093" id="Stroke-3682" stroke="#3399FF"></path>
                <path d="M503.513972,47.5713331 L502.812447,55.6657378" id="Stroke-3683" stroke="#3399FF"></path>
                <path d="M518.839339,47.0856688 L519.432977,55.0181854" id="Stroke-3684" stroke="#3399FF"></path>
                <path d="M495.937899,91.8923116 L495.461423,91.502454" id="Stroke-3685" stroke="#3399FF"></path>
                <path d="M495.461423,91.502454 L492.515842,91.502454" id="Stroke-3686" stroke="#3399FF"></path>
                <path d="M492.515842,91.502454 L489.743541,92.7153321" id="Stroke-3687" stroke="#3399FF"></path>
                <path d="M489.743541,92.7153321 L484.935363,96.613864" id="Stroke-3688" stroke="#3399FF"></path>
                <path d="M484.935363,96.613864 L474.279387,107.789649" id="Stroke-3689" stroke="#3399FF"></path>
                <path d="M474.279387,107.789649 L467.348664,117.189435" id="Stroke-3690" stroke="#3399FF"></path>
                <path d="M467.348664,117.189435 L465.226148,121.56445" id="Stroke-3691" stroke="#3399FF"></path>
                <path d="M465.226148,121.56445 L464.143222,125.116444" id="Stroke-3692" stroke="#3399FF"></path>
                <path d="M464.143222,125.116444 L464.013247,128.191955" id="Stroke-3693" stroke="#3399FF"></path>
                <path d="M464.013247,128.191955 L464.749642,131.007562" id="Stroke-3694" stroke="#3399FF"></path>
                <path d="M464.749642,131.007562 L466.655603,133.606584" id="Stroke-3695" stroke="#3399FF"></path>
                <path d="M466.655603,133.606584 L469.557849,136.075645" id="Stroke-3696" stroke="#3399FF"></path>
                <path d="M469.557849,136.075645 L473.413047,138.371441" id="Stroke-3697" stroke="#3399FF"></path>
                <path d="M473.413047,138.371441 L478.004639,140.320707" id="Stroke-3698" stroke="#3399FF"></path>
                <path d="M478.004639,140.320707 L483.072737,141.750178" id="Stroke-3699" stroke="#3399FF"></path>
                <path d="M483.072737,141.750178 L488.35742,142.659823" id="Stroke-3700" stroke="#3399FF"></path>
                <path d="M488.35742,142.659823 L493.772047,143.006368" id="Stroke-3701" stroke="#3399FF"></path>
                <path d="M493.772047,143.006368 L499.229981,142.789783" id="Stroke-3702" stroke="#3399FF"></path>
                <path d="M499.229981,142.789783 L504.644609,141.836803" id="Stroke-3703" stroke="#3399FF"></path>
                <path d="M504.644609,141.836803 L509.842651,140.060816" id="Stroke-3704" stroke="#3399FF"></path>
                <path d="M509.842651,140.060816 L514.694134,137.548421" id="Stroke-3705" stroke="#3399FF"></path>
                <path d="M514.694134,137.548421 L518.982532,134.299644" id="Stroke-3706" stroke="#3399FF"></path>
                <path d="M518.982532,134.299644 L522.621173,130.357807" id="Stroke-3707" stroke="#3399FF"></path>
                <path d="M522.621173,130.357807 L525.393473,125.809519" id="Stroke-3708" stroke="#3399FF"></path>
                <path d="M525.393473,125.809519 L527.126097,120.871382" id="Stroke-3709" stroke="#3399FF"></path>
                <path d="M527.126097,120.871382 L527.689241,115.846611" id="Stroke-3710" stroke="#3399FF"></path>
                <path d="M527.689241,115.846611 L527.126097,110.995106" id="Stroke-3711" stroke="#3399FF"></path>
                <path d="M527.126097,110.995106 L525.436779,106.446819" id="Stroke-3712" stroke="#3399FF"></path>
                <path d="M525.436779,106.446819 L522.707784,102.375022" id="Stroke-3713" stroke="#3399FF"></path>
                <path d="M522.707784,102.375022 L518.939225,98.8663478" id="Stroke-3714" stroke="#3399FF"></path>
                <path d="M518.939225,98.8663478 L514.174354,96.0940612" id="Stroke-3715" stroke="#3399FF"></path>
                <path d="M514.174354,96.0940612 L508.71642,94.3613804" id="Stroke-3716" stroke="#3399FF"></path>
                <path d="M508.71642,94.3613804 L503.041902,93.754945" id="Stroke-3717" stroke="#3399FF"></path>
                <path d="M503.041902,93.754945 L497.713885,94.1447952" id="Stroke-3718" stroke="#3399FF"></path>
                <path d="M497.713885,94.1447952 L493.122292,95.3576728" id="Stroke-3719" stroke="#3399FF"></path>
                <path d="M483.246016,111.428277 L483.289323,111.774814" id="Stroke-3720" stroke="#3399FF"></path>
                <path d="M509.149591,108.526038 L508.976311,108.699303" id="Stroke-3721" stroke="#3399FF"></path>
                <path d="M489.39704,118.532266 L487.491079,120.394892" id="Stroke-3722" stroke="#3399FF"></path>
                <path d="M487.491079,120.394892 L486.191568,122.604063" id="Stroke-3723" stroke="#3399FF"></path>
                <path d="M486.191568,122.604063 L485.411868,125.246403" id="Stroke-3724" stroke="#3399FF"></path>
                <path d="M485.411868,125.246403 L485.325228,127.888731" id="Stroke-3725" stroke="#3399FF"></path>
                <path d="M485.325228,127.888731 L485.974984,130.314487" id="Stroke-3726" stroke="#3399FF"></path>
                <path d="M485.974984,130.314487 L487.361105,132.393698" id="Stroke-3727" stroke="#3399FF"></path>
                <path d="M487.361105,132.393698 L489.613625,134.039753" id="Stroke-3728" stroke="#3399FF"></path>
                <path d="M489.613625,134.039753 L492.732428,135.07936" id="Stroke-3729" stroke="#3399FF"></path>
                <path d="M492.732428,135.07936 L496.2844,135.295944" id="Stroke-3730" stroke="#3399FF"></path>
                <path d="M496.2844,135.295944 L499.836431,134.646189" id="Stroke-3731" stroke="#3399FF"></path>
                <path d="M499.836431,134.646189 L502.998538,133.346678" id="Stroke-3732" stroke="#3399FF"></path>
                <path d="M502.998538,133.346678 L505.59756,131.613997" id="Stroke-3733" stroke="#3399FF"></path>
                <path d="M505.59756,131.613997 L507.546826,129.534786" id="Stroke-3734" stroke="#3399FF"></path>
                <path d="M507.546826,129.534786 L508.846337,127.238976" id="Stroke-3735" stroke="#3399FF"></path>
                <path d="M508.846337,127.238976 L509.409481,124.899859" id="Stroke-3736" stroke="#3399FF"></path>
                <path d="M509.409481,124.899859 L509.106227,122.647382" id="Stroke-3737" stroke="#3399FF"></path>
                <path d="M509.106227,122.647382 L507.979996,120.611477" id="Stroke-3738" stroke="#3399FF"></path>
                <path d="M507.979996,120.611477 L506.03073,118.878795" id="Stroke-3739" stroke="#3399FF"></path>
                <path d="M506.03073,118.878795 L503.301792,117.579292" id="Stroke-3740" stroke="#3399FF"></path>
                <path d="M503.301792,117.579292 L500.139627,116.929537" id="Stroke-3741" stroke="#3399FF"></path>
                <path d="M500.139627,116.929537 L496.977519,116.97285" id="Stroke-3742" stroke="#3399FF"></path>
                <path d="M496.977519,116.97285 L494.205218,117.579292" id="Stroke-3743" stroke="#3399FF"></path>
                <path d="M494.205218,117.579292 L491.996061,118.532266" id="Stroke-3744" stroke="#3399FF"></path>
                <path d="M491.996061,118.532266 L490.349991,119.701824" id="Stroke-3745" stroke="#3399FF"></path>
                <path d="M492.429231,124.596648 L491.996061,125.982784" id="Stroke-3746" stroke="#3399FF"></path>
                <path d="M491.996061,125.982784 L492.255952,127.282295" id="Stroke-3747" stroke="#3399FF"></path>
                <path d="M492.255952,127.282295 L493.468793,127.84541" id="Stroke-3748" stroke="#3399FF"></path>
                <path d="M493.468793,127.84541 L494.378497,126.58922" id="Stroke-3749" stroke="#3399FF"></path>
                <path d="M494.378497,126.58922 L494.335134,125.419669" id="Stroke-3750" stroke="#3399FF"></path>
                <path d="M494.335134,125.419669 L493.252208,124.856539" id="Stroke-3751" stroke="#3399FF"></path>
                <path d="M501.005967,123.600348 L500.356212,124.899859" id="Stroke-3752" stroke="#3399FF"></path>
                <path d="M500.356212,124.899859 L500.572796,126.15605" id="Stroke-3753" stroke="#3399FF"></path>
                <path d="M500.572796,126.15605 L501.872307,126.58922" id="Stroke-3754" stroke="#3399FF"></path>
                <path d="M501.872307,126.58922 L502.781953,125.246403" id="Stroke-3755" stroke="#3399FF"></path>
                <path d="M502.781953,125.246403 L502.652037,123.903573" id="Stroke-3756" stroke="#3399FF"></path>
                <path d="M502.652037,123.903573 L501.612417,123.253818" id="Stroke-3757" stroke="#3399FF"></path>
                <path d="M477.138299,102.76488 L476.661824,101.292096" id="Stroke-3758" stroke="#3399FF"></path>
                <path d="M476.661824,101.292096 L476.055373,94.448013" id="Stroke-3759" stroke="#3399FF"></path>
                <path d="M476.055373,94.448013 L476.055373,91.1992363" id="Stroke-3760" stroke="#3399FF"></path>
                <path d="M476.055373,91.1992363 L477.398219,90.8093859" id="Stroke-3761" stroke="#3399FF"></path>
                <path d="M477.398219,90.8093859 L480.863581,93.1485023" id="Stroke-3762" stroke="#3399FF"></path>
                <path d="M480.863581,93.1485023 L485.022003,96.6571768" id="Stroke-3763" stroke="#3399FF"></path>
                <path d="M511.835222,94.8811832 L512.095113,93.45172" id="Stroke-3764" stroke="#3399FF"></path>
                <path d="M512.095113,93.45172 L513.697878,90.2895832" id="Stroke-3765" stroke="#3399FF"></path>
                <path d="M513.697878,90.2895832 L516.21023,86.6942689" id="Stroke-3766" stroke="#3399FF"></path>
                <path d="M516.21023,86.6942689 L517.466435,85.4380782" id="Stroke-3767" stroke="#3399FF"></path>
                <path d="M517.466435,85.4380782 L518.246165,87.1274391" id="Stroke-3768" stroke="#3399FF"></path>
                <path d="M518.246165,87.1274391 L518.202802,94.9678158" id="Stroke-3769" stroke="#3399FF"></path>
                <path d="M518.202802,94.9678158 L518.549361,99.0829326" id="Stroke-3770" stroke="#3399FF"></path>
                <path d="M484.588833,114.330516 L485.195282,114.503781" id="Stroke-3771" stroke="#3399FF"></path>
                <path d="M485.195282,114.503781 L485.411868,113.594127" id="Stroke-3772" stroke="#3399FF"></path>
                <path d="M509.712677,110.908474 L509.669372,110.995106" id="Stroke-3773" stroke="#3399FF"></path>
                <path d="M509.669372,110.995106 L509.322812,110.258719" id="Stroke-3774" stroke="#3399FF"></path>
                <path d="M501.742391,126.7625 L501.525806,127.10903" id="Stroke-3775" stroke="#3399FF"></path>
                <path d="M501.525806,127.10903 L501.352526,126.372634" id="Stroke-3776" stroke="#3399FF"></path>
                <path d="M501.352526,126.372634 L501.135941,126.329329" id="Stroke-3777" stroke="#3399FF"></path>
                <path d="M497.280715,129.144921 L497.93047,129.967956" id="Stroke-3778" stroke="#3399FF"></path>
                <path d="M497.93047,129.967956 L498.883421,130.704337" id="Stroke-3779" stroke="#3399FF"></path>
            </g>
            <path d="M89.917968,99.699218 L93.746093,99.699218 L93.746093,111.949218 L105.941406,111.949218 L105.941406,115.777343 L93.746093,115.777343 L93.746093,128 L89.917968,128 L89.917968,115.777343 L77.667968,115.777343 L77.667968,111.949218 L89.917968,111.949218 L89.917968,99.699218 Z M129.835937,97.238281 C132.16927,94.303385 134.921875,91.942708 138.09375,90.15625 L138.613281,91.058593 C135.678385,93.391927 133.582031,95.661458 132.324218,97.867187 C130.118489,101.713541 129.015625,106.835937 129.015625,113.234375 C129.015625,117.973958 129.434895,121.884114 130.273437,124.964843 C131.75,130.360677 134.529947,134.398437 138.613281,137.078125 L137.902343,137.980468 C135.660156,136.904947 133.235677,134.799479 130.628906,131.664062 C126.308593,126.46875 124.148437,120.5625 124.148437,113.945312 C124.148437,107.601562 126.04427,102.032552 129.835937,97.238281 Z M240.40625,113.617187 L254.160156,113.617187 L254.160156,117.117187 L240.40625,117.117187 L240.40625,113.617187 Z M369.734375,121.929687 C369.023437,124.354166 367.984375,126.641927 366.617187,128.792968 C365.177083,131.089843 363.253906,133.23177 360.847656,135.21875 C359.261718,136.53125 357.930989,137.451822 356.855468,137.980468 L356.335937,137.078125 C359.143229,134.945312 361.19401,132.766927 362.488281,130.542968 C364.785156,126.605468 365.933593,121.401041 365.933593,114.929687 C365.933593,109.697916 365.404947,105.423177 364.347656,102.105468 C362.871093,97.420572 360.20052,93.738281 356.335937,91.058593 L357.046875,90.15625 C359.927083,91.760416 362.60677,94.184895 365.085937,97.429687 C368.895833,102.424479 370.800781,108.020833 370.800781,114.21875 C370.800781,116.934895 370.445312,119.505208 369.734375,121.929687 Z M431.4414,117.582031 L431.4414,121.410156 L403.16796,121.410156 L403.16796,117.582031 L431.4414,117.582031 Z M431.4414,106.289062 L431.4414,110.117187 L403.16796,110.117187 L403.16796,106.289062 L431.4414,106.289062 Z" id="Fill-3781" fill="#000000"></path>
        </g>
    </g>
</svg>